M48
; DRILL file {KiCad (5.1.10)-1} date 10/14/21 21:53:29
; FORMAT={-:-/ absolute / inch / decimal}
; #@! TF.CreationDate,2021-10-14T21:53:29+02:00
; #@! TF.GenerationSoftware,Kicad,Pcbnew,(5.1.10)-1
; #@! TF.FileFunction,Plated,1,2,PTH
FMAT,2
INCH
T1C0.0118
T2C0.0157
T3C0.0197
T4C0.0217
T5C0.0350
T6C0.0390
T7C0.0394
T8C0.0709
T9C0.0800
T10C0.1260
%
G90
G05
T1
X6.0837Y-2.4954
X6.1787Y-3.8604
X6.2487Y-3.9454
X6.2537Y-2.9904
X6.2537Y-3.8754
X6.4137Y-3.6754
X6.4777Y-1.9834
X6.5887Y-3.6704
X6.6937Y-2.3804
X6.7487Y-2.3804
X6.7887Y-3.7204
X6.8187Y-2.1604
X6.9337Y-2.5254
X6.9537Y-2.4354
X6.9537Y-2.4854
X6.9787Y-2.5254
X6.9787Y-2.6104
X7.0047Y-2.1514
X7.0399Y-2.9452
X7.0445Y-2.8798
X7.0537Y-2.9111
X7.0537Y-2.9754
X7.0587Y-2.1514
X7.0987Y-2.6954
X7.1037Y-2.7304
X7.1087Y-2.8804
X7.1087Y-3.0454
X7.1087Y-4.4354
X7.1087Y-4.5554
X7.1175Y-2.9114
X7.1187Y-3.9954
X7.1187Y-4.0654
X7.1229Y-2.9778
X7.1237Y-3.0754
X7.1387Y-2.9454
X7.1387Y-3.0088
X7.27Y-2.6916
X7.2762Y-3.0344
X7.2937Y-2.7129
X7.3587Y-2.5754
X7.5337Y-2.7254
X7.6487Y-2.8504
X7.6487Y-2.9454
X7.8637Y-2.3104
X8.5487Y-4.4104
X8.6367Y-4.3334
X9.0337Y-4.8154
T2
X5.6337Y-2.5704
X5.7087Y-2.5704
X5.8387Y-2.4654
X5.9887Y-2.7054
X6.0183Y-3.0657
X6.0387Y-3.0174
X6.039Y-2.965
X6.0487Y-2.7454
X6.0487Y-2.9034
X6.0529Y-2.5858
X6.1747Y-3.2954
X6.2247Y-3.4274
X6.2427Y-3.2334
X6.2623Y-2.811
X6.2834Y-2.634
X6.3337Y-5.2554
X6.3477Y-5.1104
X6.3552Y-4.4569
X6.3587Y-4.5554
X6.3987Y-5.1054
X6.4007Y-5.2554
X6.5842Y-3.4359
X6.5987Y-3.4804
X6.6237Y-3.4504
X6.7287Y-2.6654
X6.7507Y-3.2414
X6.8337Y-3.4754
X6.8347Y-3.3974
X6.8737Y-3.2604
X6.9487Y-4.1794
X6.9787Y-2.7366
X7.0337Y-3.2654
X7.1207Y-4.2134
X7.2767Y-2.8494
X7.2787Y-2.9759
X7.3566Y-3.2325
X7.4187Y-3.3754
X7.4827Y-3.2934
X7.5047Y-3.4934
X7.6087Y-3.0354
X7.7637Y-4.1104
X7.7737Y-4.2204
X7.8637Y-2.2624
X7.8637Y-2.3104
X7.8637Y-2.4386
X7.8647Y-2.1283
X7.8987Y-3.5774
X7.9467Y-3.5194
X8.0764Y-4.092
X8.0855Y-3.9835
X8.3237Y-3.2354
X8.3367Y-5.2394
X8.3387Y-5.1194
X8.3987Y-3.3234
X8.3987Y-3.4054
X8.4487Y-5.5554
X8.4592Y-5.4699
X8.4767Y-3.1754
X8.4952Y-3.3939
X8.5693Y-2.1897
X8.5887Y-3.3004
X8.7237Y-3.5624
X8.8227Y-3.4574
X9.0137Y-4.3004
X9.0137Y-4.3654
X9.0137Y-4.4254
X9.0137Y-4.4904
X9.0147Y-5.0714
X9.0247Y-5.3094
X9.0337Y-4.8154
X9.0627Y-5.3514
X9.0637Y-5.4804
X9.0647Y-4.5844
X9.0647Y-4.8554
X9.0647Y-5.0994
X9.0647Y-5.0994
X9.1027Y-4.8134
X9.1047Y-5.3054
X9.1147Y-5.0734
X9.2187Y-4.1554
X9.2187Y-4.3554
X9.2237Y-4.2004
X9.2237Y-4.3004
X9.4037Y-2.9654
X9.4037Y-3.0654
T3
X5.6042Y-2.0554
X5.6042Y-5.6554
X5.6318Y-1.9885
X5.6318Y-2.1222
X5.6318Y-5.5885
X5.6318Y-5.7222
X5.6987Y-1.9609
X5.6987Y-2.1498
X5.6987Y-5.5609
X5.6987Y-5.7498
X5.7655Y-1.9885
X5.7655Y-2.1222
X5.7655Y-5.5885
X5.7655Y-5.7222
X5.7931Y-2.0554
X5.7931Y-5.6554
X9.2042Y-2.0554
X9.2042Y-5.6554
X9.2318Y-1.9885
X9.2318Y-2.1222
X9.2318Y-5.5885
X9.2318Y-5.7222
X9.2987Y-1.9609
X9.2987Y-2.1498
X9.2987Y-5.5609
X9.2987Y-5.7498
X9.3655Y-1.9885
X9.3655Y-2.1222
X9.3655Y-5.5885
X9.3655Y-5.7222
X9.3931Y-2.0554
X9.3931Y-5.6554
T5
X8.9387Y-2.4554
X8.9387Y-2.5554
T6
X8.4487Y-2.4504
X8.4487Y-2.5504
X8.4487Y-2.6504
X8.4487Y-2.7504
X8.4487Y-2.8504
X8.7487Y-2.4504
X8.7487Y-2.5504
X8.7487Y-2.6504
X8.7487Y-2.7504
X8.7487Y-2.8504
T7
X5.7957Y-5.0574
X5.8987Y-2.5054
X5.8987Y-2.6054
X5.8987Y-3.1554
X5.8987Y-3.2554
X5.9487Y-5.4574
X5.9967Y-4.3054
X6.0637Y-2.3954
X6.1637Y-2.3954
X6.3277Y-2.0164
X6.3277Y-2.1164
X6.3737Y-4.1304
X6.3737Y-4.2304
X6.3887Y-2.3034
X6.3887Y-2.4034
X6.4277Y-2.0164
X6.4277Y-2.1164
X6.4887Y-2.3034
X6.4887Y-2.4034
X6.5277Y-2.0164
X6.5277Y-2.1164
X6.5737Y-4.1304
X6.5737Y-4.2304
X6.5887Y-2.3034
X6.5887Y-2.4034
X6.6277Y-2.0164
X6.6277Y-2.1164
X6.7007Y-5.6584
X6.7257Y-5.2054
X6.7627Y-4.1294
X6.7627Y-4.2294
X6.8187Y-2.2804
X6.8187Y-2.3804
X6.9067Y-3.0414
X6.9267Y-4.4534
X7.0267Y-3.0574
X7.1007Y-5.7044
X7.2167Y-4.8714
X7.2237Y-3.7074
X7.2997Y-5.3504
X7.4387Y-4.6584
X7.4687Y-2.3304
X7.4687Y-2.5054
X7.6377Y-4.3044
X7.6487Y-2.3104
X7.8497Y-5.4574
X7.9246Y-2.5298
X7.9246Y-3.1006
X7.9687Y-5.0724
X7.9757Y-3.9084
X8.0231Y-3.1006
X8.1215Y-2.5298
X8.1215Y-3.1006
X8.2037Y-5.6564
X8.3007Y-4.2474
X8.4957Y-5.2574
X8.5017Y-3.4954
X8.5837Y-3.0504
X8.5837Y-3.1504
X8.6967Y-4.5054
X8.7337Y-3.0504
X8.7337Y-3.1504
X8.8837Y-3.0504
X8.8837Y-3.1504
X9.1007Y-4.0054
X9.3017Y-3.2534
T9
X9.1387Y-2.3554
X9.1387Y-2.7554
T10
X5.6987Y-2.0554
X5.6987Y-5.6554
X9.2987Y-2.0554
X9.2987Y-5.6554
T3
G00X6.9659Y-2.0019
M15
G01X6.9659Y-1.9763
M16
G05
G00X7.2415Y-2.0019
M15
G01X7.2415Y-1.9763
M16
G05
G00X7.4559Y-2.0019
M15
G01X7.4559Y-1.9763
M16
G05
G00X7.7315Y-2.0019
M15
G01X7.7315Y-1.9763
M16
G05
T4
G00X7.0111Y-2.0954
M15
G01X6.9993Y-2.0954
M16
G05
G00X7.208Y-2.0954
M15
G01X7.1962Y-2.0954
M16
G05
G00X7.5011Y-2.0954
M15
G01X7.4893Y-2.0954
M16
G05
G00X7.698Y-2.0954
M15
G01X7.6862Y-2.0954
M16
G05
T7
G00X5.6987Y-3.5857
M15
G01X5.6987Y-3.625
M16
G05
G00X5.6987Y-3.9357
M15
G01X5.6987Y-3.975
M16
G05
G00X5.7931Y-3.5069
M15
G01X5.7931Y-3.5463
M16
G05
G00X5.7931Y-3.8569
M15
G01X5.7931Y-3.8963
M16
G05
G00X5.9388Y-3.5857
M15
G01X5.9388Y-3.625
M16
G05
G00X5.9388Y-3.9357
M15
G01X5.9388Y-3.975
M16
G05
G00X6.0097Y-3.5069
M15
G01X6.0097Y-3.5463
M16
G05
G00X6.0097Y-3.8569
M15
G01X6.0097Y-3.8963
M16
G05
G00X6.1554Y-3.5857
M15
G01X6.1554Y-3.625
M16
G05
G00X6.1554Y-3.9357
M15
G01X6.1554Y-3.975
M16
G05
T8
G00X7.7987Y-2.7896
M15
G01X7.7987Y-2.8211
M16
G05
G00X8.2475Y-2.7896
M15
G01X8.2475Y-2.8211
M16
G05
T0
M30
