G04 #@! TF.GenerationSoftware,KiCad,Pcbnew,(5.1.10)-1*
G04 #@! TF.CreationDate,2021-10-14T21:53:28+02:00*
G04 #@! TF.ProjectId,H7RTX-V2,48375254-582d-4563-922e-6b696361645f,rev?*
G04 #@! TF.SameCoordinates,Original*
G04 #@! TF.FileFunction,Soldermask,Top*
G04 #@! TF.FilePolarity,Negative*
%FSLAX46Y46*%
G04 Gerber Fmt 4.6, Leading zero omitted, Abs format (unit mm)*
G04 Created by KiCad (PCBNEW (5.1.10)-1) date 2021-10-14 21:53:28*
%MOMM*%
%LPD*%
G01*
G04 APERTURE LIST*
%ADD10C,2.000000*%
%ADD11R,2.800000X3.600000*%
%ADD12O,1.700000X1.700000*%
%ADD13R,1.700000X1.700000*%
%ADD14R,2.000000X2.000000*%
%ADD15C,1.498600*%
%ADD16R,1.800000X2.900000*%
%ADD17R,0.700000X0.450000*%
%ADD18C,0.100000*%
%ADD19R,2.300000X0.900000*%
%ADD20O,1.508000X3.016000*%
%ADD21C,1.397000*%
%ADD22C,2.540000*%
%ADD23R,0.800000X0.900000*%
%ADD24R,0.900000X0.800000*%
%ADD25R,1.800000X2.000000*%
%ADD26R,1.500000X2.000000*%
%ADD27R,3.800000X2.000000*%
%ADD28O,1.000000X1.550000*%
%ADD29O,1.250000X0.950000*%
%ADD30R,0.400000X1.350000*%
%ADD31C,0.800000*%
%ADD32C,6.400000*%
G04 APERTURE END LIST*
D10*
X206286000Y-78756000D03*
X203786000Y-78756000D03*
X201286000Y-78756000D03*
X206286000Y-64256000D03*
X201286000Y-64256000D03*
D11*
X209486000Y-71256000D03*
X198086000Y-71256000D03*
D12*
X154017000Y-60842000D03*
D13*
X156557000Y-60842000D03*
G36*
G01*
X158916000Y-65946000D02*
X158916000Y-64496000D01*
G75*
G02*
X158991000Y-64421000I75000J0D01*
G01*
X159141000Y-64421000D01*
G75*
G02*
X159216000Y-64496000I0J-75000D01*
G01*
X159216000Y-65946000D01*
G75*
G02*
X159141000Y-66021000I-75000J0D01*
G01*
X158991000Y-66021000D01*
G75*
G02*
X158916000Y-65946000I0J75000D01*
G01*
G37*
G36*
G01*
X159416000Y-65946000D02*
X159416000Y-64496000D01*
G75*
G02*
X159491000Y-64421000I75000J0D01*
G01*
X159641000Y-64421000D01*
G75*
G02*
X159716000Y-64496000I0J-75000D01*
G01*
X159716000Y-65946000D01*
G75*
G02*
X159641000Y-66021000I-75000J0D01*
G01*
X159491000Y-66021000D01*
G75*
G02*
X159416000Y-65946000I0J75000D01*
G01*
G37*
G36*
G01*
X159916000Y-65946000D02*
X159916000Y-64496000D01*
G75*
G02*
X159991000Y-64421000I75000J0D01*
G01*
X160141000Y-64421000D01*
G75*
G02*
X160216000Y-64496000I0J-75000D01*
G01*
X160216000Y-65946000D01*
G75*
G02*
X160141000Y-66021000I-75000J0D01*
G01*
X159991000Y-66021000D01*
G75*
G02*
X159916000Y-65946000I0J75000D01*
G01*
G37*
G36*
G01*
X160416000Y-65946000D02*
X160416000Y-64496000D01*
G75*
G02*
X160491000Y-64421000I75000J0D01*
G01*
X160641000Y-64421000D01*
G75*
G02*
X160716000Y-64496000I0J-75000D01*
G01*
X160716000Y-65946000D01*
G75*
G02*
X160641000Y-66021000I-75000J0D01*
G01*
X160491000Y-66021000D01*
G75*
G02*
X160416000Y-65946000I0J75000D01*
G01*
G37*
G36*
G01*
X160916000Y-65946000D02*
X160916000Y-64496000D01*
G75*
G02*
X160991000Y-64421000I75000J0D01*
G01*
X161141000Y-64421000D01*
G75*
G02*
X161216000Y-64496000I0J-75000D01*
G01*
X161216000Y-65946000D01*
G75*
G02*
X161141000Y-66021000I-75000J0D01*
G01*
X160991000Y-66021000D01*
G75*
G02*
X160916000Y-65946000I0J75000D01*
G01*
G37*
G36*
G01*
X161416000Y-65946000D02*
X161416000Y-64496000D01*
G75*
G02*
X161491000Y-64421000I75000J0D01*
G01*
X161641000Y-64421000D01*
G75*
G02*
X161716000Y-64496000I0J-75000D01*
G01*
X161716000Y-65946000D01*
G75*
G02*
X161641000Y-66021000I-75000J0D01*
G01*
X161491000Y-66021000D01*
G75*
G02*
X161416000Y-65946000I0J75000D01*
G01*
G37*
G36*
G01*
X161916000Y-65946000D02*
X161916000Y-64496000D01*
G75*
G02*
X161991000Y-64421000I75000J0D01*
G01*
X162141000Y-64421000D01*
G75*
G02*
X162216000Y-64496000I0J-75000D01*
G01*
X162216000Y-65946000D01*
G75*
G02*
X162141000Y-66021000I-75000J0D01*
G01*
X161991000Y-66021000D01*
G75*
G02*
X161916000Y-65946000I0J75000D01*
G01*
G37*
G36*
G01*
X162416000Y-65946000D02*
X162416000Y-64496000D01*
G75*
G02*
X162491000Y-64421000I75000J0D01*
G01*
X162641000Y-64421000D01*
G75*
G02*
X162716000Y-64496000I0J-75000D01*
G01*
X162716000Y-65946000D01*
G75*
G02*
X162641000Y-66021000I-75000J0D01*
G01*
X162491000Y-66021000D01*
G75*
G02*
X162416000Y-65946000I0J75000D01*
G01*
G37*
G36*
G01*
X162916000Y-65946000D02*
X162916000Y-64496000D01*
G75*
G02*
X162991000Y-64421000I75000J0D01*
G01*
X163141000Y-64421000D01*
G75*
G02*
X163216000Y-64496000I0J-75000D01*
G01*
X163216000Y-65946000D01*
G75*
G02*
X163141000Y-66021000I-75000J0D01*
G01*
X162991000Y-66021000D01*
G75*
G02*
X162916000Y-65946000I0J75000D01*
G01*
G37*
G36*
G01*
X163416000Y-65946000D02*
X163416000Y-64496000D01*
G75*
G02*
X163491000Y-64421000I75000J0D01*
G01*
X163641000Y-64421000D01*
G75*
G02*
X163716000Y-64496000I0J-75000D01*
G01*
X163716000Y-65946000D01*
G75*
G02*
X163641000Y-66021000I-75000J0D01*
G01*
X163491000Y-66021000D01*
G75*
G02*
X163416000Y-65946000I0J75000D01*
G01*
G37*
G36*
G01*
X163916000Y-65946000D02*
X163916000Y-64496000D01*
G75*
G02*
X163991000Y-64421000I75000J0D01*
G01*
X164141000Y-64421000D01*
G75*
G02*
X164216000Y-64496000I0J-75000D01*
G01*
X164216000Y-65946000D01*
G75*
G02*
X164141000Y-66021000I-75000J0D01*
G01*
X163991000Y-66021000D01*
G75*
G02*
X163916000Y-65946000I0J75000D01*
G01*
G37*
G36*
G01*
X164416000Y-65946000D02*
X164416000Y-64496000D01*
G75*
G02*
X164491000Y-64421000I75000J0D01*
G01*
X164641000Y-64421000D01*
G75*
G02*
X164716000Y-64496000I0J-75000D01*
G01*
X164716000Y-65946000D01*
G75*
G02*
X164641000Y-66021000I-75000J0D01*
G01*
X164491000Y-66021000D01*
G75*
G02*
X164416000Y-65946000I0J75000D01*
G01*
G37*
G36*
G01*
X164916000Y-65946000D02*
X164916000Y-64496000D01*
G75*
G02*
X164991000Y-64421000I75000J0D01*
G01*
X165141000Y-64421000D01*
G75*
G02*
X165216000Y-64496000I0J-75000D01*
G01*
X165216000Y-65946000D01*
G75*
G02*
X165141000Y-66021000I-75000J0D01*
G01*
X164991000Y-66021000D01*
G75*
G02*
X164916000Y-65946000I0J75000D01*
G01*
G37*
G36*
G01*
X165416000Y-65946000D02*
X165416000Y-64496000D01*
G75*
G02*
X165491000Y-64421000I75000J0D01*
G01*
X165641000Y-64421000D01*
G75*
G02*
X165716000Y-64496000I0J-75000D01*
G01*
X165716000Y-65946000D01*
G75*
G02*
X165641000Y-66021000I-75000J0D01*
G01*
X165491000Y-66021000D01*
G75*
G02*
X165416000Y-65946000I0J75000D01*
G01*
G37*
G36*
G01*
X165916000Y-65946000D02*
X165916000Y-64496000D01*
G75*
G02*
X165991000Y-64421000I75000J0D01*
G01*
X166141000Y-64421000D01*
G75*
G02*
X166216000Y-64496000I0J-75000D01*
G01*
X166216000Y-65946000D01*
G75*
G02*
X166141000Y-66021000I-75000J0D01*
G01*
X165991000Y-66021000D01*
G75*
G02*
X165916000Y-65946000I0J75000D01*
G01*
G37*
G36*
G01*
X166416000Y-65946000D02*
X166416000Y-64496000D01*
G75*
G02*
X166491000Y-64421000I75000J0D01*
G01*
X166641000Y-64421000D01*
G75*
G02*
X166716000Y-64496000I0J-75000D01*
G01*
X166716000Y-65946000D01*
G75*
G02*
X166641000Y-66021000I-75000J0D01*
G01*
X166491000Y-66021000D01*
G75*
G02*
X166416000Y-65946000I0J75000D01*
G01*
G37*
G36*
G01*
X166916000Y-65946000D02*
X166916000Y-64496000D01*
G75*
G02*
X166991000Y-64421000I75000J0D01*
G01*
X167141000Y-64421000D01*
G75*
G02*
X167216000Y-64496000I0J-75000D01*
G01*
X167216000Y-65946000D01*
G75*
G02*
X167141000Y-66021000I-75000J0D01*
G01*
X166991000Y-66021000D01*
G75*
G02*
X166916000Y-65946000I0J75000D01*
G01*
G37*
G36*
G01*
X167416000Y-65946000D02*
X167416000Y-64496000D01*
G75*
G02*
X167491000Y-64421000I75000J0D01*
G01*
X167641000Y-64421000D01*
G75*
G02*
X167716000Y-64496000I0J-75000D01*
G01*
X167716000Y-65946000D01*
G75*
G02*
X167641000Y-66021000I-75000J0D01*
G01*
X167491000Y-66021000D01*
G75*
G02*
X167416000Y-65946000I0J75000D01*
G01*
G37*
G36*
G01*
X167916000Y-65946000D02*
X167916000Y-64496000D01*
G75*
G02*
X167991000Y-64421000I75000J0D01*
G01*
X168141000Y-64421000D01*
G75*
G02*
X168216000Y-64496000I0J-75000D01*
G01*
X168216000Y-65946000D01*
G75*
G02*
X168141000Y-66021000I-75000J0D01*
G01*
X167991000Y-66021000D01*
G75*
G02*
X167916000Y-65946000I0J75000D01*
G01*
G37*
G36*
G01*
X168416000Y-65946000D02*
X168416000Y-64496000D01*
G75*
G02*
X168491000Y-64421000I75000J0D01*
G01*
X168641000Y-64421000D01*
G75*
G02*
X168716000Y-64496000I0J-75000D01*
G01*
X168716000Y-65946000D01*
G75*
G02*
X168641000Y-66021000I-75000J0D01*
G01*
X168491000Y-66021000D01*
G75*
G02*
X168416000Y-65946000I0J75000D01*
G01*
G37*
G36*
G01*
X168916000Y-65946000D02*
X168916000Y-64496000D01*
G75*
G02*
X168991000Y-64421000I75000J0D01*
G01*
X169141000Y-64421000D01*
G75*
G02*
X169216000Y-64496000I0J-75000D01*
G01*
X169216000Y-65946000D01*
G75*
G02*
X169141000Y-66021000I-75000J0D01*
G01*
X168991000Y-66021000D01*
G75*
G02*
X168916000Y-65946000I0J75000D01*
G01*
G37*
G36*
G01*
X169416000Y-65946000D02*
X169416000Y-64496000D01*
G75*
G02*
X169491000Y-64421000I75000J0D01*
G01*
X169641000Y-64421000D01*
G75*
G02*
X169716000Y-64496000I0J-75000D01*
G01*
X169716000Y-65946000D01*
G75*
G02*
X169641000Y-66021000I-75000J0D01*
G01*
X169491000Y-66021000D01*
G75*
G02*
X169416000Y-65946000I0J75000D01*
G01*
G37*
G36*
G01*
X169916000Y-65946000D02*
X169916000Y-64496000D01*
G75*
G02*
X169991000Y-64421000I75000J0D01*
G01*
X170141000Y-64421000D01*
G75*
G02*
X170216000Y-64496000I0J-75000D01*
G01*
X170216000Y-65946000D01*
G75*
G02*
X170141000Y-66021000I-75000J0D01*
G01*
X169991000Y-66021000D01*
G75*
G02*
X169916000Y-65946000I0J75000D01*
G01*
G37*
G36*
G01*
X170416000Y-65946000D02*
X170416000Y-64496000D01*
G75*
G02*
X170491000Y-64421000I75000J0D01*
G01*
X170641000Y-64421000D01*
G75*
G02*
X170716000Y-64496000I0J-75000D01*
G01*
X170716000Y-65946000D01*
G75*
G02*
X170641000Y-66021000I-75000J0D01*
G01*
X170491000Y-66021000D01*
G75*
G02*
X170416000Y-65946000I0J75000D01*
G01*
G37*
G36*
G01*
X170916000Y-65946000D02*
X170916000Y-64496000D01*
G75*
G02*
X170991000Y-64421000I75000J0D01*
G01*
X171141000Y-64421000D01*
G75*
G02*
X171216000Y-64496000I0J-75000D01*
G01*
X171216000Y-65946000D01*
G75*
G02*
X171141000Y-66021000I-75000J0D01*
G01*
X170991000Y-66021000D01*
G75*
G02*
X170916000Y-65946000I0J75000D01*
G01*
G37*
G36*
G01*
X171941000Y-66971000D02*
X171941000Y-66821000D01*
G75*
G02*
X172016000Y-66746000I75000J0D01*
G01*
X173466000Y-66746000D01*
G75*
G02*
X173541000Y-66821000I0J-75000D01*
G01*
X173541000Y-66971000D01*
G75*
G02*
X173466000Y-67046000I-75000J0D01*
G01*
X172016000Y-67046000D01*
G75*
G02*
X171941000Y-66971000I0J75000D01*
G01*
G37*
G36*
G01*
X171941000Y-67471000D02*
X171941000Y-67321000D01*
G75*
G02*
X172016000Y-67246000I75000J0D01*
G01*
X173466000Y-67246000D01*
G75*
G02*
X173541000Y-67321000I0J-75000D01*
G01*
X173541000Y-67471000D01*
G75*
G02*
X173466000Y-67546000I-75000J0D01*
G01*
X172016000Y-67546000D01*
G75*
G02*
X171941000Y-67471000I0J75000D01*
G01*
G37*
G36*
G01*
X171941000Y-67971000D02*
X171941000Y-67821000D01*
G75*
G02*
X172016000Y-67746000I75000J0D01*
G01*
X173466000Y-67746000D01*
G75*
G02*
X173541000Y-67821000I0J-75000D01*
G01*
X173541000Y-67971000D01*
G75*
G02*
X173466000Y-68046000I-75000J0D01*
G01*
X172016000Y-68046000D01*
G75*
G02*
X171941000Y-67971000I0J75000D01*
G01*
G37*
G36*
G01*
X171941000Y-68471000D02*
X171941000Y-68321000D01*
G75*
G02*
X172016000Y-68246000I75000J0D01*
G01*
X173466000Y-68246000D01*
G75*
G02*
X173541000Y-68321000I0J-75000D01*
G01*
X173541000Y-68471000D01*
G75*
G02*
X173466000Y-68546000I-75000J0D01*
G01*
X172016000Y-68546000D01*
G75*
G02*
X171941000Y-68471000I0J75000D01*
G01*
G37*
G36*
G01*
X171941000Y-68971000D02*
X171941000Y-68821000D01*
G75*
G02*
X172016000Y-68746000I75000J0D01*
G01*
X173466000Y-68746000D01*
G75*
G02*
X173541000Y-68821000I0J-75000D01*
G01*
X173541000Y-68971000D01*
G75*
G02*
X173466000Y-69046000I-75000J0D01*
G01*
X172016000Y-69046000D01*
G75*
G02*
X171941000Y-68971000I0J75000D01*
G01*
G37*
G36*
G01*
X171941000Y-69471000D02*
X171941000Y-69321000D01*
G75*
G02*
X172016000Y-69246000I75000J0D01*
G01*
X173466000Y-69246000D01*
G75*
G02*
X173541000Y-69321000I0J-75000D01*
G01*
X173541000Y-69471000D01*
G75*
G02*
X173466000Y-69546000I-75000J0D01*
G01*
X172016000Y-69546000D01*
G75*
G02*
X171941000Y-69471000I0J75000D01*
G01*
G37*
G36*
G01*
X171941000Y-69971000D02*
X171941000Y-69821000D01*
G75*
G02*
X172016000Y-69746000I75000J0D01*
G01*
X173466000Y-69746000D01*
G75*
G02*
X173541000Y-69821000I0J-75000D01*
G01*
X173541000Y-69971000D01*
G75*
G02*
X173466000Y-70046000I-75000J0D01*
G01*
X172016000Y-70046000D01*
G75*
G02*
X171941000Y-69971000I0J75000D01*
G01*
G37*
G36*
G01*
X171941000Y-70471000D02*
X171941000Y-70321000D01*
G75*
G02*
X172016000Y-70246000I75000J0D01*
G01*
X173466000Y-70246000D01*
G75*
G02*
X173541000Y-70321000I0J-75000D01*
G01*
X173541000Y-70471000D01*
G75*
G02*
X173466000Y-70546000I-75000J0D01*
G01*
X172016000Y-70546000D01*
G75*
G02*
X171941000Y-70471000I0J75000D01*
G01*
G37*
G36*
G01*
X171941000Y-70971000D02*
X171941000Y-70821000D01*
G75*
G02*
X172016000Y-70746000I75000J0D01*
G01*
X173466000Y-70746000D01*
G75*
G02*
X173541000Y-70821000I0J-75000D01*
G01*
X173541000Y-70971000D01*
G75*
G02*
X173466000Y-71046000I-75000J0D01*
G01*
X172016000Y-71046000D01*
G75*
G02*
X171941000Y-70971000I0J75000D01*
G01*
G37*
G36*
G01*
X171941000Y-71471000D02*
X171941000Y-71321000D01*
G75*
G02*
X172016000Y-71246000I75000J0D01*
G01*
X173466000Y-71246000D01*
G75*
G02*
X173541000Y-71321000I0J-75000D01*
G01*
X173541000Y-71471000D01*
G75*
G02*
X173466000Y-71546000I-75000J0D01*
G01*
X172016000Y-71546000D01*
G75*
G02*
X171941000Y-71471000I0J75000D01*
G01*
G37*
G36*
G01*
X171941000Y-71971000D02*
X171941000Y-71821000D01*
G75*
G02*
X172016000Y-71746000I75000J0D01*
G01*
X173466000Y-71746000D01*
G75*
G02*
X173541000Y-71821000I0J-75000D01*
G01*
X173541000Y-71971000D01*
G75*
G02*
X173466000Y-72046000I-75000J0D01*
G01*
X172016000Y-72046000D01*
G75*
G02*
X171941000Y-71971000I0J75000D01*
G01*
G37*
G36*
G01*
X171941000Y-72471000D02*
X171941000Y-72321000D01*
G75*
G02*
X172016000Y-72246000I75000J0D01*
G01*
X173466000Y-72246000D01*
G75*
G02*
X173541000Y-72321000I0J-75000D01*
G01*
X173541000Y-72471000D01*
G75*
G02*
X173466000Y-72546000I-75000J0D01*
G01*
X172016000Y-72546000D01*
G75*
G02*
X171941000Y-72471000I0J75000D01*
G01*
G37*
G36*
G01*
X171941000Y-72971000D02*
X171941000Y-72821000D01*
G75*
G02*
X172016000Y-72746000I75000J0D01*
G01*
X173466000Y-72746000D01*
G75*
G02*
X173541000Y-72821000I0J-75000D01*
G01*
X173541000Y-72971000D01*
G75*
G02*
X173466000Y-73046000I-75000J0D01*
G01*
X172016000Y-73046000D01*
G75*
G02*
X171941000Y-72971000I0J75000D01*
G01*
G37*
G36*
G01*
X171941000Y-73471000D02*
X171941000Y-73321000D01*
G75*
G02*
X172016000Y-73246000I75000J0D01*
G01*
X173466000Y-73246000D01*
G75*
G02*
X173541000Y-73321000I0J-75000D01*
G01*
X173541000Y-73471000D01*
G75*
G02*
X173466000Y-73546000I-75000J0D01*
G01*
X172016000Y-73546000D01*
G75*
G02*
X171941000Y-73471000I0J75000D01*
G01*
G37*
G36*
G01*
X171941000Y-73971000D02*
X171941000Y-73821000D01*
G75*
G02*
X172016000Y-73746000I75000J0D01*
G01*
X173466000Y-73746000D01*
G75*
G02*
X173541000Y-73821000I0J-75000D01*
G01*
X173541000Y-73971000D01*
G75*
G02*
X173466000Y-74046000I-75000J0D01*
G01*
X172016000Y-74046000D01*
G75*
G02*
X171941000Y-73971000I0J75000D01*
G01*
G37*
G36*
G01*
X171941000Y-74471000D02*
X171941000Y-74321000D01*
G75*
G02*
X172016000Y-74246000I75000J0D01*
G01*
X173466000Y-74246000D01*
G75*
G02*
X173541000Y-74321000I0J-75000D01*
G01*
X173541000Y-74471000D01*
G75*
G02*
X173466000Y-74546000I-75000J0D01*
G01*
X172016000Y-74546000D01*
G75*
G02*
X171941000Y-74471000I0J75000D01*
G01*
G37*
G36*
G01*
X171941000Y-74971000D02*
X171941000Y-74821000D01*
G75*
G02*
X172016000Y-74746000I75000J0D01*
G01*
X173466000Y-74746000D01*
G75*
G02*
X173541000Y-74821000I0J-75000D01*
G01*
X173541000Y-74971000D01*
G75*
G02*
X173466000Y-75046000I-75000J0D01*
G01*
X172016000Y-75046000D01*
G75*
G02*
X171941000Y-74971000I0J75000D01*
G01*
G37*
G36*
G01*
X171941000Y-75471000D02*
X171941000Y-75321000D01*
G75*
G02*
X172016000Y-75246000I75000J0D01*
G01*
X173466000Y-75246000D01*
G75*
G02*
X173541000Y-75321000I0J-75000D01*
G01*
X173541000Y-75471000D01*
G75*
G02*
X173466000Y-75546000I-75000J0D01*
G01*
X172016000Y-75546000D01*
G75*
G02*
X171941000Y-75471000I0J75000D01*
G01*
G37*
G36*
G01*
X171941000Y-75971000D02*
X171941000Y-75821000D01*
G75*
G02*
X172016000Y-75746000I75000J0D01*
G01*
X173466000Y-75746000D01*
G75*
G02*
X173541000Y-75821000I0J-75000D01*
G01*
X173541000Y-75971000D01*
G75*
G02*
X173466000Y-76046000I-75000J0D01*
G01*
X172016000Y-76046000D01*
G75*
G02*
X171941000Y-75971000I0J75000D01*
G01*
G37*
G36*
G01*
X171941000Y-76471000D02*
X171941000Y-76321000D01*
G75*
G02*
X172016000Y-76246000I75000J0D01*
G01*
X173466000Y-76246000D01*
G75*
G02*
X173541000Y-76321000I0J-75000D01*
G01*
X173541000Y-76471000D01*
G75*
G02*
X173466000Y-76546000I-75000J0D01*
G01*
X172016000Y-76546000D01*
G75*
G02*
X171941000Y-76471000I0J75000D01*
G01*
G37*
G36*
G01*
X171941000Y-76971000D02*
X171941000Y-76821000D01*
G75*
G02*
X172016000Y-76746000I75000J0D01*
G01*
X173466000Y-76746000D01*
G75*
G02*
X173541000Y-76821000I0J-75000D01*
G01*
X173541000Y-76971000D01*
G75*
G02*
X173466000Y-77046000I-75000J0D01*
G01*
X172016000Y-77046000D01*
G75*
G02*
X171941000Y-76971000I0J75000D01*
G01*
G37*
G36*
G01*
X171941000Y-77471000D02*
X171941000Y-77321000D01*
G75*
G02*
X172016000Y-77246000I75000J0D01*
G01*
X173466000Y-77246000D01*
G75*
G02*
X173541000Y-77321000I0J-75000D01*
G01*
X173541000Y-77471000D01*
G75*
G02*
X173466000Y-77546000I-75000J0D01*
G01*
X172016000Y-77546000D01*
G75*
G02*
X171941000Y-77471000I0J75000D01*
G01*
G37*
G36*
G01*
X171941000Y-77971000D02*
X171941000Y-77821000D01*
G75*
G02*
X172016000Y-77746000I75000J0D01*
G01*
X173466000Y-77746000D01*
G75*
G02*
X173541000Y-77821000I0J-75000D01*
G01*
X173541000Y-77971000D01*
G75*
G02*
X173466000Y-78046000I-75000J0D01*
G01*
X172016000Y-78046000D01*
G75*
G02*
X171941000Y-77971000I0J75000D01*
G01*
G37*
G36*
G01*
X171941000Y-78471000D02*
X171941000Y-78321000D01*
G75*
G02*
X172016000Y-78246000I75000J0D01*
G01*
X173466000Y-78246000D01*
G75*
G02*
X173541000Y-78321000I0J-75000D01*
G01*
X173541000Y-78471000D01*
G75*
G02*
X173466000Y-78546000I-75000J0D01*
G01*
X172016000Y-78546000D01*
G75*
G02*
X171941000Y-78471000I0J75000D01*
G01*
G37*
G36*
G01*
X171941000Y-78971000D02*
X171941000Y-78821000D01*
G75*
G02*
X172016000Y-78746000I75000J0D01*
G01*
X173466000Y-78746000D01*
G75*
G02*
X173541000Y-78821000I0J-75000D01*
G01*
X173541000Y-78971000D01*
G75*
G02*
X173466000Y-79046000I-75000J0D01*
G01*
X172016000Y-79046000D01*
G75*
G02*
X171941000Y-78971000I0J75000D01*
G01*
G37*
G36*
G01*
X170916000Y-81296000D02*
X170916000Y-79846000D01*
G75*
G02*
X170991000Y-79771000I75000J0D01*
G01*
X171141000Y-79771000D01*
G75*
G02*
X171216000Y-79846000I0J-75000D01*
G01*
X171216000Y-81296000D01*
G75*
G02*
X171141000Y-81371000I-75000J0D01*
G01*
X170991000Y-81371000D01*
G75*
G02*
X170916000Y-81296000I0J75000D01*
G01*
G37*
G36*
G01*
X170416000Y-81296000D02*
X170416000Y-79846000D01*
G75*
G02*
X170491000Y-79771000I75000J0D01*
G01*
X170641000Y-79771000D01*
G75*
G02*
X170716000Y-79846000I0J-75000D01*
G01*
X170716000Y-81296000D01*
G75*
G02*
X170641000Y-81371000I-75000J0D01*
G01*
X170491000Y-81371000D01*
G75*
G02*
X170416000Y-81296000I0J75000D01*
G01*
G37*
G36*
G01*
X169916000Y-81296000D02*
X169916000Y-79846000D01*
G75*
G02*
X169991000Y-79771000I75000J0D01*
G01*
X170141000Y-79771000D01*
G75*
G02*
X170216000Y-79846000I0J-75000D01*
G01*
X170216000Y-81296000D01*
G75*
G02*
X170141000Y-81371000I-75000J0D01*
G01*
X169991000Y-81371000D01*
G75*
G02*
X169916000Y-81296000I0J75000D01*
G01*
G37*
G36*
G01*
X169416000Y-81296000D02*
X169416000Y-79846000D01*
G75*
G02*
X169491000Y-79771000I75000J0D01*
G01*
X169641000Y-79771000D01*
G75*
G02*
X169716000Y-79846000I0J-75000D01*
G01*
X169716000Y-81296000D01*
G75*
G02*
X169641000Y-81371000I-75000J0D01*
G01*
X169491000Y-81371000D01*
G75*
G02*
X169416000Y-81296000I0J75000D01*
G01*
G37*
G36*
G01*
X168916000Y-81296000D02*
X168916000Y-79846000D01*
G75*
G02*
X168991000Y-79771000I75000J0D01*
G01*
X169141000Y-79771000D01*
G75*
G02*
X169216000Y-79846000I0J-75000D01*
G01*
X169216000Y-81296000D01*
G75*
G02*
X169141000Y-81371000I-75000J0D01*
G01*
X168991000Y-81371000D01*
G75*
G02*
X168916000Y-81296000I0J75000D01*
G01*
G37*
G36*
G01*
X168416000Y-81296000D02*
X168416000Y-79846000D01*
G75*
G02*
X168491000Y-79771000I75000J0D01*
G01*
X168641000Y-79771000D01*
G75*
G02*
X168716000Y-79846000I0J-75000D01*
G01*
X168716000Y-81296000D01*
G75*
G02*
X168641000Y-81371000I-75000J0D01*
G01*
X168491000Y-81371000D01*
G75*
G02*
X168416000Y-81296000I0J75000D01*
G01*
G37*
G36*
G01*
X167916000Y-81296000D02*
X167916000Y-79846000D01*
G75*
G02*
X167991000Y-79771000I75000J0D01*
G01*
X168141000Y-79771000D01*
G75*
G02*
X168216000Y-79846000I0J-75000D01*
G01*
X168216000Y-81296000D01*
G75*
G02*
X168141000Y-81371000I-75000J0D01*
G01*
X167991000Y-81371000D01*
G75*
G02*
X167916000Y-81296000I0J75000D01*
G01*
G37*
G36*
G01*
X167416000Y-81296000D02*
X167416000Y-79846000D01*
G75*
G02*
X167491000Y-79771000I75000J0D01*
G01*
X167641000Y-79771000D01*
G75*
G02*
X167716000Y-79846000I0J-75000D01*
G01*
X167716000Y-81296000D01*
G75*
G02*
X167641000Y-81371000I-75000J0D01*
G01*
X167491000Y-81371000D01*
G75*
G02*
X167416000Y-81296000I0J75000D01*
G01*
G37*
G36*
G01*
X166916000Y-81296000D02*
X166916000Y-79846000D01*
G75*
G02*
X166991000Y-79771000I75000J0D01*
G01*
X167141000Y-79771000D01*
G75*
G02*
X167216000Y-79846000I0J-75000D01*
G01*
X167216000Y-81296000D01*
G75*
G02*
X167141000Y-81371000I-75000J0D01*
G01*
X166991000Y-81371000D01*
G75*
G02*
X166916000Y-81296000I0J75000D01*
G01*
G37*
G36*
G01*
X166416000Y-81296000D02*
X166416000Y-79846000D01*
G75*
G02*
X166491000Y-79771000I75000J0D01*
G01*
X166641000Y-79771000D01*
G75*
G02*
X166716000Y-79846000I0J-75000D01*
G01*
X166716000Y-81296000D01*
G75*
G02*
X166641000Y-81371000I-75000J0D01*
G01*
X166491000Y-81371000D01*
G75*
G02*
X166416000Y-81296000I0J75000D01*
G01*
G37*
G36*
G01*
X165916000Y-81296000D02*
X165916000Y-79846000D01*
G75*
G02*
X165991000Y-79771000I75000J0D01*
G01*
X166141000Y-79771000D01*
G75*
G02*
X166216000Y-79846000I0J-75000D01*
G01*
X166216000Y-81296000D01*
G75*
G02*
X166141000Y-81371000I-75000J0D01*
G01*
X165991000Y-81371000D01*
G75*
G02*
X165916000Y-81296000I0J75000D01*
G01*
G37*
G36*
G01*
X165416000Y-81296000D02*
X165416000Y-79846000D01*
G75*
G02*
X165491000Y-79771000I75000J0D01*
G01*
X165641000Y-79771000D01*
G75*
G02*
X165716000Y-79846000I0J-75000D01*
G01*
X165716000Y-81296000D01*
G75*
G02*
X165641000Y-81371000I-75000J0D01*
G01*
X165491000Y-81371000D01*
G75*
G02*
X165416000Y-81296000I0J75000D01*
G01*
G37*
G36*
G01*
X164916000Y-81296000D02*
X164916000Y-79846000D01*
G75*
G02*
X164991000Y-79771000I75000J0D01*
G01*
X165141000Y-79771000D01*
G75*
G02*
X165216000Y-79846000I0J-75000D01*
G01*
X165216000Y-81296000D01*
G75*
G02*
X165141000Y-81371000I-75000J0D01*
G01*
X164991000Y-81371000D01*
G75*
G02*
X164916000Y-81296000I0J75000D01*
G01*
G37*
G36*
G01*
X164416000Y-81296000D02*
X164416000Y-79846000D01*
G75*
G02*
X164491000Y-79771000I75000J0D01*
G01*
X164641000Y-79771000D01*
G75*
G02*
X164716000Y-79846000I0J-75000D01*
G01*
X164716000Y-81296000D01*
G75*
G02*
X164641000Y-81371000I-75000J0D01*
G01*
X164491000Y-81371000D01*
G75*
G02*
X164416000Y-81296000I0J75000D01*
G01*
G37*
G36*
G01*
X163916000Y-81296000D02*
X163916000Y-79846000D01*
G75*
G02*
X163991000Y-79771000I75000J0D01*
G01*
X164141000Y-79771000D01*
G75*
G02*
X164216000Y-79846000I0J-75000D01*
G01*
X164216000Y-81296000D01*
G75*
G02*
X164141000Y-81371000I-75000J0D01*
G01*
X163991000Y-81371000D01*
G75*
G02*
X163916000Y-81296000I0J75000D01*
G01*
G37*
G36*
G01*
X163416000Y-81296000D02*
X163416000Y-79846000D01*
G75*
G02*
X163491000Y-79771000I75000J0D01*
G01*
X163641000Y-79771000D01*
G75*
G02*
X163716000Y-79846000I0J-75000D01*
G01*
X163716000Y-81296000D01*
G75*
G02*
X163641000Y-81371000I-75000J0D01*
G01*
X163491000Y-81371000D01*
G75*
G02*
X163416000Y-81296000I0J75000D01*
G01*
G37*
G36*
G01*
X162916000Y-81296000D02*
X162916000Y-79846000D01*
G75*
G02*
X162991000Y-79771000I75000J0D01*
G01*
X163141000Y-79771000D01*
G75*
G02*
X163216000Y-79846000I0J-75000D01*
G01*
X163216000Y-81296000D01*
G75*
G02*
X163141000Y-81371000I-75000J0D01*
G01*
X162991000Y-81371000D01*
G75*
G02*
X162916000Y-81296000I0J75000D01*
G01*
G37*
G36*
G01*
X162416000Y-81296000D02*
X162416000Y-79846000D01*
G75*
G02*
X162491000Y-79771000I75000J0D01*
G01*
X162641000Y-79771000D01*
G75*
G02*
X162716000Y-79846000I0J-75000D01*
G01*
X162716000Y-81296000D01*
G75*
G02*
X162641000Y-81371000I-75000J0D01*
G01*
X162491000Y-81371000D01*
G75*
G02*
X162416000Y-81296000I0J75000D01*
G01*
G37*
G36*
G01*
X161916000Y-81296000D02*
X161916000Y-79846000D01*
G75*
G02*
X161991000Y-79771000I75000J0D01*
G01*
X162141000Y-79771000D01*
G75*
G02*
X162216000Y-79846000I0J-75000D01*
G01*
X162216000Y-81296000D01*
G75*
G02*
X162141000Y-81371000I-75000J0D01*
G01*
X161991000Y-81371000D01*
G75*
G02*
X161916000Y-81296000I0J75000D01*
G01*
G37*
G36*
G01*
X161416000Y-81296000D02*
X161416000Y-79846000D01*
G75*
G02*
X161491000Y-79771000I75000J0D01*
G01*
X161641000Y-79771000D01*
G75*
G02*
X161716000Y-79846000I0J-75000D01*
G01*
X161716000Y-81296000D01*
G75*
G02*
X161641000Y-81371000I-75000J0D01*
G01*
X161491000Y-81371000D01*
G75*
G02*
X161416000Y-81296000I0J75000D01*
G01*
G37*
G36*
G01*
X160916000Y-81296000D02*
X160916000Y-79846000D01*
G75*
G02*
X160991000Y-79771000I75000J0D01*
G01*
X161141000Y-79771000D01*
G75*
G02*
X161216000Y-79846000I0J-75000D01*
G01*
X161216000Y-81296000D01*
G75*
G02*
X161141000Y-81371000I-75000J0D01*
G01*
X160991000Y-81371000D01*
G75*
G02*
X160916000Y-81296000I0J75000D01*
G01*
G37*
G36*
G01*
X160416000Y-81296000D02*
X160416000Y-79846000D01*
G75*
G02*
X160491000Y-79771000I75000J0D01*
G01*
X160641000Y-79771000D01*
G75*
G02*
X160716000Y-79846000I0J-75000D01*
G01*
X160716000Y-81296000D01*
G75*
G02*
X160641000Y-81371000I-75000J0D01*
G01*
X160491000Y-81371000D01*
G75*
G02*
X160416000Y-81296000I0J75000D01*
G01*
G37*
G36*
G01*
X159916000Y-81296000D02*
X159916000Y-79846000D01*
G75*
G02*
X159991000Y-79771000I75000J0D01*
G01*
X160141000Y-79771000D01*
G75*
G02*
X160216000Y-79846000I0J-75000D01*
G01*
X160216000Y-81296000D01*
G75*
G02*
X160141000Y-81371000I-75000J0D01*
G01*
X159991000Y-81371000D01*
G75*
G02*
X159916000Y-81296000I0J75000D01*
G01*
G37*
G36*
G01*
X159416000Y-81296000D02*
X159416000Y-79846000D01*
G75*
G02*
X159491000Y-79771000I75000J0D01*
G01*
X159641000Y-79771000D01*
G75*
G02*
X159716000Y-79846000I0J-75000D01*
G01*
X159716000Y-81296000D01*
G75*
G02*
X159641000Y-81371000I-75000J0D01*
G01*
X159491000Y-81371000D01*
G75*
G02*
X159416000Y-81296000I0J75000D01*
G01*
G37*
G36*
G01*
X158916000Y-81296000D02*
X158916000Y-79846000D01*
G75*
G02*
X158991000Y-79771000I75000J0D01*
G01*
X159141000Y-79771000D01*
G75*
G02*
X159216000Y-79846000I0J-75000D01*
G01*
X159216000Y-81296000D01*
G75*
G02*
X159141000Y-81371000I-75000J0D01*
G01*
X158991000Y-81371000D01*
G75*
G02*
X158916000Y-81296000I0J75000D01*
G01*
G37*
G36*
G01*
X156591000Y-78971000D02*
X156591000Y-78821000D01*
G75*
G02*
X156666000Y-78746000I75000J0D01*
G01*
X158116000Y-78746000D01*
G75*
G02*
X158191000Y-78821000I0J-75000D01*
G01*
X158191000Y-78971000D01*
G75*
G02*
X158116000Y-79046000I-75000J0D01*
G01*
X156666000Y-79046000D01*
G75*
G02*
X156591000Y-78971000I0J75000D01*
G01*
G37*
G36*
G01*
X156591000Y-78471000D02*
X156591000Y-78321000D01*
G75*
G02*
X156666000Y-78246000I75000J0D01*
G01*
X158116000Y-78246000D01*
G75*
G02*
X158191000Y-78321000I0J-75000D01*
G01*
X158191000Y-78471000D01*
G75*
G02*
X158116000Y-78546000I-75000J0D01*
G01*
X156666000Y-78546000D01*
G75*
G02*
X156591000Y-78471000I0J75000D01*
G01*
G37*
G36*
G01*
X156591000Y-77971000D02*
X156591000Y-77821000D01*
G75*
G02*
X156666000Y-77746000I75000J0D01*
G01*
X158116000Y-77746000D01*
G75*
G02*
X158191000Y-77821000I0J-75000D01*
G01*
X158191000Y-77971000D01*
G75*
G02*
X158116000Y-78046000I-75000J0D01*
G01*
X156666000Y-78046000D01*
G75*
G02*
X156591000Y-77971000I0J75000D01*
G01*
G37*
G36*
G01*
X156591000Y-77471000D02*
X156591000Y-77321000D01*
G75*
G02*
X156666000Y-77246000I75000J0D01*
G01*
X158116000Y-77246000D01*
G75*
G02*
X158191000Y-77321000I0J-75000D01*
G01*
X158191000Y-77471000D01*
G75*
G02*
X158116000Y-77546000I-75000J0D01*
G01*
X156666000Y-77546000D01*
G75*
G02*
X156591000Y-77471000I0J75000D01*
G01*
G37*
G36*
G01*
X156591000Y-76971000D02*
X156591000Y-76821000D01*
G75*
G02*
X156666000Y-76746000I75000J0D01*
G01*
X158116000Y-76746000D01*
G75*
G02*
X158191000Y-76821000I0J-75000D01*
G01*
X158191000Y-76971000D01*
G75*
G02*
X158116000Y-77046000I-75000J0D01*
G01*
X156666000Y-77046000D01*
G75*
G02*
X156591000Y-76971000I0J75000D01*
G01*
G37*
G36*
G01*
X156591000Y-76471000D02*
X156591000Y-76321000D01*
G75*
G02*
X156666000Y-76246000I75000J0D01*
G01*
X158116000Y-76246000D01*
G75*
G02*
X158191000Y-76321000I0J-75000D01*
G01*
X158191000Y-76471000D01*
G75*
G02*
X158116000Y-76546000I-75000J0D01*
G01*
X156666000Y-76546000D01*
G75*
G02*
X156591000Y-76471000I0J75000D01*
G01*
G37*
G36*
G01*
X156591000Y-75971000D02*
X156591000Y-75821000D01*
G75*
G02*
X156666000Y-75746000I75000J0D01*
G01*
X158116000Y-75746000D01*
G75*
G02*
X158191000Y-75821000I0J-75000D01*
G01*
X158191000Y-75971000D01*
G75*
G02*
X158116000Y-76046000I-75000J0D01*
G01*
X156666000Y-76046000D01*
G75*
G02*
X156591000Y-75971000I0J75000D01*
G01*
G37*
G36*
G01*
X156591000Y-75471000D02*
X156591000Y-75321000D01*
G75*
G02*
X156666000Y-75246000I75000J0D01*
G01*
X158116000Y-75246000D01*
G75*
G02*
X158191000Y-75321000I0J-75000D01*
G01*
X158191000Y-75471000D01*
G75*
G02*
X158116000Y-75546000I-75000J0D01*
G01*
X156666000Y-75546000D01*
G75*
G02*
X156591000Y-75471000I0J75000D01*
G01*
G37*
G36*
G01*
X156591000Y-74971000D02*
X156591000Y-74821000D01*
G75*
G02*
X156666000Y-74746000I75000J0D01*
G01*
X158116000Y-74746000D01*
G75*
G02*
X158191000Y-74821000I0J-75000D01*
G01*
X158191000Y-74971000D01*
G75*
G02*
X158116000Y-75046000I-75000J0D01*
G01*
X156666000Y-75046000D01*
G75*
G02*
X156591000Y-74971000I0J75000D01*
G01*
G37*
G36*
G01*
X156591000Y-74471000D02*
X156591000Y-74321000D01*
G75*
G02*
X156666000Y-74246000I75000J0D01*
G01*
X158116000Y-74246000D01*
G75*
G02*
X158191000Y-74321000I0J-75000D01*
G01*
X158191000Y-74471000D01*
G75*
G02*
X158116000Y-74546000I-75000J0D01*
G01*
X156666000Y-74546000D01*
G75*
G02*
X156591000Y-74471000I0J75000D01*
G01*
G37*
G36*
G01*
X156591000Y-73971000D02*
X156591000Y-73821000D01*
G75*
G02*
X156666000Y-73746000I75000J0D01*
G01*
X158116000Y-73746000D01*
G75*
G02*
X158191000Y-73821000I0J-75000D01*
G01*
X158191000Y-73971000D01*
G75*
G02*
X158116000Y-74046000I-75000J0D01*
G01*
X156666000Y-74046000D01*
G75*
G02*
X156591000Y-73971000I0J75000D01*
G01*
G37*
G36*
G01*
X156591000Y-73471000D02*
X156591000Y-73321000D01*
G75*
G02*
X156666000Y-73246000I75000J0D01*
G01*
X158116000Y-73246000D01*
G75*
G02*
X158191000Y-73321000I0J-75000D01*
G01*
X158191000Y-73471000D01*
G75*
G02*
X158116000Y-73546000I-75000J0D01*
G01*
X156666000Y-73546000D01*
G75*
G02*
X156591000Y-73471000I0J75000D01*
G01*
G37*
G36*
G01*
X156591000Y-72971000D02*
X156591000Y-72821000D01*
G75*
G02*
X156666000Y-72746000I75000J0D01*
G01*
X158116000Y-72746000D01*
G75*
G02*
X158191000Y-72821000I0J-75000D01*
G01*
X158191000Y-72971000D01*
G75*
G02*
X158116000Y-73046000I-75000J0D01*
G01*
X156666000Y-73046000D01*
G75*
G02*
X156591000Y-72971000I0J75000D01*
G01*
G37*
G36*
G01*
X156591000Y-72471000D02*
X156591000Y-72321000D01*
G75*
G02*
X156666000Y-72246000I75000J0D01*
G01*
X158116000Y-72246000D01*
G75*
G02*
X158191000Y-72321000I0J-75000D01*
G01*
X158191000Y-72471000D01*
G75*
G02*
X158116000Y-72546000I-75000J0D01*
G01*
X156666000Y-72546000D01*
G75*
G02*
X156591000Y-72471000I0J75000D01*
G01*
G37*
G36*
G01*
X156591000Y-71971000D02*
X156591000Y-71821000D01*
G75*
G02*
X156666000Y-71746000I75000J0D01*
G01*
X158116000Y-71746000D01*
G75*
G02*
X158191000Y-71821000I0J-75000D01*
G01*
X158191000Y-71971000D01*
G75*
G02*
X158116000Y-72046000I-75000J0D01*
G01*
X156666000Y-72046000D01*
G75*
G02*
X156591000Y-71971000I0J75000D01*
G01*
G37*
G36*
G01*
X156591000Y-71471000D02*
X156591000Y-71321000D01*
G75*
G02*
X156666000Y-71246000I75000J0D01*
G01*
X158116000Y-71246000D01*
G75*
G02*
X158191000Y-71321000I0J-75000D01*
G01*
X158191000Y-71471000D01*
G75*
G02*
X158116000Y-71546000I-75000J0D01*
G01*
X156666000Y-71546000D01*
G75*
G02*
X156591000Y-71471000I0J75000D01*
G01*
G37*
G36*
G01*
X156591000Y-70971000D02*
X156591000Y-70821000D01*
G75*
G02*
X156666000Y-70746000I75000J0D01*
G01*
X158116000Y-70746000D01*
G75*
G02*
X158191000Y-70821000I0J-75000D01*
G01*
X158191000Y-70971000D01*
G75*
G02*
X158116000Y-71046000I-75000J0D01*
G01*
X156666000Y-71046000D01*
G75*
G02*
X156591000Y-70971000I0J75000D01*
G01*
G37*
G36*
G01*
X156591000Y-70471000D02*
X156591000Y-70321000D01*
G75*
G02*
X156666000Y-70246000I75000J0D01*
G01*
X158116000Y-70246000D01*
G75*
G02*
X158191000Y-70321000I0J-75000D01*
G01*
X158191000Y-70471000D01*
G75*
G02*
X158116000Y-70546000I-75000J0D01*
G01*
X156666000Y-70546000D01*
G75*
G02*
X156591000Y-70471000I0J75000D01*
G01*
G37*
G36*
G01*
X156591000Y-69971000D02*
X156591000Y-69821000D01*
G75*
G02*
X156666000Y-69746000I75000J0D01*
G01*
X158116000Y-69746000D01*
G75*
G02*
X158191000Y-69821000I0J-75000D01*
G01*
X158191000Y-69971000D01*
G75*
G02*
X158116000Y-70046000I-75000J0D01*
G01*
X156666000Y-70046000D01*
G75*
G02*
X156591000Y-69971000I0J75000D01*
G01*
G37*
G36*
G01*
X156591000Y-69471000D02*
X156591000Y-69321000D01*
G75*
G02*
X156666000Y-69246000I75000J0D01*
G01*
X158116000Y-69246000D01*
G75*
G02*
X158191000Y-69321000I0J-75000D01*
G01*
X158191000Y-69471000D01*
G75*
G02*
X158116000Y-69546000I-75000J0D01*
G01*
X156666000Y-69546000D01*
G75*
G02*
X156591000Y-69471000I0J75000D01*
G01*
G37*
G36*
G01*
X156591000Y-68971000D02*
X156591000Y-68821000D01*
G75*
G02*
X156666000Y-68746000I75000J0D01*
G01*
X158116000Y-68746000D01*
G75*
G02*
X158191000Y-68821000I0J-75000D01*
G01*
X158191000Y-68971000D01*
G75*
G02*
X158116000Y-69046000I-75000J0D01*
G01*
X156666000Y-69046000D01*
G75*
G02*
X156591000Y-68971000I0J75000D01*
G01*
G37*
G36*
G01*
X156591000Y-68471000D02*
X156591000Y-68321000D01*
G75*
G02*
X156666000Y-68246000I75000J0D01*
G01*
X158116000Y-68246000D01*
G75*
G02*
X158191000Y-68321000I0J-75000D01*
G01*
X158191000Y-68471000D01*
G75*
G02*
X158116000Y-68546000I-75000J0D01*
G01*
X156666000Y-68546000D01*
G75*
G02*
X156591000Y-68471000I0J75000D01*
G01*
G37*
G36*
G01*
X156591000Y-67971000D02*
X156591000Y-67821000D01*
G75*
G02*
X156666000Y-67746000I75000J0D01*
G01*
X158116000Y-67746000D01*
G75*
G02*
X158191000Y-67821000I0J-75000D01*
G01*
X158191000Y-67971000D01*
G75*
G02*
X158116000Y-68046000I-75000J0D01*
G01*
X156666000Y-68046000D01*
G75*
G02*
X156591000Y-67971000I0J75000D01*
G01*
G37*
G36*
G01*
X156591000Y-67471000D02*
X156591000Y-67321000D01*
G75*
G02*
X156666000Y-67246000I75000J0D01*
G01*
X158116000Y-67246000D01*
G75*
G02*
X158191000Y-67321000I0J-75000D01*
G01*
X158191000Y-67471000D01*
G75*
G02*
X158116000Y-67546000I-75000J0D01*
G01*
X156666000Y-67546000D01*
G75*
G02*
X156591000Y-67471000I0J75000D01*
G01*
G37*
G36*
G01*
X156591000Y-66971000D02*
X156591000Y-66821000D01*
G75*
G02*
X156666000Y-66746000I75000J0D01*
G01*
X158116000Y-66746000D01*
G75*
G02*
X158191000Y-66821000I0J-75000D01*
G01*
X158191000Y-66971000D01*
G75*
G02*
X158116000Y-67046000I-75000J0D01*
G01*
X156666000Y-67046000D01*
G75*
G02*
X156591000Y-66971000I0J75000D01*
G01*
G37*
D12*
X168342600Y-51215400D03*
X168342600Y-53755400D03*
X165802600Y-51215400D03*
X165802600Y-53755400D03*
X163262600Y-51215400D03*
X163262600Y-53755400D03*
X160722600Y-51215400D03*
D13*
X160722600Y-53755400D03*
D14*
X175429200Y-77250400D03*
X178477200Y-77656800D03*
D12*
X167352000Y-58505200D03*
X167352000Y-61045200D03*
X164812000Y-58505200D03*
X164812000Y-61045200D03*
X162272000Y-58505200D03*
D13*
X162272000Y-61045200D03*
G36*
G01*
X166851199Y-101534600D02*
X167751201Y-101534600D01*
G75*
G02*
X168001200Y-101784599I0J-249999D01*
G01*
X168001200Y-102434601D01*
G75*
G02*
X167751201Y-102684600I-249999J0D01*
G01*
X166851199Y-102684600D01*
G75*
G02*
X166601200Y-102434601I0J249999D01*
G01*
X166601200Y-101784599D01*
G75*
G02*
X166851199Y-101534600I249999J0D01*
G01*
G37*
G36*
G01*
X166851199Y-99484600D02*
X167751201Y-99484600D01*
G75*
G02*
X168001200Y-99734599I0J-249999D01*
G01*
X168001200Y-100384601D01*
G75*
G02*
X167751201Y-100634600I-249999J0D01*
G01*
X166851199Y-100634600D01*
G75*
G02*
X166601200Y-100384601I0J249999D01*
G01*
X166601200Y-99734599D01*
G75*
G02*
X166851199Y-99484600I249999J0D01*
G01*
G37*
D15*
X214596000Y-62239000D03*
X214596000Y-64779000D03*
X214596000Y-67319000D03*
X214596000Y-69859000D03*
X214596000Y-72399000D03*
X222216000Y-72399000D03*
X222216000Y-69859000D03*
X222216000Y-67319000D03*
X222216000Y-64779000D03*
X222216000Y-62239000D03*
G36*
G01*
X193156000Y-84996000D02*
X192856000Y-84996000D01*
G75*
G02*
X192706000Y-84846000I0J150000D01*
G01*
X192706000Y-83196000D01*
G75*
G02*
X192856000Y-83046000I150000J0D01*
G01*
X193156000Y-83046000D01*
G75*
G02*
X193306000Y-83196000I0J-150000D01*
G01*
X193306000Y-84846000D01*
G75*
G02*
X193156000Y-84996000I-150000J0D01*
G01*
G37*
G36*
G01*
X194426000Y-84996000D02*
X194126000Y-84996000D01*
G75*
G02*
X193976000Y-84846000I0J150000D01*
G01*
X193976000Y-83196000D01*
G75*
G02*
X194126000Y-83046000I150000J0D01*
G01*
X194426000Y-83046000D01*
G75*
G02*
X194576000Y-83196000I0J-150000D01*
G01*
X194576000Y-84846000D01*
G75*
G02*
X194426000Y-84996000I-150000J0D01*
G01*
G37*
G36*
G01*
X195696000Y-84996000D02*
X195396000Y-84996000D01*
G75*
G02*
X195246000Y-84846000I0J150000D01*
G01*
X195246000Y-83196000D01*
G75*
G02*
X195396000Y-83046000I150000J0D01*
G01*
X195696000Y-83046000D01*
G75*
G02*
X195846000Y-83196000I0J-150000D01*
G01*
X195846000Y-84846000D01*
G75*
G02*
X195696000Y-84996000I-150000J0D01*
G01*
G37*
G36*
G01*
X196966000Y-84996000D02*
X196666000Y-84996000D01*
G75*
G02*
X196516000Y-84846000I0J150000D01*
G01*
X196516000Y-83196000D01*
G75*
G02*
X196666000Y-83046000I150000J0D01*
G01*
X196966000Y-83046000D01*
G75*
G02*
X197116000Y-83196000I0J-150000D01*
G01*
X197116000Y-84846000D01*
G75*
G02*
X196966000Y-84996000I-150000J0D01*
G01*
G37*
G36*
G01*
X198236000Y-84996000D02*
X197936000Y-84996000D01*
G75*
G02*
X197786000Y-84846000I0J150000D01*
G01*
X197786000Y-83196000D01*
G75*
G02*
X197936000Y-83046000I150000J0D01*
G01*
X198236000Y-83046000D01*
G75*
G02*
X198386000Y-83196000I0J-150000D01*
G01*
X198386000Y-84846000D01*
G75*
G02*
X198236000Y-84996000I-150000J0D01*
G01*
G37*
G36*
G01*
X199506000Y-84996000D02*
X199206000Y-84996000D01*
G75*
G02*
X199056000Y-84846000I0J150000D01*
G01*
X199056000Y-83196000D01*
G75*
G02*
X199206000Y-83046000I150000J0D01*
G01*
X199506000Y-83046000D01*
G75*
G02*
X199656000Y-83196000I0J-150000D01*
G01*
X199656000Y-84846000D01*
G75*
G02*
X199506000Y-84996000I-150000J0D01*
G01*
G37*
G36*
G01*
X200776000Y-84996000D02*
X200476000Y-84996000D01*
G75*
G02*
X200326000Y-84846000I0J150000D01*
G01*
X200326000Y-83196000D01*
G75*
G02*
X200476000Y-83046000I150000J0D01*
G01*
X200776000Y-83046000D01*
G75*
G02*
X200926000Y-83196000I0J-150000D01*
G01*
X200926000Y-84846000D01*
G75*
G02*
X200776000Y-84996000I-150000J0D01*
G01*
G37*
G36*
G01*
X200776000Y-89946000D02*
X200476000Y-89946000D01*
G75*
G02*
X200326000Y-89796000I0J150000D01*
G01*
X200326000Y-88146000D01*
G75*
G02*
X200476000Y-87996000I150000J0D01*
G01*
X200776000Y-87996000D01*
G75*
G02*
X200926000Y-88146000I0J-150000D01*
G01*
X200926000Y-89796000D01*
G75*
G02*
X200776000Y-89946000I-150000J0D01*
G01*
G37*
G36*
G01*
X199506000Y-89946000D02*
X199206000Y-89946000D01*
G75*
G02*
X199056000Y-89796000I0J150000D01*
G01*
X199056000Y-88146000D01*
G75*
G02*
X199206000Y-87996000I150000J0D01*
G01*
X199506000Y-87996000D01*
G75*
G02*
X199656000Y-88146000I0J-150000D01*
G01*
X199656000Y-89796000D01*
G75*
G02*
X199506000Y-89946000I-150000J0D01*
G01*
G37*
G36*
G01*
X198236000Y-89946000D02*
X197936000Y-89946000D01*
G75*
G02*
X197786000Y-89796000I0J150000D01*
G01*
X197786000Y-88146000D01*
G75*
G02*
X197936000Y-87996000I150000J0D01*
G01*
X198236000Y-87996000D01*
G75*
G02*
X198386000Y-88146000I0J-150000D01*
G01*
X198386000Y-89796000D01*
G75*
G02*
X198236000Y-89946000I-150000J0D01*
G01*
G37*
G36*
G01*
X196966000Y-89946000D02*
X196666000Y-89946000D01*
G75*
G02*
X196516000Y-89796000I0J150000D01*
G01*
X196516000Y-88146000D01*
G75*
G02*
X196666000Y-87996000I150000J0D01*
G01*
X196966000Y-87996000D01*
G75*
G02*
X197116000Y-88146000I0J-150000D01*
G01*
X197116000Y-89796000D01*
G75*
G02*
X196966000Y-89946000I-150000J0D01*
G01*
G37*
G36*
G01*
X195696000Y-89946000D02*
X195396000Y-89946000D01*
G75*
G02*
X195246000Y-89796000I0J150000D01*
G01*
X195246000Y-88146000D01*
G75*
G02*
X195396000Y-87996000I150000J0D01*
G01*
X195696000Y-87996000D01*
G75*
G02*
X195846000Y-88146000I0J-150000D01*
G01*
X195846000Y-89796000D01*
G75*
G02*
X195696000Y-89946000I-150000J0D01*
G01*
G37*
G36*
G01*
X194426000Y-89946000D02*
X194126000Y-89946000D01*
G75*
G02*
X193976000Y-89796000I0J150000D01*
G01*
X193976000Y-88146000D01*
G75*
G02*
X194126000Y-87996000I150000J0D01*
G01*
X194426000Y-87996000D01*
G75*
G02*
X194576000Y-88146000I0J-150000D01*
G01*
X194576000Y-89796000D01*
G75*
G02*
X194426000Y-89946000I-150000J0D01*
G01*
G37*
G36*
G01*
X193156000Y-89946000D02*
X192856000Y-89946000D01*
G75*
G02*
X192706000Y-89796000I0J150000D01*
G01*
X192706000Y-88146000D01*
G75*
G02*
X192856000Y-87996000I150000J0D01*
G01*
X193156000Y-87996000D01*
G75*
G02*
X193306000Y-88146000I0J-150000D01*
G01*
X193306000Y-89796000D01*
G75*
G02*
X193156000Y-89946000I-150000J0D01*
G01*
G37*
G36*
G01*
X203986000Y-83886999D02*
X203986000Y-84787001D01*
G75*
G02*
X203736001Y-85037000I-249999J0D01*
G01*
X203085999Y-85037000D01*
G75*
G02*
X202836000Y-84787001I0J249999D01*
G01*
X202836000Y-83886999D01*
G75*
G02*
X203085999Y-83637000I249999J0D01*
G01*
X203736001Y-83637000D01*
G75*
G02*
X203986000Y-83886999I0J-249999D01*
G01*
G37*
G36*
G01*
X206036000Y-83886999D02*
X206036000Y-84787001D01*
G75*
G02*
X205786001Y-85037000I-249999J0D01*
G01*
X205135999Y-85037000D01*
G75*
G02*
X204886000Y-84787001I0J249999D01*
G01*
X204886000Y-83886999D01*
G75*
G02*
X205135999Y-83637000I249999J0D01*
G01*
X205786001Y-83637000D01*
G75*
G02*
X206036000Y-83886999I0J-249999D01*
G01*
G37*
G36*
G01*
X192186000Y-67515001D02*
X192186000Y-66614999D01*
G75*
G02*
X192435999Y-66365000I249999J0D01*
G01*
X193086001Y-66365000D01*
G75*
G02*
X193336000Y-66614999I0J-249999D01*
G01*
X193336000Y-67515001D01*
G75*
G02*
X193086001Y-67765000I-249999J0D01*
G01*
X192435999Y-67765000D01*
G75*
G02*
X192186000Y-67515001I0J249999D01*
G01*
G37*
G36*
G01*
X190136000Y-67515001D02*
X190136000Y-66614999D01*
G75*
G02*
X190385999Y-66365000I249999J0D01*
G01*
X191036001Y-66365000D01*
G75*
G02*
X191286000Y-66614999I0J-249999D01*
G01*
X191286000Y-67515001D01*
G75*
G02*
X191036001Y-67765000I-249999J0D01*
G01*
X190385999Y-67765000D01*
G75*
G02*
X190136000Y-67515001I0J249999D01*
G01*
G37*
D16*
X183176000Y-65160000D03*
X179976000Y-65160000D03*
D17*
X217406000Y-57921000D03*
X219406000Y-57271000D03*
X219406000Y-58571000D03*
D18*
G36*
X235676000Y-133082500D02*
G01*
X231551000Y-133082500D01*
X231551000Y-132666000D01*
X229076000Y-132666000D01*
X229076000Y-131766000D01*
X231551000Y-131766000D01*
X231551000Y-131349500D01*
X235676000Y-131349500D01*
X235676000Y-133082500D01*
G37*
D19*
X230226000Y-133716000D03*
X230226000Y-130716000D03*
D18*
G36*
X235676000Y-126732500D02*
G01*
X231551000Y-126732500D01*
X231551000Y-126316000D01*
X229076000Y-126316000D01*
X229076000Y-125416000D01*
X231551000Y-125416000D01*
X231551000Y-124999500D01*
X235676000Y-124999500D01*
X235676000Y-126732500D01*
G37*
D19*
X230226000Y-127366000D03*
X230226000Y-124366000D03*
D18*
G36*
X235676000Y-120382500D02*
G01*
X231551000Y-120382500D01*
X231551000Y-119966000D01*
X229076000Y-119966000D01*
X229076000Y-119066000D01*
X231551000Y-119066000D01*
X231551000Y-118649500D01*
X235676000Y-118649500D01*
X235676000Y-120382500D01*
G37*
D19*
X230226000Y-121016000D03*
X230226000Y-118016000D03*
G36*
G01*
X147101001Y-63821000D02*
X146200999Y-63821000D01*
G75*
G02*
X145951000Y-63571001I0J249999D01*
G01*
X145951000Y-62920999D01*
G75*
G02*
X146200999Y-62671000I249999J0D01*
G01*
X147101001Y-62671000D01*
G75*
G02*
X147351000Y-62920999I0J-249999D01*
G01*
X147351000Y-63571001D01*
G75*
G02*
X147101001Y-63821000I-249999J0D01*
G01*
G37*
G36*
G01*
X147101001Y-65871000D02*
X146200999Y-65871000D01*
G75*
G02*
X145951000Y-65621001I0J249999D01*
G01*
X145951000Y-64970999D01*
G75*
G02*
X146200999Y-64721000I249999J0D01*
G01*
X147101001Y-64721000D01*
G75*
G02*
X147351000Y-64970999I0J-249999D01*
G01*
X147351000Y-65621001D01*
G75*
G02*
X147101001Y-65871000I-249999J0D01*
G01*
G37*
D13*
X194276000Y-58683000D03*
X189704000Y-59191000D03*
X189704000Y-63636000D03*
G36*
G01*
X165643000Y-88597001D02*
X165643000Y-87696999D01*
G75*
G02*
X165892999Y-87447000I249999J0D01*
G01*
X166543001Y-87447000D01*
G75*
G02*
X166793000Y-87696999I0J-249999D01*
G01*
X166793000Y-88597001D01*
G75*
G02*
X166543001Y-88847000I-249999J0D01*
G01*
X165892999Y-88847000D01*
G75*
G02*
X165643000Y-88597001I0J249999D01*
G01*
G37*
G36*
G01*
X163593000Y-88597001D02*
X163593000Y-87696999D01*
G75*
G02*
X163842999Y-87447000I249999J0D01*
G01*
X164493001Y-87447000D01*
G75*
G02*
X164743000Y-87696999I0J-249999D01*
G01*
X164743000Y-88597001D01*
G75*
G02*
X164493001Y-88847000I-249999J0D01*
G01*
X163842999Y-88847000D01*
G75*
G02*
X163593000Y-88597001I0J249999D01*
G01*
G37*
G36*
G01*
X162075999Y-85676000D02*
X162976001Y-85676000D01*
G75*
G02*
X163226000Y-85925999I0J-249999D01*
G01*
X163226000Y-86576001D01*
G75*
G02*
X162976001Y-86826000I-249999J0D01*
G01*
X162075999Y-86826000D01*
G75*
G02*
X161826000Y-86576001I0J249999D01*
G01*
X161826000Y-85925999D01*
G75*
G02*
X162075999Y-85676000I249999J0D01*
G01*
G37*
G36*
G01*
X162075999Y-83626000D02*
X162976001Y-83626000D01*
G75*
G02*
X163226000Y-83875999I0J-249999D01*
G01*
X163226000Y-84526001D01*
G75*
G02*
X162976001Y-84776000I-249999J0D01*
G01*
X162075999Y-84776000D01*
G75*
G02*
X161826000Y-84526001I0J249999D01*
G01*
X161826000Y-83875999D01*
G75*
G02*
X162075999Y-83626000I249999J0D01*
G01*
G37*
D10*
X210836800Y-107882800D03*
X215942200Y-88782000D03*
X199381400Y-138616800D03*
X208373000Y-143671400D03*
X236262200Y-82635200D03*
X231156800Y-101736000D03*
X175937200Y-113115200D03*
X170831800Y-132216000D03*
X215789800Y-133536800D03*
X220895200Y-114436000D03*
X202581800Y-99272200D03*
X183481000Y-94166800D03*
X202404000Y-128837800D03*
X183303200Y-123732400D03*
X170196800Y-143722200D03*
X151096000Y-138616800D03*
X188942000Y-118322200D03*
X193996600Y-109330600D03*
X180356800Y-144890600D03*
X185411400Y-135899000D03*
X147209800Y-128456800D03*
X152315200Y-109356000D03*
G36*
G01*
X213891999Y-53926000D02*
X214792001Y-53926000D01*
G75*
G02*
X215042000Y-54175999I0J-249999D01*
G01*
X215042000Y-54826001D01*
G75*
G02*
X214792001Y-55076000I-249999J0D01*
G01*
X213891999Y-55076000D01*
G75*
G02*
X213642000Y-54826001I0J249999D01*
G01*
X213642000Y-54175999D01*
G75*
G02*
X213891999Y-53926000I249999J0D01*
G01*
G37*
G36*
G01*
X213891999Y-51876000D02*
X214792001Y-51876000D01*
G75*
G02*
X215042000Y-52125999I0J-249999D01*
G01*
X215042000Y-52776001D01*
G75*
G02*
X214792001Y-53026000I-249999J0D01*
G01*
X213891999Y-53026000D01*
G75*
G02*
X213642000Y-52776001I0J249999D01*
G01*
X213642000Y-52125999D01*
G75*
G02*
X213891999Y-51876000I249999J0D01*
G01*
G37*
G36*
G01*
X228381000Y-142826001D02*
X228381000Y-141925999D01*
G75*
G02*
X228630999Y-141676000I249999J0D01*
G01*
X229281001Y-141676000D01*
G75*
G02*
X229531000Y-141925999I0J-249999D01*
G01*
X229531000Y-142826001D01*
G75*
G02*
X229281001Y-143076000I-249999J0D01*
G01*
X228630999Y-143076000D01*
G75*
G02*
X228381000Y-142826001I0J249999D01*
G01*
G37*
G36*
G01*
X226331000Y-142826001D02*
X226331000Y-141925999D01*
G75*
G02*
X226580999Y-141676000I249999J0D01*
G01*
X227231001Y-141676000D01*
G75*
G02*
X227481000Y-141925999I0J-249999D01*
G01*
X227481000Y-142826001D01*
G75*
G02*
X227231001Y-143076000I-249999J0D01*
G01*
X226580999Y-143076000D01*
G75*
G02*
X226331000Y-142826001I0J249999D01*
G01*
G37*
G36*
G01*
X167790999Y-85676000D02*
X168691001Y-85676000D01*
G75*
G02*
X168941000Y-85925999I0J-249999D01*
G01*
X168941000Y-86576001D01*
G75*
G02*
X168691001Y-86826000I-249999J0D01*
G01*
X167790999Y-86826000D01*
G75*
G02*
X167541000Y-86576001I0J249999D01*
G01*
X167541000Y-85925999D01*
G75*
G02*
X167790999Y-85676000I249999J0D01*
G01*
G37*
G36*
G01*
X167790999Y-83626000D02*
X168691001Y-83626000D01*
G75*
G02*
X168941000Y-83875999I0J-249999D01*
G01*
X168941000Y-84526001D01*
G75*
G02*
X168691001Y-84776000I-249999J0D01*
G01*
X167790999Y-84776000D01*
G75*
G02*
X167541000Y-84526001I0J249999D01*
G01*
X167541000Y-83875999D01*
G75*
G02*
X167790999Y-83626000I249999J0D01*
G01*
G37*
G36*
G01*
X170596001Y-84776000D02*
X169695999Y-84776000D01*
G75*
G02*
X169446000Y-84526001I0J249999D01*
G01*
X169446000Y-83875999D01*
G75*
G02*
X169695999Y-83626000I249999J0D01*
G01*
X170596001Y-83626000D01*
G75*
G02*
X170846000Y-83875999I0J-249999D01*
G01*
X170846000Y-84526001D01*
G75*
G02*
X170596001Y-84776000I-249999J0D01*
G01*
G37*
G36*
G01*
X170596001Y-86826000D02*
X169695999Y-86826000D01*
G75*
G02*
X169446000Y-86576001I0J249999D01*
G01*
X169446000Y-85925999D01*
G75*
G02*
X169695999Y-85676000I249999J0D01*
G01*
X170596001Y-85676000D01*
G75*
G02*
X170846000Y-85925999I0J-249999D01*
G01*
X170846000Y-86576001D01*
G75*
G02*
X170596001Y-86826000I-249999J0D01*
G01*
G37*
G36*
G01*
X175410999Y-85676000D02*
X176311001Y-85676000D01*
G75*
G02*
X176561000Y-85925999I0J-249999D01*
G01*
X176561000Y-86576001D01*
G75*
G02*
X176311001Y-86826000I-249999J0D01*
G01*
X175410999Y-86826000D01*
G75*
G02*
X175161000Y-86576001I0J249999D01*
G01*
X175161000Y-85925999D01*
G75*
G02*
X175410999Y-85676000I249999J0D01*
G01*
G37*
G36*
G01*
X175410999Y-83626000D02*
X176311001Y-83626000D01*
G75*
G02*
X176561000Y-83875999I0J-249999D01*
G01*
X176561000Y-84526001D01*
G75*
G02*
X176311001Y-84776000I-249999J0D01*
G01*
X175410999Y-84776000D01*
G75*
G02*
X175161000Y-84526001I0J249999D01*
G01*
X175161000Y-83875999D01*
G75*
G02*
X175410999Y-83626000I249999J0D01*
G01*
G37*
G36*
G01*
X171866000Y-96471001D02*
X171866000Y-95570999D01*
G75*
G02*
X172115999Y-95321000I249999J0D01*
G01*
X172766001Y-95321000D01*
G75*
G02*
X173016000Y-95570999I0J-249999D01*
G01*
X173016000Y-96471001D01*
G75*
G02*
X172766001Y-96721000I-249999J0D01*
G01*
X172115999Y-96721000D01*
G75*
G02*
X171866000Y-96471001I0J249999D01*
G01*
G37*
G36*
G01*
X169816000Y-96471001D02*
X169816000Y-95570999D01*
G75*
G02*
X170065999Y-95321000I249999J0D01*
G01*
X170716001Y-95321000D01*
G75*
G02*
X170966000Y-95570999I0J-249999D01*
G01*
X170966000Y-96471001D01*
G75*
G02*
X170716001Y-96721000I-249999J0D01*
G01*
X170065999Y-96721000D01*
G75*
G02*
X169816000Y-96471001I0J249999D01*
G01*
G37*
G36*
G01*
X162341000Y-92026001D02*
X162341000Y-91125999D01*
G75*
G02*
X162590999Y-90876000I249999J0D01*
G01*
X163241001Y-90876000D01*
G75*
G02*
X163491000Y-91125999I0J-249999D01*
G01*
X163491000Y-92026001D01*
G75*
G02*
X163241001Y-92276000I-249999J0D01*
G01*
X162590999Y-92276000D01*
G75*
G02*
X162341000Y-92026001I0J249999D01*
G01*
G37*
G36*
G01*
X160291000Y-92026001D02*
X160291000Y-91125999D01*
G75*
G02*
X160540999Y-90876000I249999J0D01*
G01*
X161191001Y-90876000D01*
G75*
G02*
X161441000Y-91125999I0J-249999D01*
G01*
X161441000Y-92026001D01*
G75*
G02*
X161191001Y-92276000I-249999J0D01*
G01*
X160540999Y-92276000D01*
G75*
G02*
X160291000Y-92026001I0J249999D01*
G01*
G37*
G36*
G01*
X161441000Y-97475999D02*
X161441000Y-98376001D01*
G75*
G02*
X161191001Y-98626000I-249999J0D01*
G01*
X160540999Y-98626000D01*
G75*
G02*
X160291000Y-98376001I0J249999D01*
G01*
X160291000Y-97475999D01*
G75*
G02*
X160540999Y-97226000I249999J0D01*
G01*
X161191001Y-97226000D01*
G75*
G02*
X161441000Y-97475999I0J-249999D01*
G01*
G37*
G36*
G01*
X163491000Y-97475999D02*
X163491000Y-98376001D01*
G75*
G02*
X163241001Y-98626000I-249999J0D01*
G01*
X162590999Y-98626000D01*
G75*
G02*
X162341000Y-98376001I0J249999D01*
G01*
X162341000Y-97475999D01*
G75*
G02*
X162590999Y-97226000I249999J0D01*
G01*
X163241001Y-97226000D01*
G75*
G02*
X163491000Y-97475999I0J-249999D01*
G01*
G37*
G36*
G01*
X166786000Y-95201001D02*
X166786000Y-94300999D01*
G75*
G02*
X167035999Y-94051000I249999J0D01*
G01*
X167686001Y-94051000D01*
G75*
G02*
X167936000Y-94300999I0J-249999D01*
G01*
X167936000Y-95201001D01*
G75*
G02*
X167686001Y-95451000I-249999J0D01*
G01*
X167035999Y-95451000D01*
G75*
G02*
X166786000Y-95201001I0J249999D01*
G01*
G37*
G36*
G01*
X164736000Y-95201001D02*
X164736000Y-94300999D01*
G75*
G02*
X164985999Y-94051000I249999J0D01*
G01*
X165636001Y-94051000D01*
G75*
G02*
X165886000Y-94300999I0J-249999D01*
G01*
X165886000Y-95201001D01*
G75*
G02*
X165636001Y-95451000I-249999J0D01*
G01*
X164985999Y-95451000D01*
G75*
G02*
X164736000Y-95201001I0J249999D01*
G01*
G37*
G36*
G01*
X166786000Y-98376001D02*
X166786000Y-97475999D01*
G75*
G02*
X167035999Y-97226000I249999J0D01*
G01*
X167686001Y-97226000D01*
G75*
G02*
X167936000Y-97475999I0J-249999D01*
G01*
X167936000Y-98376001D01*
G75*
G02*
X167686001Y-98626000I-249999J0D01*
G01*
X167035999Y-98626000D01*
G75*
G02*
X166786000Y-98376001I0J249999D01*
G01*
G37*
G36*
G01*
X164736000Y-98376001D02*
X164736000Y-97475999D01*
G75*
G02*
X164985999Y-97226000I249999J0D01*
G01*
X165636001Y-97226000D01*
G75*
G02*
X165886000Y-97475999I0J-249999D01*
G01*
X165886000Y-98376001D01*
G75*
G02*
X165636001Y-98626000I-249999J0D01*
G01*
X164985999Y-98626000D01*
G75*
G02*
X164736000Y-98376001I0J249999D01*
G01*
G37*
G36*
G01*
X171866000Y-99646001D02*
X171866000Y-98745999D01*
G75*
G02*
X172115999Y-98496000I249999J0D01*
G01*
X172766001Y-98496000D01*
G75*
G02*
X173016000Y-98745999I0J-249999D01*
G01*
X173016000Y-99646001D01*
G75*
G02*
X172766001Y-99896000I-249999J0D01*
G01*
X172115999Y-99896000D01*
G75*
G02*
X171866000Y-99646001I0J249999D01*
G01*
G37*
G36*
G01*
X169816000Y-99646001D02*
X169816000Y-98745999D01*
G75*
G02*
X170065999Y-98496000I249999J0D01*
G01*
X170716001Y-98496000D01*
G75*
G02*
X170966000Y-98745999I0J-249999D01*
G01*
X170966000Y-99646001D01*
G75*
G02*
X170716001Y-99896000I-249999J0D01*
G01*
X170065999Y-99896000D01*
G75*
G02*
X169816000Y-99646001I0J249999D01*
G01*
G37*
D12*
X221835000Y-77479000D03*
D13*
X221835000Y-80019000D03*
D12*
X225645000Y-77479000D03*
D13*
X225645000Y-80019000D03*
D12*
X218025000Y-77479000D03*
D13*
X218025000Y-80019000D03*
D12*
X171771600Y-107425600D03*
D13*
X171771600Y-104885600D03*
D12*
X166971000Y-107451000D03*
D13*
X166971000Y-104911000D03*
D12*
X161891000Y-107451000D03*
D13*
X161891000Y-104911000D03*
D12*
X173194000Y-60461000D03*
D13*
X173194000Y-57921000D03*
D20*
X144746000Y-100466000D03*
X147146000Y-98466000D03*
X150846000Y-100466000D03*
X152646000Y-98466000D03*
X156346000Y-100466000D03*
X144746000Y-91576000D03*
X147146000Y-89576000D03*
X150846000Y-91576000D03*
X152646000Y-89576000D03*
X156346000Y-91576000D03*
D21*
X227042000Y-64906000D03*
X227042000Y-62366000D03*
D22*
X232122000Y-59826000D03*
X232122000Y-69986000D03*
D23*
X166336000Y-89941000D03*
X167286000Y-91941000D03*
X165386000Y-91941000D03*
X171416000Y-91211000D03*
X172366000Y-93211000D03*
X170466000Y-93211000D03*
G36*
G01*
X155726000Y-84775999D02*
X155726000Y-85676001D01*
G75*
G02*
X155476001Y-85926000I-249999J0D01*
G01*
X154825999Y-85926000D01*
G75*
G02*
X154576000Y-85676001I0J249999D01*
G01*
X154576000Y-84775999D01*
G75*
G02*
X154825999Y-84526000I249999J0D01*
G01*
X155476001Y-84526000D01*
G75*
G02*
X155726000Y-84775999I0J-249999D01*
G01*
G37*
G36*
G01*
X157776000Y-84775999D02*
X157776000Y-85676001D01*
G75*
G02*
X157526001Y-85926000I-249999J0D01*
G01*
X156875999Y-85926000D01*
G75*
G02*
X156626000Y-85676001I0J249999D01*
G01*
X156626000Y-84775999D01*
G75*
G02*
X156875999Y-84526000I249999J0D01*
G01*
X157526001Y-84526000D01*
G75*
G02*
X157776000Y-84775999I0J-249999D01*
G01*
G37*
D24*
X219660000Y-53349000D03*
X217660000Y-54299000D03*
X217660000Y-52399000D03*
G36*
G01*
X231429000Y-76024001D02*
X231429000Y-75123999D01*
G75*
G02*
X231678999Y-74874000I249999J0D01*
G01*
X232329001Y-74874000D01*
G75*
G02*
X232579000Y-75123999I0J-249999D01*
G01*
X232579000Y-76024001D01*
G75*
G02*
X232329001Y-76274000I-249999J0D01*
G01*
X231678999Y-76274000D01*
G75*
G02*
X231429000Y-76024001I0J249999D01*
G01*
G37*
G36*
G01*
X229379000Y-76024001D02*
X229379000Y-75123999D01*
G75*
G02*
X229628999Y-74874000I249999J0D01*
G01*
X230279001Y-74874000D01*
G75*
G02*
X230529000Y-75123999I0J-249999D01*
G01*
X230529000Y-76024001D01*
G75*
G02*
X230279001Y-76274000I-249999J0D01*
G01*
X229628999Y-76274000D01*
G75*
G02*
X229379000Y-76024001I0J249999D01*
G01*
G37*
G36*
G01*
X231429000Y-78564001D02*
X231429000Y-77663999D01*
G75*
G02*
X231678999Y-77414000I249999J0D01*
G01*
X232329001Y-77414000D01*
G75*
G02*
X232579000Y-77663999I0J-249999D01*
G01*
X232579000Y-78564001D01*
G75*
G02*
X232329001Y-78814000I-249999J0D01*
G01*
X231678999Y-78814000D01*
G75*
G02*
X231429000Y-78564001I0J249999D01*
G01*
G37*
G36*
G01*
X229379000Y-78564001D02*
X229379000Y-77663999D01*
G75*
G02*
X229628999Y-77414000I249999J0D01*
G01*
X230279001Y-77414000D01*
G75*
G02*
X230529000Y-77663999I0J-249999D01*
G01*
X230529000Y-78564001D01*
G75*
G02*
X230279001Y-78814000I-249999J0D01*
G01*
X229628999Y-78814000D01*
G75*
G02*
X229379000Y-78564001I0J249999D01*
G01*
G37*
G36*
G01*
X211236000Y-86946001D02*
X211236000Y-86045999D01*
G75*
G02*
X211485999Y-85796000I249999J0D01*
G01*
X212136001Y-85796000D01*
G75*
G02*
X212386000Y-86045999I0J-249999D01*
G01*
X212386000Y-86946001D01*
G75*
G02*
X212136001Y-87196000I-249999J0D01*
G01*
X211485999Y-87196000D01*
G75*
G02*
X211236000Y-86946001I0J249999D01*
G01*
G37*
G36*
G01*
X209186000Y-86946001D02*
X209186000Y-86045999D01*
G75*
G02*
X209435999Y-85796000I249999J0D01*
G01*
X210086001Y-85796000D01*
G75*
G02*
X210336000Y-86045999I0J-249999D01*
G01*
X210336000Y-86946001D01*
G75*
G02*
X210086001Y-87196000I-249999J0D01*
G01*
X209435999Y-87196000D01*
G75*
G02*
X209186000Y-86946001I0J249999D01*
G01*
G37*
G36*
G01*
X212506000Y-139016001D02*
X212506000Y-138115999D01*
G75*
G02*
X212755999Y-137866000I249999J0D01*
G01*
X213406001Y-137866000D01*
G75*
G02*
X213656000Y-138115999I0J-249999D01*
G01*
X213656000Y-139016001D01*
G75*
G02*
X213406001Y-139266000I-249999J0D01*
G01*
X212755999Y-139266000D01*
G75*
G02*
X212506000Y-139016001I0J249999D01*
G01*
G37*
G36*
G01*
X210456000Y-139016001D02*
X210456000Y-138115999D01*
G75*
G02*
X210705999Y-137866000I249999J0D01*
G01*
X211356001Y-137866000D01*
G75*
G02*
X211606000Y-138115999I0J-249999D01*
G01*
X211606000Y-139016001D01*
G75*
G02*
X211356001Y-139266000I-249999J0D01*
G01*
X210705999Y-139266000D01*
G75*
G02*
X210456000Y-139016001I0J249999D01*
G01*
G37*
G36*
G01*
X237017000Y-78310001D02*
X237017000Y-77409999D01*
G75*
G02*
X237266999Y-77160000I249999J0D01*
G01*
X237917001Y-77160000D01*
G75*
G02*
X238167000Y-77409999I0J-249999D01*
G01*
X238167000Y-78310001D01*
G75*
G02*
X237917001Y-78560000I-249999J0D01*
G01*
X237266999Y-78560000D01*
G75*
G02*
X237017000Y-78310001I0J249999D01*
G01*
G37*
G36*
G01*
X234967000Y-78310001D02*
X234967000Y-77409999D01*
G75*
G02*
X235216999Y-77160000I249999J0D01*
G01*
X235867001Y-77160000D01*
G75*
G02*
X236117000Y-77409999I0J-249999D01*
G01*
X236117000Y-78310001D01*
G75*
G02*
X235867001Y-78560000I-249999J0D01*
G01*
X235216999Y-78560000D01*
G75*
G02*
X234967000Y-78310001I0J249999D01*
G01*
G37*
G36*
G01*
X211416000Y-84406001D02*
X211416000Y-83505999D01*
G75*
G02*
X211665999Y-83256000I249999J0D01*
G01*
X212316001Y-83256000D01*
G75*
G02*
X212566000Y-83505999I0J-249999D01*
G01*
X212566000Y-84406001D01*
G75*
G02*
X212316001Y-84656000I-249999J0D01*
G01*
X211665999Y-84656000D01*
G75*
G02*
X211416000Y-84406001I0J249999D01*
G01*
G37*
G36*
G01*
X209366000Y-84406001D02*
X209366000Y-83505999D01*
G75*
G02*
X209615999Y-83256000I249999J0D01*
G01*
X210266001Y-83256000D01*
G75*
G02*
X210516000Y-83505999I0J-249999D01*
G01*
X210516000Y-84406001D01*
G75*
G02*
X210266001Y-84656000I-249999J0D01*
G01*
X209615999Y-84656000D01*
G75*
G02*
X209366000Y-84406001I0J249999D01*
G01*
G37*
G36*
G01*
X212506000Y-141556001D02*
X212506000Y-140655999D01*
G75*
G02*
X212755999Y-140406000I249999J0D01*
G01*
X213406001Y-140406000D01*
G75*
G02*
X213656000Y-140655999I0J-249999D01*
G01*
X213656000Y-141556001D01*
G75*
G02*
X213406001Y-141806000I-249999J0D01*
G01*
X212755999Y-141806000D01*
G75*
G02*
X212506000Y-141556001I0J249999D01*
G01*
G37*
G36*
G01*
X210456000Y-141556001D02*
X210456000Y-140655999D01*
G75*
G02*
X210705999Y-140406000I249999J0D01*
G01*
X211356001Y-140406000D01*
G75*
G02*
X211606000Y-140655999I0J-249999D01*
G01*
X211606000Y-141556001D01*
G75*
G02*
X211356001Y-141806000I-249999J0D01*
G01*
X210705999Y-141806000D01*
G75*
G02*
X210456000Y-141556001I0J249999D01*
G01*
G37*
G36*
G01*
X237017000Y-75770001D02*
X237017000Y-74869999D01*
G75*
G02*
X237266999Y-74620000I249999J0D01*
G01*
X237917001Y-74620000D01*
G75*
G02*
X238167000Y-74869999I0J-249999D01*
G01*
X238167000Y-75770001D01*
G75*
G02*
X237917001Y-76020000I-249999J0D01*
G01*
X237266999Y-76020000D01*
G75*
G02*
X237017000Y-75770001I0J249999D01*
G01*
G37*
G36*
G01*
X234967000Y-75770001D02*
X234967000Y-74869999D01*
G75*
G02*
X235216999Y-74620000I249999J0D01*
G01*
X235867001Y-74620000D01*
G75*
G02*
X236117000Y-74869999I0J-249999D01*
G01*
X236117000Y-75770001D01*
G75*
G02*
X235867001Y-76020000I-249999J0D01*
G01*
X235216999Y-76020000D01*
G75*
G02*
X234967000Y-75770001I0J249999D01*
G01*
G37*
G36*
G01*
X236498000Y-105476999D02*
X236498000Y-106377001D01*
G75*
G02*
X236248001Y-106627000I-249999J0D01*
G01*
X235597999Y-106627000D01*
G75*
G02*
X235348000Y-106377001I0J249999D01*
G01*
X235348000Y-105476999D01*
G75*
G02*
X235597999Y-105227000I249999J0D01*
G01*
X236248001Y-105227000D01*
G75*
G02*
X236498000Y-105476999I0J-249999D01*
G01*
G37*
G36*
G01*
X238548000Y-105476999D02*
X238548000Y-106377001D01*
G75*
G02*
X238298001Y-106627000I-249999J0D01*
G01*
X237647999Y-106627000D01*
G75*
G02*
X237398000Y-106377001I0J249999D01*
G01*
X237398000Y-105476999D01*
G75*
G02*
X237647999Y-105227000I249999J0D01*
G01*
X238298001Y-105227000D01*
G75*
G02*
X238548000Y-105476999I0J-249999D01*
G01*
G37*
G36*
G01*
X203986000Y-86045999D02*
X203986000Y-86946001D01*
G75*
G02*
X203736001Y-87196000I-249999J0D01*
G01*
X203085999Y-87196000D01*
G75*
G02*
X202836000Y-86946001I0J249999D01*
G01*
X202836000Y-86045999D01*
G75*
G02*
X203085999Y-85796000I249999J0D01*
G01*
X203736001Y-85796000D01*
G75*
G02*
X203986000Y-86045999I0J-249999D01*
G01*
G37*
G36*
G01*
X206036000Y-86045999D02*
X206036000Y-86946001D01*
G75*
G02*
X205786001Y-87196000I-249999J0D01*
G01*
X205135999Y-87196000D01*
G75*
G02*
X204886000Y-86946001I0J249999D01*
G01*
X204886000Y-86045999D01*
G75*
G02*
X205135999Y-85796000I249999J0D01*
G01*
X205786001Y-85796000D01*
G75*
G02*
X206036000Y-86045999I0J-249999D01*
G01*
G37*
G36*
G01*
X203986000Y-88585999D02*
X203986000Y-89486001D01*
G75*
G02*
X203736001Y-89736000I-249999J0D01*
G01*
X203085999Y-89736000D01*
G75*
G02*
X202836000Y-89486001I0J249999D01*
G01*
X202836000Y-88585999D01*
G75*
G02*
X203085999Y-88336000I249999J0D01*
G01*
X203736001Y-88336000D01*
G75*
G02*
X203986000Y-88585999I0J-249999D01*
G01*
G37*
G36*
G01*
X206036000Y-88585999D02*
X206036000Y-89486001D01*
G75*
G02*
X205786001Y-89736000I-249999J0D01*
G01*
X205135999Y-89736000D01*
G75*
G02*
X204886000Y-89486001I0J249999D01*
G01*
X204886000Y-88585999D01*
G75*
G02*
X205135999Y-88336000I249999J0D01*
G01*
X205786001Y-88336000D01*
G75*
G02*
X206036000Y-88585999I0J-249999D01*
G01*
G37*
G36*
G01*
X209966001Y-133036000D02*
X209065999Y-133036000D01*
G75*
G02*
X208816000Y-132786001I0J249999D01*
G01*
X208816000Y-132135999D01*
G75*
G02*
X209065999Y-131886000I249999J0D01*
G01*
X209966001Y-131886000D01*
G75*
G02*
X210216000Y-132135999I0J-249999D01*
G01*
X210216000Y-132786001D01*
G75*
G02*
X209966001Y-133036000I-249999J0D01*
G01*
G37*
G36*
G01*
X209966001Y-135086000D02*
X209065999Y-135086000D01*
G75*
G02*
X208816000Y-134836001I0J249999D01*
G01*
X208816000Y-134185999D01*
G75*
G02*
X209065999Y-133936000I249999J0D01*
G01*
X209966001Y-133936000D01*
G75*
G02*
X210216000Y-134185999I0J-249999D01*
G01*
X210216000Y-134836001D01*
G75*
G02*
X209966001Y-135086000I-249999J0D01*
G01*
G37*
G36*
G01*
X207426001Y-133036000D02*
X206525999Y-133036000D01*
G75*
G02*
X206276000Y-132786001I0J249999D01*
G01*
X206276000Y-132135999D01*
G75*
G02*
X206525999Y-131886000I249999J0D01*
G01*
X207426001Y-131886000D01*
G75*
G02*
X207676000Y-132135999I0J-249999D01*
G01*
X207676000Y-132786001D01*
G75*
G02*
X207426001Y-133036000I-249999J0D01*
G01*
G37*
G36*
G01*
X207426001Y-135086000D02*
X206525999Y-135086000D01*
G75*
G02*
X206276000Y-134836001I0J249999D01*
G01*
X206276000Y-134185999D01*
G75*
G02*
X206525999Y-133936000I249999J0D01*
G01*
X207426001Y-133936000D01*
G75*
G02*
X207676000Y-134185999I0J-249999D01*
G01*
X207676000Y-134836001D01*
G75*
G02*
X207426001Y-135086000I-249999J0D01*
G01*
G37*
G36*
G01*
X164616000Y-133035999D02*
X164616000Y-133936001D01*
G75*
G02*
X164366001Y-134186000I-249999J0D01*
G01*
X163715999Y-134186000D01*
G75*
G02*
X163466000Y-133936001I0J249999D01*
G01*
X163466000Y-133035999D01*
G75*
G02*
X163715999Y-132786000I249999J0D01*
G01*
X164366001Y-132786000D01*
G75*
G02*
X164616000Y-133035999I0J-249999D01*
G01*
G37*
G36*
G01*
X166666000Y-133035999D02*
X166666000Y-133936001D01*
G75*
G02*
X166416001Y-134186000I-249999J0D01*
G01*
X165765999Y-134186000D01*
G75*
G02*
X165516000Y-133936001I0J249999D01*
G01*
X165516000Y-133035999D01*
G75*
G02*
X165765999Y-132786000I249999J0D01*
G01*
X166416001Y-132786000D01*
G75*
G02*
X166666000Y-133035999I0J-249999D01*
G01*
G37*
G36*
G01*
X226984000Y-110568001D02*
X226984000Y-109667999D01*
G75*
G02*
X227233999Y-109418000I249999J0D01*
G01*
X227884001Y-109418000D01*
G75*
G02*
X228134000Y-109667999I0J-249999D01*
G01*
X228134000Y-110568001D01*
G75*
G02*
X227884001Y-110818000I-249999J0D01*
G01*
X227233999Y-110818000D01*
G75*
G02*
X226984000Y-110568001I0J249999D01*
G01*
G37*
G36*
G01*
X224934000Y-110568001D02*
X224934000Y-109667999D01*
G75*
G02*
X225183999Y-109418000I249999J0D01*
G01*
X225834001Y-109418000D01*
G75*
G02*
X226084000Y-109667999I0J-249999D01*
G01*
X226084000Y-110568001D01*
G75*
G02*
X225834001Y-110818000I-249999J0D01*
G01*
X225183999Y-110818000D01*
G75*
G02*
X224934000Y-110568001I0J249999D01*
G01*
G37*
G36*
G01*
X236498000Y-109286999D02*
X236498000Y-110187001D01*
G75*
G02*
X236248001Y-110437000I-249999J0D01*
G01*
X235597999Y-110437000D01*
G75*
G02*
X235348000Y-110187001I0J249999D01*
G01*
X235348000Y-109286999D01*
G75*
G02*
X235597999Y-109037000I249999J0D01*
G01*
X236248001Y-109037000D01*
G75*
G02*
X236498000Y-109286999I0J-249999D01*
G01*
G37*
G36*
G01*
X238548000Y-109286999D02*
X238548000Y-110187001D01*
G75*
G02*
X238298001Y-110437000I-249999J0D01*
G01*
X237647999Y-110437000D01*
G75*
G02*
X237398000Y-110187001I0J249999D01*
G01*
X237398000Y-109286999D01*
G75*
G02*
X237647999Y-109037000I249999J0D01*
G01*
X238298001Y-109037000D01*
G75*
G02*
X238548000Y-109286999I0J-249999D01*
G01*
G37*
G36*
G01*
X164371000Y-129225999D02*
X164371000Y-130126001D01*
G75*
G02*
X164121001Y-130376000I-249999J0D01*
G01*
X163470999Y-130376000D01*
G75*
G02*
X163221000Y-130126001I0J249999D01*
G01*
X163221000Y-129225999D01*
G75*
G02*
X163470999Y-128976000I249999J0D01*
G01*
X164121001Y-128976000D01*
G75*
G02*
X164371000Y-129225999I0J-249999D01*
G01*
G37*
G36*
G01*
X166421000Y-129225999D02*
X166421000Y-130126001D01*
G75*
G02*
X166171001Y-130376000I-249999J0D01*
G01*
X165520999Y-130376000D01*
G75*
G02*
X165271000Y-130126001I0J249999D01*
G01*
X165271000Y-129225999D01*
G75*
G02*
X165520999Y-128976000I249999J0D01*
G01*
X166171001Y-128976000D01*
G75*
G02*
X166421000Y-129225999I0J-249999D01*
G01*
G37*
G36*
G01*
X159166000Y-130126001D02*
X159166000Y-129225999D01*
G75*
G02*
X159415999Y-128976000I249999J0D01*
G01*
X160066001Y-128976000D01*
G75*
G02*
X160316000Y-129225999I0J-249999D01*
G01*
X160316000Y-130126001D01*
G75*
G02*
X160066001Y-130376000I-249999J0D01*
G01*
X159415999Y-130376000D01*
G75*
G02*
X159166000Y-130126001I0J249999D01*
G01*
G37*
G36*
G01*
X157116000Y-130126001D02*
X157116000Y-129225999D01*
G75*
G02*
X157365999Y-128976000I249999J0D01*
G01*
X158016001Y-128976000D01*
G75*
G02*
X158266000Y-129225999I0J-249999D01*
G01*
X158266000Y-130126001D01*
G75*
G02*
X158016001Y-130376000I-249999J0D01*
G01*
X157365999Y-130376000D01*
G75*
G02*
X157116000Y-130126001I0J249999D01*
G01*
G37*
G36*
G01*
X226984000Y-113743001D02*
X226984000Y-112842999D01*
G75*
G02*
X227233999Y-112593000I249999J0D01*
G01*
X227884001Y-112593000D01*
G75*
G02*
X228134000Y-112842999I0J-249999D01*
G01*
X228134000Y-113743001D01*
G75*
G02*
X227884001Y-113993000I-249999J0D01*
G01*
X227233999Y-113993000D01*
G75*
G02*
X226984000Y-113743001I0J249999D01*
G01*
G37*
G36*
G01*
X224934000Y-113743001D02*
X224934000Y-112842999D01*
G75*
G02*
X225183999Y-112593000I249999J0D01*
G01*
X225834001Y-112593000D01*
G75*
G02*
X226084000Y-112842999I0J-249999D01*
G01*
X226084000Y-113743001D01*
G75*
G02*
X225834001Y-113993000I-249999J0D01*
G01*
X225183999Y-113993000D01*
G75*
G02*
X224934000Y-113743001I0J249999D01*
G01*
G37*
G36*
G01*
X158921000Y-133936001D02*
X158921000Y-133035999D01*
G75*
G02*
X159170999Y-132786000I249999J0D01*
G01*
X159821001Y-132786000D01*
G75*
G02*
X160071000Y-133035999I0J-249999D01*
G01*
X160071000Y-133936001D01*
G75*
G02*
X159821001Y-134186000I-249999J0D01*
G01*
X159170999Y-134186000D01*
G75*
G02*
X158921000Y-133936001I0J249999D01*
G01*
G37*
G36*
G01*
X156871000Y-133936001D02*
X156871000Y-133035999D01*
G75*
G02*
X157120999Y-132786000I249999J0D01*
G01*
X157771001Y-132786000D01*
G75*
G02*
X158021000Y-133035999I0J-249999D01*
G01*
X158021000Y-133936001D01*
G75*
G02*
X157771001Y-134186000I-249999J0D01*
G01*
X157120999Y-134186000D01*
G75*
G02*
X156871000Y-133936001I0J249999D01*
G01*
G37*
G36*
G01*
X194726000Y-107266001D02*
X194726000Y-106365999D01*
G75*
G02*
X194975999Y-106116000I249999J0D01*
G01*
X195626001Y-106116000D01*
G75*
G02*
X195876000Y-106365999I0J-249999D01*
G01*
X195876000Y-107266001D01*
G75*
G02*
X195626001Y-107516000I-249999J0D01*
G01*
X194975999Y-107516000D01*
G75*
G02*
X194726000Y-107266001I0J249999D01*
G01*
G37*
G36*
G01*
X192676000Y-107266001D02*
X192676000Y-106365999D01*
G75*
G02*
X192925999Y-106116000I249999J0D01*
G01*
X193576001Y-106116000D01*
G75*
G02*
X193826000Y-106365999I0J-249999D01*
G01*
X193826000Y-107266001D01*
G75*
G02*
X193576001Y-107516000I-249999J0D01*
G01*
X192925999Y-107516000D01*
G75*
G02*
X192676000Y-107266001I0J249999D01*
G01*
G37*
G36*
G01*
X179486001Y-107636000D02*
X178585999Y-107636000D01*
G75*
G02*
X178336000Y-107386001I0J249999D01*
G01*
X178336000Y-106735999D01*
G75*
G02*
X178585999Y-106486000I249999J0D01*
G01*
X179486001Y-106486000D01*
G75*
G02*
X179736000Y-106735999I0J-249999D01*
G01*
X179736000Y-107386001D01*
G75*
G02*
X179486001Y-107636000I-249999J0D01*
G01*
G37*
G36*
G01*
X179486001Y-109686000D02*
X178585999Y-109686000D01*
G75*
G02*
X178336000Y-109436001I0J249999D01*
G01*
X178336000Y-108785999D01*
G75*
G02*
X178585999Y-108536000I249999J0D01*
G01*
X179486001Y-108536000D01*
G75*
G02*
X179736000Y-108785999I0J-249999D01*
G01*
X179736000Y-109436001D01*
G75*
G02*
X179486001Y-109686000I-249999J0D01*
G01*
G37*
G36*
G01*
X159166000Y-116156001D02*
X159166000Y-115255999D01*
G75*
G02*
X159415999Y-115006000I249999J0D01*
G01*
X160066001Y-115006000D01*
G75*
G02*
X160316000Y-115255999I0J-249999D01*
G01*
X160316000Y-116156001D01*
G75*
G02*
X160066001Y-116406000I-249999J0D01*
G01*
X159415999Y-116406000D01*
G75*
G02*
X159166000Y-116156001I0J249999D01*
G01*
G37*
G36*
G01*
X157116000Y-116156001D02*
X157116000Y-115255999D01*
G75*
G02*
X157365999Y-115006000I249999J0D01*
G01*
X158016001Y-115006000D01*
G75*
G02*
X158266000Y-115255999I0J-249999D01*
G01*
X158266000Y-116156001D01*
G75*
G02*
X158016001Y-116406000I-249999J0D01*
G01*
X157365999Y-116406000D01*
G75*
G02*
X157116000Y-116156001I0J249999D01*
G01*
G37*
G36*
G01*
X194726000Y-104726001D02*
X194726000Y-103825999D01*
G75*
G02*
X194975999Y-103576000I249999J0D01*
G01*
X195626001Y-103576000D01*
G75*
G02*
X195876000Y-103825999I0J-249999D01*
G01*
X195876000Y-104726001D01*
G75*
G02*
X195626001Y-104976000I-249999J0D01*
G01*
X194975999Y-104976000D01*
G75*
G02*
X194726000Y-104726001I0J249999D01*
G01*
G37*
G36*
G01*
X192676000Y-104726001D02*
X192676000Y-103825999D01*
G75*
G02*
X192925999Y-103576000I249999J0D01*
G01*
X193576001Y-103576000D01*
G75*
G02*
X193826000Y-103825999I0J-249999D01*
G01*
X193826000Y-104726001D01*
G75*
G02*
X193576001Y-104976000I-249999J0D01*
G01*
X192925999Y-104976000D01*
G75*
G02*
X192676000Y-104726001I0J249999D01*
G01*
G37*
G36*
G01*
X176946001Y-107636000D02*
X176045999Y-107636000D01*
G75*
G02*
X175796000Y-107386001I0J249999D01*
G01*
X175796000Y-106735999D01*
G75*
G02*
X176045999Y-106486000I249999J0D01*
G01*
X176946001Y-106486000D01*
G75*
G02*
X177196000Y-106735999I0J-249999D01*
G01*
X177196000Y-107386001D01*
G75*
G02*
X176946001Y-107636000I-249999J0D01*
G01*
G37*
G36*
G01*
X176946001Y-109686000D02*
X176045999Y-109686000D01*
G75*
G02*
X175796000Y-109436001I0J249999D01*
G01*
X175796000Y-108785999D01*
G75*
G02*
X176045999Y-108536000I249999J0D01*
G01*
X176946001Y-108536000D01*
G75*
G02*
X177196000Y-108785999I0J-249999D01*
G01*
X177196000Y-109436001D01*
G75*
G02*
X176946001Y-109686000I-249999J0D01*
G01*
G37*
G36*
G01*
X159166000Y-113616001D02*
X159166000Y-112715999D01*
G75*
G02*
X159415999Y-112466000I249999J0D01*
G01*
X160066001Y-112466000D01*
G75*
G02*
X160316000Y-112715999I0J-249999D01*
G01*
X160316000Y-113616001D01*
G75*
G02*
X160066001Y-113866000I-249999J0D01*
G01*
X159415999Y-113866000D01*
G75*
G02*
X159166000Y-113616001I0J249999D01*
G01*
G37*
G36*
G01*
X157116000Y-113616001D02*
X157116000Y-112715999D01*
G75*
G02*
X157365999Y-112466000I249999J0D01*
G01*
X158016001Y-112466000D01*
G75*
G02*
X158266000Y-112715999I0J-249999D01*
G01*
X158266000Y-113616001D01*
G75*
G02*
X158016001Y-113866000I-249999J0D01*
G01*
X157365999Y-113866000D01*
G75*
G02*
X157116000Y-113616001I0J249999D01*
G01*
G37*
G36*
G01*
X190142999Y-86565000D02*
X191043001Y-86565000D01*
G75*
G02*
X191293000Y-86814999I0J-249999D01*
G01*
X191293000Y-87465001D01*
G75*
G02*
X191043001Y-87715000I-249999J0D01*
G01*
X190142999Y-87715000D01*
G75*
G02*
X189893000Y-87465001I0J249999D01*
G01*
X189893000Y-86814999D01*
G75*
G02*
X190142999Y-86565000I249999J0D01*
G01*
G37*
G36*
G01*
X190142999Y-84515000D02*
X191043001Y-84515000D01*
G75*
G02*
X191293000Y-84764999I0J-249999D01*
G01*
X191293000Y-85415001D01*
G75*
G02*
X191043001Y-85665000I-249999J0D01*
G01*
X190142999Y-85665000D01*
G75*
G02*
X189893000Y-85415001I0J249999D01*
G01*
X189893000Y-84764999D01*
G75*
G02*
X190142999Y-84515000I249999J0D01*
G01*
G37*
G36*
G01*
X165885999Y-85676000D02*
X166786001Y-85676000D01*
G75*
G02*
X167036000Y-85925999I0J-249999D01*
G01*
X167036000Y-86576001D01*
G75*
G02*
X166786001Y-86826000I-249999J0D01*
G01*
X165885999Y-86826000D01*
G75*
G02*
X165636000Y-86576001I0J249999D01*
G01*
X165636000Y-85925999D01*
G75*
G02*
X165885999Y-85676000I249999J0D01*
G01*
G37*
G36*
G01*
X165885999Y-83626000D02*
X166786001Y-83626000D01*
G75*
G02*
X167036000Y-83875999I0J-249999D01*
G01*
X167036000Y-84526001D01*
G75*
G02*
X166786001Y-84776000I-249999J0D01*
G01*
X165885999Y-84776000D01*
G75*
G02*
X165636000Y-84526001I0J249999D01*
G01*
X165636000Y-83875999D01*
G75*
G02*
X165885999Y-83626000I249999J0D01*
G01*
G37*
G36*
G01*
X171866000Y-88851001D02*
X171866000Y-87950999D01*
G75*
G02*
X172115999Y-87701000I249999J0D01*
G01*
X172766001Y-87701000D01*
G75*
G02*
X173016000Y-87950999I0J-249999D01*
G01*
X173016000Y-88851001D01*
G75*
G02*
X172766001Y-89101000I-249999J0D01*
G01*
X172115999Y-89101000D01*
G75*
G02*
X171866000Y-88851001I0J249999D01*
G01*
G37*
G36*
G01*
X169816000Y-88851001D02*
X169816000Y-87950999D01*
G75*
G02*
X170065999Y-87701000I249999J0D01*
G01*
X170716001Y-87701000D01*
G75*
G02*
X170966000Y-87950999I0J-249999D01*
G01*
X170966000Y-88851001D01*
G75*
G02*
X170716001Y-89101000I-249999J0D01*
G01*
X170065999Y-89101000D01*
G75*
G02*
X169816000Y-88851001I0J249999D01*
G01*
G37*
G36*
G01*
X163980999Y-85676000D02*
X164881001Y-85676000D01*
G75*
G02*
X165131000Y-85925999I0J-249999D01*
G01*
X165131000Y-86576001D01*
G75*
G02*
X164881001Y-86826000I-249999J0D01*
G01*
X163980999Y-86826000D01*
G75*
G02*
X163731000Y-86576001I0J249999D01*
G01*
X163731000Y-85925999D01*
G75*
G02*
X163980999Y-85676000I249999J0D01*
G01*
G37*
G36*
G01*
X163980999Y-83626000D02*
X164881001Y-83626000D01*
G75*
G02*
X165131000Y-83875999I0J-249999D01*
G01*
X165131000Y-84526001D01*
G75*
G02*
X164881001Y-84776000I-249999J0D01*
G01*
X163980999Y-84776000D01*
G75*
G02*
X163731000Y-84526001I0J249999D01*
G01*
X163731000Y-83875999D01*
G75*
G02*
X163980999Y-83626000I249999J0D01*
G01*
G37*
G36*
G01*
X162341000Y-95201001D02*
X162341000Y-94300999D01*
G75*
G02*
X162590999Y-94051000I249999J0D01*
G01*
X163241001Y-94051000D01*
G75*
G02*
X163491000Y-94300999I0J-249999D01*
G01*
X163491000Y-95201001D01*
G75*
G02*
X163241001Y-95451000I-249999J0D01*
G01*
X162590999Y-95451000D01*
G75*
G02*
X162341000Y-95201001I0J249999D01*
G01*
G37*
G36*
G01*
X160291000Y-95201001D02*
X160291000Y-94300999D01*
G75*
G02*
X160540999Y-94051000I249999J0D01*
G01*
X161191001Y-94051000D01*
G75*
G02*
X161441000Y-94300999I0J-249999D01*
G01*
X161441000Y-95201001D01*
G75*
G02*
X161191001Y-95451000I-249999J0D01*
G01*
X160540999Y-95451000D01*
G75*
G02*
X160291000Y-95201001I0J249999D01*
G01*
G37*
D25*
X146651000Y-71796000D03*
X151731000Y-71796000D03*
X151731000Y-75796000D03*
X146651000Y-75796000D03*
D26*
X182514500Y-77073000D03*
X187114500Y-77073000D03*
X184814500Y-77073000D03*
D27*
X184814500Y-70773000D03*
D12*
X149826000Y-82686000D03*
D13*
X149826000Y-80146000D03*
D12*
X149826000Y-66176000D03*
D13*
X149826000Y-63636000D03*
G36*
G01*
X228381000Y-139651001D02*
X228381000Y-138750999D01*
G75*
G02*
X228630999Y-138501000I249999J0D01*
G01*
X229281001Y-138501000D01*
G75*
G02*
X229531000Y-138750999I0J-249999D01*
G01*
X229531000Y-139651001D01*
G75*
G02*
X229281001Y-139901000I-249999J0D01*
G01*
X228630999Y-139901000D01*
G75*
G02*
X228381000Y-139651001I0J249999D01*
G01*
G37*
G36*
G01*
X226331000Y-139651001D02*
X226331000Y-138750999D01*
G75*
G02*
X226580999Y-138501000I249999J0D01*
G01*
X227231001Y-138501000D01*
G75*
G02*
X227481000Y-138750999I0J-249999D01*
G01*
X227481000Y-139651001D01*
G75*
G02*
X227231001Y-139901000I-249999J0D01*
G01*
X226580999Y-139901000D01*
G75*
G02*
X226331000Y-139651001I0J249999D01*
G01*
G37*
G36*
G01*
X181126000Y-87315999D02*
X181126000Y-88216001D01*
G75*
G02*
X180876001Y-88466000I-249999J0D01*
G01*
X180225999Y-88466000D01*
G75*
G02*
X179976000Y-88216001I0J249999D01*
G01*
X179976000Y-87315999D01*
G75*
G02*
X180225999Y-87066000I249999J0D01*
G01*
X180876001Y-87066000D01*
G75*
G02*
X181126000Y-87315999I0J-249999D01*
G01*
G37*
G36*
G01*
X183176000Y-87315999D02*
X183176000Y-88216001D01*
G75*
G02*
X182926001Y-88466000I-249999J0D01*
G01*
X182275999Y-88466000D01*
G75*
G02*
X182026000Y-88216001I0J249999D01*
G01*
X182026000Y-87315999D01*
G75*
G02*
X182275999Y-87066000I249999J0D01*
G01*
X182926001Y-87066000D01*
G75*
G02*
X183176000Y-87315999I0J-249999D01*
G01*
G37*
G36*
G01*
X181126000Y-83505999D02*
X181126000Y-84406001D01*
G75*
G02*
X180876001Y-84656000I-249999J0D01*
G01*
X180225999Y-84656000D01*
G75*
G02*
X179976000Y-84406001I0J249999D01*
G01*
X179976000Y-83505999D01*
G75*
G02*
X180225999Y-83256000I249999J0D01*
G01*
X180876001Y-83256000D01*
G75*
G02*
X181126000Y-83505999I0J-249999D01*
G01*
G37*
G36*
G01*
X183176000Y-83505999D02*
X183176000Y-84406001D01*
G75*
G02*
X182926001Y-84656000I-249999J0D01*
G01*
X182275999Y-84656000D01*
G75*
G02*
X182026000Y-84406001I0J249999D01*
G01*
X182026000Y-83505999D01*
G75*
G02*
X182275999Y-83256000I249999J0D01*
G01*
X182926001Y-83256000D01*
G75*
G02*
X183176000Y-83505999I0J-249999D01*
G01*
G37*
G36*
G01*
X181126000Y-79695999D02*
X181126000Y-80596001D01*
G75*
G02*
X180876001Y-80846000I-249999J0D01*
G01*
X180225999Y-80846000D01*
G75*
G02*
X179976000Y-80596001I0J249999D01*
G01*
X179976000Y-79695999D01*
G75*
G02*
X180225999Y-79446000I249999J0D01*
G01*
X180876001Y-79446000D01*
G75*
G02*
X181126000Y-79695999I0J-249999D01*
G01*
G37*
G36*
G01*
X183176000Y-79695999D02*
X183176000Y-80596001D01*
G75*
G02*
X182926001Y-80846000I-249999J0D01*
G01*
X182275999Y-80846000D01*
G75*
G02*
X182026000Y-80596001I0J249999D01*
G01*
X182026000Y-79695999D01*
G75*
G02*
X182275999Y-79446000I249999J0D01*
G01*
X182926001Y-79446000D01*
G75*
G02*
X183176000Y-79695999I0J-249999D01*
G01*
G37*
G36*
G01*
X155991000Y-58371001D02*
X155991000Y-57470999D01*
G75*
G02*
X156240999Y-57221000I249999J0D01*
G01*
X156891001Y-57221000D01*
G75*
G02*
X157141000Y-57470999I0J-249999D01*
G01*
X157141000Y-58371001D01*
G75*
G02*
X156891001Y-58621000I-249999J0D01*
G01*
X156240999Y-58621000D01*
G75*
G02*
X155991000Y-58371001I0J249999D01*
G01*
G37*
G36*
G01*
X153941000Y-58371001D02*
X153941000Y-57470999D01*
G75*
G02*
X154190999Y-57221000I249999J0D01*
G01*
X154841001Y-57221000D01*
G75*
G02*
X155091000Y-57470999I0J-249999D01*
G01*
X155091000Y-58371001D01*
G75*
G02*
X154841001Y-58621000I-249999J0D01*
G01*
X154190999Y-58621000D01*
G75*
G02*
X153941000Y-58371001I0J249999D01*
G01*
G37*
G36*
G01*
X150276000Y-60911001D02*
X150276000Y-60010999D01*
G75*
G02*
X150525999Y-59761000I249999J0D01*
G01*
X151176001Y-59761000D01*
G75*
G02*
X151426000Y-60010999I0J-249999D01*
G01*
X151426000Y-60911001D01*
G75*
G02*
X151176001Y-61161000I-249999J0D01*
G01*
X150525999Y-61161000D01*
G75*
G02*
X150276000Y-60911001I0J249999D01*
G01*
G37*
G36*
G01*
X148226000Y-60911001D02*
X148226000Y-60010999D01*
G75*
G02*
X148475999Y-59761000I249999J0D01*
G01*
X149126001Y-59761000D01*
G75*
G02*
X149376000Y-60010999I0J-249999D01*
G01*
X149376000Y-60911001D01*
G75*
G02*
X149126001Y-61161000I-249999J0D01*
G01*
X148475999Y-61161000D01*
G75*
G02*
X148226000Y-60911001I0J249999D01*
G01*
G37*
D28*
X189379000Y-50522000D03*
X196379000Y-50522000D03*
D29*
X195379000Y-53222000D03*
X190379000Y-53222000D03*
D30*
X194179000Y-53222000D03*
X193529000Y-53222000D03*
X191579000Y-53222000D03*
X192229000Y-53222000D03*
X192879000Y-53222000D03*
D28*
X176933000Y-50522000D03*
X183933000Y-50522000D03*
D29*
X182933000Y-53222000D03*
X177933000Y-53222000D03*
D30*
X181733000Y-53222000D03*
X181083000Y-53222000D03*
X179133000Y-53222000D03*
X179783000Y-53222000D03*
X180433000Y-53222000D03*
D31*
X146443056Y-141948944D03*
X144746000Y-141246000D03*
X143048944Y-141948944D03*
X142346000Y-143646000D03*
X143048944Y-145343056D03*
X144746000Y-146046000D03*
X146443056Y-145343056D03*
X147146000Y-143646000D03*
D32*
X144746000Y-143646000D03*
D31*
X237883056Y-50508944D03*
X236186000Y-49806000D03*
X234488944Y-50508944D03*
X233786000Y-52206000D03*
X234488944Y-53903056D03*
X236186000Y-54606000D03*
X237883056Y-53903056D03*
X238586000Y-52206000D03*
D32*
X236186000Y-52206000D03*
D31*
X237883056Y-141948944D03*
X236186000Y-141246000D03*
X234488944Y-141948944D03*
X233786000Y-143646000D03*
X234488944Y-145343056D03*
X236186000Y-146046000D03*
X237883056Y-145343056D03*
X238586000Y-143646000D03*
D32*
X236186000Y-143646000D03*
D31*
X146443056Y-50508944D03*
X144746000Y-49806000D03*
X143048944Y-50508944D03*
X142346000Y-52206000D03*
X143048944Y-53903056D03*
X144746000Y-54606000D03*
X146443056Y-53903056D03*
X147146000Y-52206000D03*
D32*
X144746000Y-52206000D03*
G36*
G01*
X188099000Y-67338000D02*
X188099000Y-66538000D01*
G75*
G02*
X188349000Y-66288000I250000J0D01*
G01*
X189174000Y-66288000D01*
G75*
G02*
X189424000Y-66538000I0J-250000D01*
G01*
X189424000Y-67338000D01*
G75*
G02*
X189174000Y-67588000I-250000J0D01*
G01*
X188349000Y-67588000D01*
G75*
G02*
X188099000Y-67338000I0J250000D01*
G01*
G37*
G36*
G01*
X186174000Y-67338000D02*
X186174000Y-66538000D01*
G75*
G02*
X186424000Y-66288000I250000J0D01*
G01*
X187249000Y-66288000D01*
G75*
G02*
X187499000Y-66538000I0J-250000D01*
G01*
X187499000Y-67338000D01*
G75*
G02*
X187249000Y-67588000I-250000J0D01*
G01*
X186424000Y-67588000D01*
G75*
G02*
X186174000Y-67338000I0J250000D01*
G01*
G37*
G36*
G01*
X185594000Y-87366000D02*
X185594000Y-88166000D01*
G75*
G02*
X185344000Y-88416000I-250000J0D01*
G01*
X184519000Y-88416000D01*
G75*
G02*
X184269000Y-88166000I0J250000D01*
G01*
X184269000Y-87366000D01*
G75*
G02*
X184519000Y-87116000I250000J0D01*
G01*
X185344000Y-87116000D01*
G75*
G02*
X185594000Y-87366000I0J-250000D01*
G01*
G37*
G36*
G01*
X187519000Y-87366000D02*
X187519000Y-88166000D01*
G75*
G02*
X187269000Y-88416000I-250000J0D01*
G01*
X186444000Y-88416000D01*
G75*
G02*
X186194000Y-88166000I0J250000D01*
G01*
X186194000Y-87366000D01*
G75*
G02*
X186444000Y-87116000I250000J0D01*
G01*
X187269000Y-87116000D01*
G75*
G02*
X187519000Y-87366000I0J-250000D01*
G01*
G37*
G36*
G01*
X185594000Y-83556000D02*
X185594000Y-84356000D01*
G75*
G02*
X185344000Y-84606000I-250000J0D01*
G01*
X184519000Y-84606000D01*
G75*
G02*
X184269000Y-84356000I0J250000D01*
G01*
X184269000Y-83556000D01*
G75*
G02*
X184519000Y-83306000I250000J0D01*
G01*
X185344000Y-83306000D01*
G75*
G02*
X185594000Y-83556000I0J-250000D01*
G01*
G37*
G36*
G01*
X187519000Y-83556000D02*
X187519000Y-84356000D01*
G75*
G02*
X187269000Y-84606000I-250000J0D01*
G01*
X186444000Y-84606000D01*
G75*
G02*
X186194000Y-84356000I0J250000D01*
G01*
X186194000Y-83556000D01*
G75*
G02*
X186444000Y-83306000I250000J0D01*
G01*
X187269000Y-83306000D01*
G75*
G02*
X187519000Y-83556000I0J-250000D01*
G01*
G37*
G36*
G01*
X185594000Y-79746000D02*
X185594000Y-80546000D01*
G75*
G02*
X185344000Y-80796000I-250000J0D01*
G01*
X184519000Y-80796000D01*
G75*
G02*
X184269000Y-80546000I0J250000D01*
G01*
X184269000Y-79746000D01*
G75*
G02*
X184519000Y-79496000I250000J0D01*
G01*
X185344000Y-79496000D01*
G75*
G02*
X185594000Y-79746000I0J-250000D01*
G01*
G37*
G36*
G01*
X187519000Y-79746000D02*
X187519000Y-80546000D01*
G75*
G02*
X187269000Y-80796000I-250000J0D01*
G01*
X186444000Y-80796000D01*
G75*
G02*
X186194000Y-80546000I0J250000D01*
G01*
X186194000Y-79746000D01*
G75*
G02*
X186444000Y-79496000I250000J0D01*
G01*
X187269000Y-79496000D01*
G75*
G02*
X187519000Y-79746000I0J-250000D01*
G01*
G37*
G36*
G01*
X207807001Y-85919000D02*
X206906999Y-85919000D01*
G75*
G02*
X206657000Y-85669001I0J249999D01*
G01*
X206657000Y-85018999D01*
G75*
G02*
X206906999Y-84769000I249999J0D01*
G01*
X207807001Y-84769000D01*
G75*
G02*
X208057000Y-85018999I0J-249999D01*
G01*
X208057000Y-85669001D01*
G75*
G02*
X207807001Y-85919000I-249999J0D01*
G01*
G37*
G36*
G01*
X207807001Y-87969000D02*
X206906999Y-87969000D01*
G75*
G02*
X206657000Y-87719001I0J249999D01*
G01*
X206657000Y-87068999D01*
G75*
G02*
X206906999Y-86819000I249999J0D01*
G01*
X207807001Y-86819000D01*
G75*
G02*
X208057000Y-87068999I0J-249999D01*
G01*
X208057000Y-87719001D01*
G75*
G02*
X207807001Y-87969000I-249999J0D01*
G01*
G37*
G36*
G01*
X190916000Y-71198001D02*
X190916000Y-70297999D01*
G75*
G02*
X191165999Y-70048000I249999J0D01*
G01*
X191816001Y-70048000D01*
G75*
G02*
X192066000Y-70297999I0J-249999D01*
G01*
X192066000Y-71198001D01*
G75*
G02*
X191816001Y-71448000I-249999J0D01*
G01*
X191165999Y-71448000D01*
G75*
G02*
X190916000Y-71198001I0J249999D01*
G01*
G37*
G36*
G01*
X188866000Y-71198001D02*
X188866000Y-70297999D01*
G75*
G02*
X189115999Y-70048000I249999J0D01*
G01*
X189766001Y-70048000D01*
G75*
G02*
X190016000Y-70297999I0J-249999D01*
G01*
X190016000Y-71198001D01*
G75*
G02*
X189766001Y-71448000I-249999J0D01*
G01*
X189115999Y-71448000D01*
G75*
G02*
X188866000Y-71198001I0J249999D01*
G01*
G37*
G36*
G01*
X190397000Y-76647999D02*
X190397000Y-77548001D01*
G75*
G02*
X190147001Y-77798000I-249999J0D01*
G01*
X189496999Y-77798000D01*
G75*
G02*
X189247000Y-77548001I0J249999D01*
G01*
X189247000Y-76647999D01*
G75*
G02*
X189496999Y-76398000I249999J0D01*
G01*
X190147001Y-76398000D01*
G75*
G02*
X190397000Y-76647999I0J-249999D01*
G01*
G37*
G36*
G01*
X192447000Y-76647999D02*
X192447000Y-77548001D01*
G75*
G02*
X192197001Y-77798000I-249999J0D01*
G01*
X191546999Y-77798000D01*
G75*
G02*
X191297000Y-77548001I0J249999D01*
G01*
X191297000Y-76647999D01*
G75*
G02*
X191546999Y-76398000I249999J0D01*
G01*
X192197001Y-76398000D01*
G75*
G02*
X192447000Y-76647999I0J-249999D01*
G01*
G37*
G36*
G01*
X154455999Y-72976000D02*
X155356001Y-72976000D01*
G75*
G02*
X155606000Y-73225999I0J-249999D01*
G01*
X155606000Y-73876001D01*
G75*
G02*
X155356001Y-74126000I-249999J0D01*
G01*
X154455999Y-74126000D01*
G75*
G02*
X154206000Y-73876001I0J249999D01*
G01*
X154206000Y-73225999D01*
G75*
G02*
X154455999Y-72976000I249999J0D01*
G01*
G37*
G36*
G01*
X154455999Y-70926000D02*
X155356001Y-70926000D01*
G75*
G02*
X155606000Y-71175999I0J-249999D01*
G01*
X155606000Y-71826001D01*
G75*
G02*
X155356001Y-72076000I-249999J0D01*
G01*
X154455999Y-72076000D01*
G75*
G02*
X154206000Y-71826001I0J249999D01*
G01*
X154206000Y-71175999D01*
G75*
G02*
X154455999Y-70926000I249999J0D01*
G01*
G37*
G36*
G01*
X156361000Y-63820999D02*
X156361000Y-64721001D01*
G75*
G02*
X156111001Y-64971000I-249999J0D01*
G01*
X155460999Y-64971000D01*
G75*
G02*
X155211000Y-64721001I0J249999D01*
G01*
X155211000Y-63820999D01*
G75*
G02*
X155460999Y-63571000I249999J0D01*
G01*
X156111001Y-63571000D01*
G75*
G02*
X156361000Y-63820999I0J-249999D01*
G01*
G37*
G36*
G01*
X158411000Y-63820999D02*
X158411000Y-64721001D01*
G75*
G02*
X158161001Y-64971000I-249999J0D01*
G01*
X157510999Y-64971000D01*
G75*
G02*
X157261000Y-64721001I0J249999D01*
G01*
X157261000Y-63820999D01*
G75*
G02*
X157510999Y-63571000I249999J0D01*
G01*
X158161001Y-63571000D01*
G75*
G02*
X158411000Y-63820999I0J-249999D01*
G01*
G37*
G36*
G01*
X174025000Y-64213001D02*
X174025000Y-63312999D01*
G75*
G02*
X174274999Y-63063000I249999J0D01*
G01*
X174925001Y-63063000D01*
G75*
G02*
X175175000Y-63312999I0J-249999D01*
G01*
X175175000Y-64213001D01*
G75*
G02*
X174925001Y-64463000I-249999J0D01*
G01*
X174274999Y-64463000D01*
G75*
G02*
X174025000Y-64213001I0J249999D01*
G01*
G37*
G36*
G01*
X171975000Y-64213001D02*
X171975000Y-63312999D01*
G75*
G02*
X172224999Y-63063000I249999J0D01*
G01*
X172875001Y-63063000D01*
G75*
G02*
X173125000Y-63312999I0J-249999D01*
G01*
X173125000Y-64213001D01*
G75*
G02*
X172875001Y-64463000I-249999J0D01*
G01*
X172224999Y-64463000D01*
G75*
G02*
X171975000Y-64213001I0J249999D01*
G01*
G37*
G36*
G01*
X154455999Y-69166000D02*
X155356001Y-69166000D01*
G75*
G02*
X155606000Y-69415999I0J-249999D01*
G01*
X155606000Y-70066001D01*
G75*
G02*
X155356001Y-70316000I-249999J0D01*
G01*
X154455999Y-70316000D01*
G75*
G02*
X154206000Y-70066001I0J249999D01*
G01*
X154206000Y-69415999D01*
G75*
G02*
X154455999Y-69166000I249999J0D01*
G01*
G37*
G36*
G01*
X154455999Y-67116000D02*
X155356001Y-67116000D01*
G75*
G02*
X155606000Y-67365999I0J-249999D01*
G01*
X155606000Y-68016001D01*
G75*
G02*
X155356001Y-68266000I-249999J0D01*
G01*
X154455999Y-68266000D01*
G75*
G02*
X154206000Y-68016001I0J249999D01*
G01*
X154206000Y-67365999D01*
G75*
G02*
X154455999Y-67116000I249999J0D01*
G01*
G37*
G36*
G01*
X178089000Y-81739001D02*
X178089000Y-80838999D01*
G75*
G02*
X178338999Y-80589000I249999J0D01*
G01*
X178989001Y-80589000D01*
G75*
G02*
X179239000Y-80838999I0J-249999D01*
G01*
X179239000Y-81739001D01*
G75*
G02*
X178989001Y-81989000I-249999J0D01*
G01*
X178338999Y-81989000D01*
G75*
G02*
X178089000Y-81739001I0J249999D01*
G01*
G37*
G36*
G01*
X176039000Y-81739001D02*
X176039000Y-80838999D01*
G75*
G02*
X176288999Y-80589000I249999J0D01*
G01*
X176939001Y-80589000D01*
G75*
G02*
X177189000Y-80838999I0J-249999D01*
G01*
X177189000Y-81739001D01*
G75*
G02*
X176939001Y-81989000I-249999J0D01*
G01*
X176288999Y-81989000D01*
G75*
G02*
X176039000Y-81739001I0J249999D01*
G01*
G37*
G36*
G01*
X158900999Y-85549000D02*
X159801001Y-85549000D01*
G75*
G02*
X160051000Y-85798999I0J-249999D01*
G01*
X160051000Y-86449001D01*
G75*
G02*
X159801001Y-86699000I-249999J0D01*
G01*
X158900999Y-86699000D01*
G75*
G02*
X158651000Y-86449001I0J249999D01*
G01*
X158651000Y-85798999D01*
G75*
G02*
X158900999Y-85549000I249999J0D01*
G01*
G37*
G36*
G01*
X158900999Y-83499000D02*
X159801001Y-83499000D01*
G75*
G02*
X160051000Y-83748999I0J-249999D01*
G01*
X160051000Y-84399001D01*
G75*
G02*
X159801001Y-84649000I-249999J0D01*
G01*
X158900999Y-84649000D01*
G75*
G02*
X158651000Y-84399001I0J249999D01*
G01*
X158651000Y-83748999D01*
G75*
G02*
X158900999Y-83499000I249999J0D01*
G01*
G37*
G36*
G01*
X156360999Y-81866000D02*
X157261001Y-81866000D01*
G75*
G02*
X157511000Y-82115999I0J-249999D01*
G01*
X157511000Y-82766001D01*
G75*
G02*
X157261001Y-83016000I-249999J0D01*
G01*
X156360999Y-83016000D01*
G75*
G02*
X156111000Y-82766001I0J249999D01*
G01*
X156111000Y-82115999D01*
G75*
G02*
X156360999Y-81866000I249999J0D01*
G01*
G37*
G36*
G01*
X156360999Y-79816000D02*
X157261001Y-79816000D01*
G75*
G02*
X157511000Y-80065999I0J-249999D01*
G01*
X157511000Y-80716001D01*
G75*
G02*
X157261001Y-80966000I-249999J0D01*
G01*
X156360999Y-80966000D01*
G75*
G02*
X156111000Y-80716001I0J249999D01*
G01*
X156111000Y-80065999D01*
G75*
G02*
X156360999Y-79816000I249999J0D01*
G01*
G37*
G36*
G01*
X174279000Y-81739001D02*
X174279000Y-80838999D01*
G75*
G02*
X174528999Y-80589000I249999J0D01*
G01*
X175179001Y-80589000D01*
G75*
G02*
X175429000Y-80838999I0J-249999D01*
G01*
X175429000Y-81739001D01*
G75*
G02*
X175179001Y-81989000I-249999J0D01*
G01*
X174528999Y-81989000D01*
G75*
G02*
X174279000Y-81739001I0J249999D01*
G01*
G37*
G36*
G01*
X172229000Y-81739001D02*
X172229000Y-80838999D01*
G75*
G02*
X172478999Y-80589000I249999J0D01*
G01*
X173129001Y-80589000D01*
G75*
G02*
X173379000Y-80838999I0J-249999D01*
G01*
X173379000Y-81739001D01*
G75*
G02*
X173129001Y-81989000I-249999J0D01*
G01*
X172478999Y-81989000D01*
G75*
G02*
X172229000Y-81739001I0J249999D01*
G01*
G37*
G36*
G01*
X171600999Y-85676000D02*
X172501001Y-85676000D01*
G75*
G02*
X172751000Y-85925999I0J-249999D01*
G01*
X172751000Y-86576001D01*
G75*
G02*
X172501001Y-86826000I-249999J0D01*
G01*
X171600999Y-86826000D01*
G75*
G02*
X171351000Y-86576001I0J249999D01*
G01*
X171351000Y-85925999D01*
G75*
G02*
X171600999Y-85676000I249999J0D01*
G01*
G37*
G36*
G01*
X171600999Y-83626000D02*
X172501001Y-83626000D01*
G75*
G02*
X172751000Y-83875999I0J-249999D01*
G01*
X172751000Y-84526001D01*
G75*
G02*
X172501001Y-84776000I-249999J0D01*
G01*
X171600999Y-84776000D01*
G75*
G02*
X171351000Y-84526001I0J249999D01*
G01*
X171351000Y-83875999D01*
G75*
G02*
X171600999Y-83626000I249999J0D01*
G01*
G37*
G36*
G01*
X176692000Y-68658001D02*
X176692000Y-67757999D01*
G75*
G02*
X176941999Y-67508000I249999J0D01*
G01*
X177592001Y-67508000D01*
G75*
G02*
X177842000Y-67757999I0J-249999D01*
G01*
X177842000Y-68658001D01*
G75*
G02*
X177592001Y-68908000I-249999J0D01*
G01*
X176941999Y-68908000D01*
G75*
G02*
X176692000Y-68658001I0J249999D01*
G01*
G37*
G36*
G01*
X174642000Y-68658001D02*
X174642000Y-67757999D01*
G75*
G02*
X174891999Y-67508000I249999J0D01*
G01*
X175542001Y-67508000D01*
G75*
G02*
X175792000Y-67757999I0J-249999D01*
G01*
X175792000Y-68658001D01*
G75*
G02*
X175542001Y-68908000I-249999J0D01*
G01*
X174891999Y-68908000D01*
G75*
G02*
X174642000Y-68658001I0J249999D01*
G01*
G37*
G36*
G01*
X153440000Y-78933999D02*
X153440000Y-79834001D01*
G75*
G02*
X153190001Y-80084000I-249999J0D01*
G01*
X152539999Y-80084000D01*
G75*
G02*
X152290000Y-79834001I0J249999D01*
G01*
X152290000Y-78933999D01*
G75*
G02*
X152539999Y-78684000I249999J0D01*
G01*
X153190001Y-78684000D01*
G75*
G02*
X153440000Y-78933999I0J-249999D01*
G01*
G37*
G36*
G01*
X155490000Y-78933999D02*
X155490000Y-79834001D01*
G75*
G02*
X155240001Y-80084000I-249999J0D01*
G01*
X154589999Y-80084000D01*
G75*
G02*
X154340000Y-79834001I0J249999D01*
G01*
X154340000Y-78933999D01*
G75*
G02*
X154589999Y-78684000I249999J0D01*
G01*
X155240001Y-78684000D01*
G75*
G02*
X155490000Y-78933999I0J-249999D01*
G01*
G37*
G36*
G01*
X155356001Y-75886000D02*
X154455999Y-75886000D01*
G75*
G02*
X154206000Y-75636001I0J249999D01*
G01*
X154206000Y-74985999D01*
G75*
G02*
X154455999Y-74736000I249999J0D01*
G01*
X155356001Y-74736000D01*
G75*
G02*
X155606000Y-74985999I0J-249999D01*
G01*
X155606000Y-75636001D01*
G75*
G02*
X155356001Y-75886000I-249999J0D01*
G01*
G37*
G36*
G01*
X155356001Y-77936000D02*
X154455999Y-77936000D01*
G75*
G02*
X154206000Y-77686001I0J249999D01*
G01*
X154206000Y-77035999D01*
G75*
G02*
X154455999Y-76786000I249999J0D01*
G01*
X155356001Y-76786000D01*
G75*
G02*
X155606000Y-77035999I0J-249999D01*
G01*
X155606000Y-77686001D01*
G75*
G02*
X155356001Y-77936000I-249999J0D01*
G01*
G37*
G36*
G01*
X150276000Y-69420001D02*
X150276000Y-68519999D01*
G75*
G02*
X150525999Y-68270000I249999J0D01*
G01*
X151176001Y-68270000D01*
G75*
G02*
X151426000Y-68519999I0J-249999D01*
G01*
X151426000Y-69420001D01*
G75*
G02*
X151176001Y-69670000I-249999J0D01*
G01*
X150525999Y-69670000D01*
G75*
G02*
X150276000Y-69420001I0J249999D01*
G01*
G37*
G36*
G01*
X148226000Y-69420001D02*
X148226000Y-68519999D01*
G75*
G02*
X148475999Y-68270000I249999J0D01*
G01*
X149126001Y-68270000D01*
G75*
G02*
X149376000Y-68519999I0J-249999D01*
G01*
X149376000Y-69420001D01*
G75*
G02*
X149126001Y-69670000I-249999J0D01*
G01*
X148475999Y-69670000D01*
G75*
G02*
X148226000Y-69420001I0J249999D01*
G01*
G37*
G36*
G01*
X153070001Y-65472000D02*
X152169999Y-65472000D01*
G75*
G02*
X151920000Y-65222001I0J249999D01*
G01*
X151920000Y-64571999D01*
G75*
G02*
X152169999Y-64322000I249999J0D01*
G01*
X153070001Y-64322000D01*
G75*
G02*
X153320000Y-64571999I0J-249999D01*
G01*
X153320000Y-65222001D01*
G75*
G02*
X153070001Y-65472000I-249999J0D01*
G01*
G37*
G36*
G01*
X153070001Y-67522000D02*
X152169999Y-67522000D01*
G75*
G02*
X151920000Y-67272001I0J249999D01*
G01*
X151920000Y-66621999D01*
G75*
G02*
X152169999Y-66372000I249999J0D01*
G01*
X153070001Y-66372000D01*
G75*
G02*
X153320000Y-66621999I0J-249999D01*
G01*
X153320000Y-67272001D01*
G75*
G02*
X153070001Y-67522000I-249999J0D01*
G01*
G37*
M02*
