M48
; DRILL file {KiCad (5.1.10)-1} date 10/14/21 22:18:18
; FORMAT={-:-/ absolute / metric / decimal}
; #@! TF.CreationDate,2021-10-14T22:18:18+02:00
; #@! TF.GenerationSoftware,Kicad,Pcbnew,(5.1.10)-1
; #@! TF.FileFunction,Plated,1,2,PTH
FMAT,2
METRIC
T1C0.300
T2C0.400
T3C0.500
T4C0.550
T5C0.889
T6C0.991
T7C1.000
T8C1.800
T9C2.032
T10C3.200
%
G90
G05
T1
X154.525Y-63.382
X156.938Y-98.053
X158.716Y-100.212
X158.843Y-75.955
X158.843Y-98.434
X162.907Y-93.354
X164.533Y-50.377
X167.352Y-93.227
X170.019Y-60.461
X171.416Y-60.461
X172.432Y-94.497
X173.194Y-54.873
X176.115Y-64.144
X176.623Y-61.858
X176.623Y-63.128
X177.258Y-64.144
X177.258Y-66.303
X177.918Y-54.644
X178.812Y-74.807
X178.929Y-73.146
X179.163Y-73.942
X179.163Y-75.574
X179.29Y-54.644
X180.306Y-68.462
X180.433Y-69.351
X180.56Y-73.161
X180.56Y-77.352
X180.56Y-112.658
X180.56Y-115.706
X180.784Y-73.948
X180.814Y-101.482
X180.814Y-103.26
X180.921Y-75.635
X180.941Y-78.114
X181.322Y-74.812
X181.322Y-76.422
X184.657Y-68.368
X184.814Y-77.073
X185.259Y-68.906
X186.91Y-65.414
X191.355Y-69.224
X194.276Y-72.399
X194.276Y-74.812
X199.737Y-58.683
X217.136Y-112.023
X219.371Y-110.067
X229.455Y-122.31
T2
X143.095Y-65.287
X145.0Y-65.287
X148.302Y-62.62
X152.112Y-68.716
X152.865Y-77.869
X153.382Y-76.641
X153.391Y-75.311
X153.636Y-69.732
X153.636Y-73.745
X153.743Y-65.678
X156.836Y-83.702
X158.106Y-87.055
X158.564Y-82.127
X159.061Y-71.398
X159.597Y-66.904
X160.875Y-133.486
X161.231Y-129.803
X161.421Y-113.204
X161.51Y-115.706
X162.526Y-129.676
X162.577Y-133.486
X167.238Y-87.271
X167.606Y-88.401
X168.241Y-87.639
X170.908Y-67.7
X171.467Y-82.33
X173.575Y-88.274
X173.6Y-86.293
X174.591Y-82.813
X176.496Y-106.156
X177.258Y-69.509
X178.655Y-82.94
X180.865Y-107.019
X184.827Y-72.374
X184.878Y-75.589
X186.856Y-82.105
X188.434Y-85.734
X190.06Y-83.651
X190.618Y-88.731
X193.26Y-77.098
X197.197Y-104.403
X197.451Y-107.197
X199.737Y-57.464
X199.737Y-58.683
X199.737Y-61.94
X199.762Y-54.058
X200.626Y-90.865
X201.845Y-89.392
X205.141Y-103.937
X205.371Y-101.182
X211.421Y-82.178
X211.751Y-133.08
X211.802Y-130.032
X213.326Y-84.413
X213.326Y-86.496
X214.596Y-141.106
X214.863Y-138.934
X215.307Y-80.654
X215.777Y-86.204
X217.66Y-55.619
X218.152Y-83.829
X221.581Y-90.484
X224.096Y-87.817
X228.947Y-109.229
X228.947Y-110.88
X228.947Y-112.404
X228.947Y-114.055
X228.972Y-128.812
X229.226Y-134.858
X229.455Y-122.31
X230.192Y-135.924
X230.217Y-139.201
X230.242Y-116.443
X230.242Y-123.326
X230.242Y-129.524
X230.242Y-129.524
X231.208Y-122.259
X231.258Y-134.756
X231.512Y-128.863
X234.154Y-105.546
X234.154Y-110.626
X234.281Y-106.689
X234.281Y-109.229
X238.853Y-75.32
X238.853Y-77.86
T3
X142.346Y-52.206
X142.346Y-143.646
X143.049Y-50.509
X143.049Y-53.903
X143.049Y-141.949
X143.049Y-145.343
X144.746Y-49.806
X144.746Y-54.606
X144.746Y-141.246
X144.746Y-146.046
X146.443Y-50.509
X146.443Y-53.903
X146.443Y-141.949
X146.443Y-145.343
X147.146Y-52.206
X147.146Y-143.646
X233.786Y-52.206
X233.786Y-143.646
X234.489Y-50.509
X234.489Y-53.903
X234.489Y-141.949
X234.489Y-145.343
X236.186Y-49.806
X236.186Y-54.606
X236.186Y-141.246
X236.186Y-146.046
X237.883Y-50.509
X237.883Y-53.903
X237.883Y-141.949
X237.883Y-145.343
X238.586Y-52.206
X238.586Y-143.646
T5
X227.042Y-62.366
X227.042Y-64.906
T6
X214.596Y-62.239
X214.596Y-64.779
X214.596Y-67.319
X214.596Y-69.859
X214.596Y-72.399
X222.216Y-62.239
X222.216Y-64.779
X222.216Y-67.319
X222.216Y-69.859
X222.216Y-72.399
T7
X147.21Y-128.457
X149.826Y-63.636
X149.826Y-66.176
X149.826Y-80.146
X149.826Y-82.686
X151.096Y-138.617
X152.315Y-109.356
X154.017Y-60.842
X156.557Y-60.842
X160.723Y-51.215
X160.723Y-53.755
X161.891Y-104.911
X161.891Y-107.451
X162.272Y-58.505
X162.272Y-61.045
X163.263Y-51.215
X163.263Y-53.755
X164.812Y-58.505
X164.812Y-61.045
X165.803Y-51.215
X165.803Y-53.755
X166.971Y-104.911
X166.971Y-107.451
X167.352Y-58.505
X167.352Y-61.045
X168.343Y-51.215
X168.343Y-53.755
X170.197Y-143.722
X170.832Y-132.216
X171.772Y-104.886
X171.772Y-107.426
X173.194Y-57.921
X173.194Y-60.461
X175.429Y-77.25
X175.937Y-113.115
X178.477Y-77.657
X180.357Y-144.891
X183.303Y-123.732
X183.481Y-94.167
X185.411Y-135.899
X188.942Y-118.322
X189.704Y-59.191
X189.704Y-63.636
X193.997Y-109.331
X194.276Y-58.683
X199.381Y-138.617
X201.286Y-64.256
X201.286Y-78.756
X202.404Y-128.838
X202.582Y-99.272
X203.786Y-78.756
X206.286Y-64.256
X206.286Y-78.756
X208.373Y-143.671
X210.837Y-107.883
X215.79Y-133.537
X215.942Y-88.782
X218.025Y-77.479
X218.025Y-80.019
X220.895Y-114.436
X221.835Y-77.479
X221.835Y-80.019
X225.645Y-77.479
X225.645Y-80.019
X231.157Y-101.736
X236.262Y-82.635
T9
X232.122Y-59.826
X232.122Y-69.986
T10
X144.746Y-52.206
X144.746Y-143.646
X236.186Y-52.206
X236.186Y-143.646
T3
X176.933Y-50.847G85X176.933Y-50.197
G05
X183.933Y-50.847G85X183.933Y-50.197
G05
X189.379Y-50.847G85X189.379Y-50.197
G05
X196.379Y-50.847G85X196.379Y-50.197
G05
T4
X178.083Y-53.222G85X177.783Y-53.222
G05
X183.083Y-53.222G85X182.783Y-53.222
G05
X190.529Y-53.222G85X190.229Y-53.222
G05
X195.529Y-53.222G85X195.229Y-53.222
G05
T7
X144.746Y-91.076G85X144.746Y-92.076
G05
X144.746Y-99.966G85X144.746Y-100.966
G05
X147.146Y-89.076G85X147.146Y-90.076
G05
X147.146Y-97.966G85X147.146Y-98.966
G05
X150.846Y-91.076G85X150.846Y-92.076
G05
X150.846Y-99.966G85X150.846Y-100.966
G05
X152.646Y-89.076G85X152.646Y-90.076
G05
X152.646Y-97.966G85X152.646Y-98.966
G05
X156.346Y-91.076G85X156.346Y-92.076
G05
X156.346Y-99.966G85X156.346Y-100.966
G05
T8
X198.086Y-70.856G85X198.086Y-71.656
G05
X209.486Y-70.856G85X209.486Y-71.656
G05
T0
M30
