%FSLAX45Y45*%
G04 Gerber Fmt 4.5, Leading zero omitted, Abs format (unit mm)*
G04 Created by KiCad (PCBNEW (5.1.10)-1) date 2021-10-14 22:19:22*
%MOMM*%
%LPD*%
G01*
G04 APERTURE LIST*
%TA.AperFunction,Profile*%
%ADD10C,0.038100*%
%TD*%
%ADD11C,0.200000*%
%ADD12C,0.300000*%
G04 APERTURE END LIST*
D10*
X14093600Y-4839600D02*
X14093600Y-14745600D01*
X23999600Y-4839600D02*
X14093600Y-4839600D01*
X23999600Y-14745600D02*
X23999600Y-4839600D01*
X14093600Y-14745600D02*
X23999600Y-14745600D01*
D11*
X15437500Y-6323200D02*
X15467500Y-6353200D01*
X15467500Y-6323200D02*
X15437500Y-6353200D01*
X15678800Y-9790300D02*
X15708800Y-9820300D01*
X15708800Y-9790300D02*
X15678800Y-9820300D01*
X15856600Y-10006200D02*
X15886600Y-10036200D01*
X15886600Y-10006200D02*
X15856600Y-10036200D01*
X15869300Y-7580500D02*
X15899300Y-7610500D01*
X15899300Y-7580500D02*
X15869300Y-7610500D01*
X15869300Y-9828400D02*
X15899300Y-9858400D01*
X15899300Y-9828400D02*
X15869300Y-9858400D01*
X16275700Y-9320400D02*
X16305700Y-9350400D01*
X16305700Y-9320400D02*
X16275700Y-9350400D01*
X16438260Y-5022720D02*
X16468260Y-5052720D01*
X16468260Y-5022720D02*
X16438260Y-5052720D01*
X16720200Y-9307700D02*
X16750200Y-9337700D01*
X16750200Y-9307700D02*
X16720200Y-9337700D01*
X16986900Y-6031100D02*
X17016900Y-6061100D01*
X17016900Y-6031100D02*
X16986900Y-6061100D01*
X17126600Y-6031100D02*
X17156600Y-6061100D01*
X17156600Y-6031100D02*
X17126600Y-6061100D01*
X17228200Y-9434700D02*
X17258200Y-9464700D01*
X17258200Y-9434700D02*
X17228200Y-9464700D01*
X17304400Y-5472300D02*
X17334400Y-5502300D01*
X17334400Y-5472300D02*
X17304400Y-5502300D01*
X17596500Y-6399400D02*
X17626500Y-6429400D01*
X17626500Y-6399400D02*
X17596500Y-6429400D01*
X17647300Y-6170800D02*
X17677300Y-6200800D01*
X17677300Y-6170800D02*
X17647300Y-6200800D01*
X17647300Y-6297800D02*
X17677300Y-6327800D01*
X17677300Y-6297800D02*
X17647300Y-6327800D01*
X17710800Y-6399400D02*
X17740800Y-6429400D01*
X17740800Y-6399400D02*
X17710800Y-6429400D01*
X17710800Y-6615300D02*
X17740800Y-6645300D01*
X17740800Y-6615300D02*
X17710800Y-6645300D01*
X17776840Y-5449440D02*
X17806840Y-5479440D01*
X17806840Y-5449440D02*
X17776840Y-5479440D01*
X17866248Y-7465692D02*
X17896248Y-7495692D01*
X17896248Y-7465692D02*
X17866248Y-7495692D01*
X17877932Y-7299576D02*
X17907932Y-7329576D01*
X17907932Y-7299576D02*
X17877932Y-7329576D01*
X17901300Y-7379200D02*
X17931300Y-7409200D01*
X17931300Y-7379200D02*
X17901300Y-7409200D01*
X17901300Y-7542400D02*
X17931300Y-7572400D01*
X17931300Y-7542400D02*
X17901300Y-7572400D01*
X17914000Y-5449440D02*
X17944000Y-5479440D01*
X17944000Y-5449440D02*
X17914000Y-5479440D01*
X18015600Y-6831200D02*
X18045600Y-6861200D01*
X18045600Y-6831200D02*
X18015600Y-6861200D01*
X18028300Y-6920100D02*
X18058300Y-6950100D01*
X18058300Y-6920100D02*
X18028300Y-6950100D01*
X18041000Y-7301100D02*
X18071000Y-7331100D01*
X18071000Y-7301100D02*
X18041000Y-7331100D01*
X18041000Y-7720200D02*
X18071000Y-7750200D01*
X18071000Y-7720200D02*
X18041000Y-7750200D01*
X18041000Y-11250800D02*
X18071000Y-11280800D01*
X18071000Y-11250800D02*
X18041000Y-11280800D01*
X18041000Y-11555600D02*
X18071000Y-11585600D01*
X18071000Y-11555600D02*
X18041000Y-11585600D01*
X18063352Y-7379840D02*
X18093352Y-7409840D01*
X18093352Y-7379840D02*
X18063352Y-7409840D01*
X18066400Y-10133200D02*
X18096400Y-10163200D01*
X18096400Y-10133200D02*
X18066400Y-10163200D01*
X18066400Y-10311000D02*
X18096400Y-10341000D01*
X18096400Y-10311000D02*
X18066400Y-10341000D01*
X18077068Y-7548496D02*
X18107068Y-7578496D01*
X18107068Y-7548496D02*
X18077068Y-7578496D01*
X18079100Y-7796400D02*
X18109100Y-7826400D01*
X18109100Y-7796400D02*
X18079100Y-7826400D01*
X18117200Y-7466200D02*
X18147200Y-7496200D01*
X18147200Y-7466200D02*
X18117200Y-7496200D01*
X18117200Y-7627236D02*
X18147200Y-7657236D01*
X18147200Y-7627236D02*
X18117200Y-7657236D01*
X18450675Y-6821775D02*
X18480675Y-6851775D01*
X18480675Y-6821775D02*
X18450675Y-6851775D01*
X18466450Y-7692300D02*
X18496450Y-7722300D01*
X18496450Y-7692300D02*
X18466450Y-7722300D01*
X18510900Y-6875650D02*
X18540900Y-6905650D01*
X18540900Y-6875650D02*
X18510900Y-6905650D01*
X18676000Y-6526400D02*
X18706000Y-6556400D01*
X18706000Y-6526400D02*
X18676000Y-6556400D01*
X19120500Y-6907400D02*
X19150500Y-6937400D01*
X19150500Y-6907400D02*
X19120500Y-6937400D01*
X19412600Y-7224900D02*
X19442600Y-7254900D01*
X19442600Y-7224900D02*
X19412600Y-7254900D01*
X19412600Y-7466200D02*
X19442600Y-7496200D01*
X19442600Y-7466200D02*
X19412600Y-7496200D01*
X19958700Y-5853300D02*
X19988700Y-5883300D01*
X19988700Y-5853300D02*
X19958700Y-5883300D01*
X21698600Y-11187300D02*
X21728600Y-11217300D01*
X21728600Y-11187300D02*
X21698600Y-11217300D01*
X21922120Y-10991720D02*
X21952120Y-11021720D01*
X21952120Y-10991720D02*
X21922120Y-11021720D01*
X22930500Y-12216000D02*
X22960500Y-12246000D01*
X22960500Y-12216000D02*
X22930500Y-12246000D01*
X14329500Y-6528700D02*
G75*
G03*
X14329500Y-6528700I-20000J0D01*
G01*
X14520000Y-6528700D02*
G75*
G03*
X14520000Y-6528700I-20000J0D01*
G01*
X14850200Y-6262000D02*
G75*
G03*
X14850200Y-6262000I-20000J0D01*
G01*
X15231200Y-6871600D02*
G75*
G03*
X15231200Y-6871600I-20000J0D01*
G01*
X15306500Y-7786900D02*
G75*
G03*
X15306500Y-7786900I-20000J0D01*
G01*
X15358200Y-7664080D02*
G75*
G03*
X15358200Y-7664080I-20000J0D01*
G01*
X15359100Y-7531100D02*
G75*
G03*
X15359100Y-7531100I-20000J0D01*
G01*
X15383600Y-6973200D02*
G75*
G03*
X15383600Y-6973200I-20000J0D01*
G01*
X15383600Y-7374520D02*
G75*
G03*
X15383600Y-7374520I-20000J0D01*
G01*
X15394268Y-6567816D02*
G75*
G03*
X15394268Y-6567816I-20000J0D01*
G01*
X15703640Y-8370200D02*
G75*
G03*
X15703640Y-8370200I-20000J0D01*
G01*
X15830640Y-8705480D02*
G75*
G03*
X15830640Y-8705480I-20000J0D01*
G01*
X15876360Y-8212720D02*
G75*
G03*
X15876360Y-8212720I-20000J0D01*
G01*
X15926144Y-7139824D02*
G75*
G03*
X15926144Y-7139824I-20000J0D01*
G01*
X15979728Y-6690414D02*
G75*
G03*
X15979728Y-6690414I-20000J0D01*
G01*
X16107500Y-13348600D02*
G75*
G03*
X16107500Y-13348600I-20000J0D01*
G01*
X16143060Y-12980300D02*
G75*
G03*
X16143060Y-12980300I-20000J0D01*
G01*
X16162110Y-11320410D02*
G75*
G03*
X16162110Y-11320410I-20000J0D01*
G01*
X16171000Y-11570600D02*
G75*
G03*
X16171000Y-11570600I-20000J0D01*
G01*
X16272600Y-12967600D02*
G75*
G03*
X16272600Y-12967600I-20000J0D01*
G01*
X16277680Y-13348600D02*
G75*
G03*
X16277680Y-13348600I-20000J0D01*
G01*
X16743770Y-8727070D02*
G75*
G03*
X16743770Y-8727070I-20000J0D01*
G01*
X16780600Y-8840100D02*
G75*
G03*
X16780600Y-8840100I-20000J0D01*
G01*
X16844100Y-8763900D02*
G75*
G03*
X16844100Y-8763900I-20000J0D01*
G01*
X17110800Y-6770000D02*
G75*
G03*
X17110800Y-6770000I-20000J0D01*
G01*
X17166680Y-8233040D02*
G75*
G03*
X17166680Y-8233040I-20000J0D01*
G01*
X17377500Y-8827400D02*
G75*
G03*
X17377500Y-8827400I-20000J0D01*
G01*
X17380040Y-8629280D02*
G75*
G03*
X17380040Y-8629280I-20000J0D01*
G01*
X17479100Y-8281300D02*
G75*
G03*
X17479100Y-8281300I-20000J0D01*
G01*
X17669600Y-10615560D02*
G75*
G03*
X17669600Y-10615560I-20000J0D01*
G01*
X17745800Y-6950901D02*
G75*
G03*
X17745800Y-6950901I-20000J0D01*
G01*
X17885500Y-8294000D02*
G75*
G03*
X17885500Y-8294000I-20000J0D01*
G01*
X18106480Y-10701920D02*
G75*
G03*
X18106480Y-10701920I-20000J0D01*
G01*
X18502720Y-7237360D02*
G75*
G03*
X18502720Y-7237360I-20000J0D01*
G01*
X18507800Y-7558900D02*
G75*
G03*
X18507800Y-7558900I-20000J0D01*
G01*
X18705650Y-8210450D02*
G75*
G03*
X18705650Y-8210450I-20000J0D01*
G01*
X18863400Y-8573400D02*
G75*
G03*
X18863400Y-8573400I-20000J0D01*
G01*
X19025960Y-8365120D02*
G75*
G03*
X19025960Y-8365120I-20000J0D01*
G01*
X19081840Y-8873120D02*
G75*
G03*
X19081840Y-8873120I-20000J0D01*
G01*
X19346000Y-7709800D02*
G75*
G03*
X19346000Y-7709800I-20000J0D01*
G01*
X19739700Y-10440300D02*
G75*
G03*
X19739700Y-10440300I-20000J0D01*
G01*
X19765100Y-10719700D02*
G75*
G03*
X19765100Y-10719700I-20000J0D01*
G01*
X19993700Y-5746380D02*
G75*
G03*
X19993700Y-5746380I-20000J0D01*
G01*
X19993700Y-5868300D02*
G75*
G03*
X19993700Y-5868300I-20000J0D01*
G01*
X19993700Y-6193962D02*
G75*
G03*
X19993700Y-6193962I-20000J0D01*
G01*
X19996240Y-5405800D02*
G75*
G03*
X19996240Y-5405800I-20000J0D01*
G01*
X20082600Y-9086480D02*
G75*
G03*
X20082600Y-9086480I-20000J0D01*
G01*
X20204520Y-8939160D02*
G75*
G03*
X20204520Y-8939160I-20000J0D01*
G01*
X20534099Y-10393666D02*
G75*
G03*
X20534099Y-10393666I-20000J0D01*
G01*
X20557100Y-10118200D02*
G75*
G03*
X20557100Y-10118200I-20000J0D01*
G01*
X21162100Y-8217800D02*
G75*
G03*
X21162100Y-8217800I-20000J0D01*
G01*
X21195120Y-13307960D02*
G75*
G03*
X21195120Y-13307960I-20000J0D01*
G01*
X21200200Y-13003160D02*
G75*
G03*
X21200200Y-13003160I-20000J0D01*
G01*
X21352600Y-8441320D02*
G75*
G03*
X21352600Y-8441320I-20000J0D01*
G01*
X21352600Y-8649600D02*
G75*
G03*
X21352600Y-8649600I-20000J0D01*
G01*
X21479600Y-14110600D02*
G75*
G03*
X21479600Y-14110600I-20000J0D01*
G01*
X21506270Y-13893430D02*
G75*
G03*
X21506270Y-13893430I-20000J0D01*
G01*
X21550720Y-8065400D02*
G75*
G03*
X21550720Y-8065400I-20000J0D01*
G01*
X21597710Y-8620390D02*
G75*
G03*
X21597710Y-8620390I-20000J0D01*
G01*
X21786000Y-5561900D02*
G75*
G03*
X21786000Y-5561900I-20000J0D01*
G01*
X21835200Y-8382900D02*
G75*
G03*
X21835200Y-8382900I-20000J0D01*
G01*
X22178100Y-9048380D02*
G75*
G03*
X22178100Y-9048380I-20000J0D01*
G01*
X22429560Y-8781680D02*
G75*
G03*
X22429560Y-8781680I-20000J0D01*
G01*
X22914700Y-10922900D02*
G75*
G03*
X22914700Y-10922900I-20000J0D01*
G01*
X22914700Y-11088000D02*
G75*
G03*
X22914700Y-11088000I-20000J0D01*
G01*
X22914700Y-11240400D02*
G75*
G03*
X22914700Y-11240400I-20000J0D01*
G01*
X22914700Y-11405500D02*
G75*
G03*
X22914700Y-11405500I-20000J0D01*
G01*
X22917240Y-12881240D02*
G75*
G03*
X22917240Y-12881240I-20000J0D01*
G01*
X22942640Y-13485760D02*
G75*
G03*
X22942640Y-13485760I-20000J0D01*
G01*
X22965500Y-12231000D02*
G75*
G03*
X22965500Y-12231000I-20000J0D01*
G01*
X23039160Y-13592440D02*
G75*
G03*
X23039160Y-13592440I-20000J0D01*
G01*
X23041700Y-13920100D02*
G75*
G03*
X23041700Y-13920100I-20000J0D01*
G01*
X23044240Y-11644260D02*
G75*
G03*
X23044240Y-11644260I-20000J0D01*
G01*
X23044240Y-12332600D02*
G75*
G03*
X23044240Y-12332600I-20000J0D01*
G01*
X23044240Y-12952360D02*
G75*
G03*
X23044240Y-12952360I-20000J0D01*
G01*
X23044240Y-12952360D02*
G75*
G03*
X23044240Y-12952360I-20000J0D01*
G01*
X23140760Y-12225920D02*
G75*
G03*
X23140760Y-12225920I-20000J0D01*
G01*
X23145840Y-13475600D02*
G75*
G03*
X23145840Y-13475600I-20000J0D01*
G01*
X23171240Y-12886320D02*
G75*
G03*
X23171240Y-12886320I-20000J0D01*
G01*
X23435400Y-10554600D02*
G75*
G03*
X23435400Y-10554600I-20000J0D01*
G01*
X23435400Y-11062600D02*
G75*
G03*
X23435400Y-11062600I-20000J0D01*
G01*
X23448100Y-10668900D02*
G75*
G03*
X23448100Y-10668900I-20000J0D01*
G01*
X23448100Y-10922900D02*
G75*
G03*
X23448100Y-10922900I-20000J0D01*
G01*
X23905300Y-7532000D02*
G75*
G03*
X23905300Y-7532000I-20000J0D01*
G01*
X23905300Y-7786000D02*
G75*
G03*
X23905300Y-7786000I-20000J0D01*
G01*
X14234600Y-5195600D02*
X14234600Y-5245600D01*
X14209600Y-5220600D02*
X14259600Y-5220600D01*
X14234600Y-14339600D02*
X14234600Y-14389600D01*
X14209600Y-14364600D02*
X14259600Y-14364600D01*
X14304894Y-5025894D02*
X14304894Y-5075894D01*
X14279894Y-5050894D02*
X14329894Y-5050894D01*
X14304894Y-5365306D02*
X14304894Y-5415306D01*
X14279894Y-5390306D02*
X14329894Y-5390306D01*
X14304894Y-14169894D02*
X14304894Y-14219894D01*
X14279894Y-14194894D02*
X14329894Y-14194894D01*
X14304894Y-14509306D02*
X14304894Y-14559306D01*
X14279894Y-14534306D02*
X14329894Y-14534306D01*
X14474600Y-4955600D02*
X14474600Y-5005600D01*
X14449600Y-4980600D02*
X14499600Y-4980600D01*
X14474600Y-5435600D02*
X14474600Y-5485600D01*
X14449600Y-5460600D02*
X14499600Y-5460600D01*
X14474600Y-14099600D02*
X14474600Y-14149600D01*
X14449600Y-14124600D02*
X14499600Y-14124600D01*
X14474600Y-14579600D02*
X14474600Y-14629600D01*
X14449600Y-14604600D02*
X14499600Y-14604600D01*
X14644306Y-5025894D02*
X14644306Y-5075894D01*
X14619306Y-5050894D02*
X14669306Y-5050894D01*
X14644306Y-5365306D02*
X14644306Y-5415306D01*
X14619306Y-5390306D02*
X14669306Y-5390306D01*
X14644306Y-14169894D02*
X14644306Y-14219894D01*
X14619306Y-14194894D02*
X14669306Y-14194894D01*
X14644306Y-14509306D02*
X14644306Y-14559306D01*
X14619306Y-14534306D02*
X14669306Y-14534306D01*
X14714600Y-5195600D02*
X14714600Y-5245600D01*
X14689600Y-5220600D02*
X14739600Y-5220600D01*
X14714600Y-14339600D02*
X14714600Y-14389600D01*
X14689600Y-14364600D02*
X14739600Y-14364600D01*
X17693300Y-5027200D02*
X17693300Y-5077200D01*
X17668300Y-5052200D02*
X17718300Y-5052200D01*
X17708300Y-5084700D02*
X17708300Y-5019700D01*
X17678300Y-5084700D02*
X17678300Y-5019700D01*
X17708300Y-5019700D02*
G75*
G03*
X17678300Y-5019700I-15000J0D01*
G01*
X17678300Y-5084700D02*
G75*
G03*
X17708300Y-5084700I15000J0D01*
G01*
X18393300Y-5027200D02*
X18393300Y-5077200D01*
X18368300Y-5052200D02*
X18418300Y-5052200D01*
X18408300Y-5084700D02*
X18408300Y-5019700D01*
X18378300Y-5084700D02*
X18378300Y-5019700D01*
X18408300Y-5019700D02*
G75*
G03*
X18378300Y-5019700I-15000J0D01*
G01*
X18378300Y-5084700D02*
G75*
G03*
X18408300Y-5084700I15000J0D01*
G01*
X18937900Y-5027200D02*
X18937900Y-5077200D01*
X18912900Y-5052200D02*
X18962900Y-5052200D01*
X18952900Y-5084700D02*
X18952900Y-5019700D01*
X18922900Y-5084700D02*
X18922900Y-5019700D01*
X18952900Y-5019700D02*
G75*
G03*
X18922900Y-5019700I-15000J0D01*
G01*
X18922900Y-5084700D02*
G75*
G03*
X18952900Y-5084700I15000J0D01*
G01*
X19637900Y-5027200D02*
X19637900Y-5077200D01*
X19612900Y-5052200D02*
X19662900Y-5052200D01*
X19652900Y-5084700D02*
X19652900Y-5019700D01*
X19622900Y-5084700D02*
X19622900Y-5019700D01*
X19652900Y-5019700D02*
G75*
G03*
X19622900Y-5019700I-15000J0D01*
G01*
X19622900Y-5084700D02*
G75*
G03*
X19652900Y-5084700I15000J0D01*
G01*
X23378600Y-5195600D02*
X23378600Y-5245600D01*
X23353600Y-5220600D02*
X23403600Y-5220600D01*
X23378600Y-14339600D02*
X23378600Y-14389600D01*
X23353600Y-14364600D02*
X23403600Y-14364600D01*
X23448894Y-5025894D02*
X23448894Y-5075894D01*
X23423894Y-5050894D02*
X23473894Y-5050894D01*
X23448894Y-5365306D02*
X23448894Y-5415306D01*
X23423894Y-5390306D02*
X23473894Y-5390306D01*
X23448894Y-14169894D02*
X23448894Y-14219894D01*
X23423894Y-14194894D02*
X23473894Y-14194894D01*
X23448894Y-14509306D02*
X23448894Y-14559306D01*
X23423894Y-14534306D02*
X23473894Y-14534306D01*
X23618600Y-4955600D02*
X23618600Y-5005600D01*
X23593600Y-4980600D02*
X23643600Y-4980600D01*
X23618600Y-5435600D02*
X23618600Y-5485600D01*
X23593600Y-5460600D02*
X23643600Y-5460600D01*
X23618600Y-14099600D02*
X23618600Y-14149600D01*
X23593600Y-14124600D02*
X23643600Y-14124600D01*
X23618600Y-14579600D02*
X23618600Y-14629600D01*
X23593600Y-14604600D02*
X23643600Y-14604600D01*
X23788306Y-5025894D02*
X23788306Y-5075894D01*
X23763306Y-5050894D02*
X23813306Y-5050894D01*
X23788306Y-5365306D02*
X23788306Y-5415306D01*
X23763306Y-5390306D02*
X23813306Y-5390306D01*
X23788306Y-14169894D02*
X23788306Y-14219894D01*
X23763306Y-14194894D02*
X23813306Y-14194894D01*
X23788306Y-14509306D02*
X23788306Y-14559306D01*
X23763306Y-14534306D02*
X23813306Y-14534306D01*
X23858600Y-5195600D02*
X23858600Y-5245600D01*
X23833600Y-5220600D02*
X23883600Y-5220600D01*
X23858600Y-14339600D02*
X23858600Y-14389600D01*
X23833600Y-14364600D02*
X23883600Y-14364600D01*
X17812746Y-5341646D02*
X17812746Y-5302754D01*
X17773854Y-5302754D01*
X17773854Y-5341646D01*
X17812746Y-5341646D01*
X17808300Y-5304700D02*
X17778300Y-5304700D01*
X17808300Y-5339700D02*
X17778300Y-5339700D01*
X17778300Y-5304700D02*
G75*
G03*
X17778300Y-5339700I0J-17500D01*
G01*
X17808300Y-5339700D02*
G75*
G03*
X17808300Y-5304700I0J17500D01*
G01*
X18312746Y-5341646D02*
X18312746Y-5302754D01*
X18273854Y-5302754D01*
X18273854Y-5341646D01*
X18312746Y-5341646D01*
X18308300Y-5304700D02*
X18278300Y-5304700D01*
X18308300Y-5339700D02*
X18278300Y-5339700D01*
X18278300Y-5304700D02*
G75*
G03*
X18278300Y-5339700I0J-17500D01*
G01*
X18308300Y-5339700D02*
G75*
G03*
X18308300Y-5304700I0J17500D01*
G01*
X19057346Y-5341646D02*
X19057346Y-5302754D01*
X19018454Y-5302754D01*
X19018454Y-5341646D01*
X19057346Y-5341646D01*
X19052900Y-5304700D02*
X19022900Y-5304700D01*
X19052900Y-5339700D02*
X19022900Y-5339700D01*
X19022900Y-5304700D02*
G75*
G03*
X19022900Y-5339700I0J-17500D01*
G01*
X19052900Y-5339700D02*
G75*
G03*
X19052900Y-5304700I0J17500D01*
G01*
X19557346Y-5341646D02*
X19557346Y-5302754D01*
X19518454Y-5302754D01*
X19518454Y-5341646D01*
X19557346Y-5341646D01*
X19552900Y-5304700D02*
X19522900Y-5304700D01*
X19552900Y-5339700D02*
X19522900Y-5339700D01*
X19522900Y-5304700D02*
G75*
G03*
X19522900Y-5339700I0J-17500D01*
G01*
X19552900Y-5339700D02*
G75*
G03*
X19552900Y-5304700I0J17500D01*
G01*
X22704200Y-6281050D02*
X22748650Y-6236600D01*
X22704200Y-6192150D01*
X22659750Y-6236600D01*
X22704200Y-6281050D01*
X22704200Y-6535050D02*
X22748650Y-6490600D01*
X22704200Y-6446150D01*
X22659750Y-6490600D01*
X22704200Y-6535050D01*
X21410070Y-6174370D02*
X21509130Y-6273430D01*
X21509130Y-6174370D02*
X21410070Y-6273430D01*
X21509130Y-6223900D02*
G75*
G03*
X21509130Y-6223900I-49530J0D01*
G01*
X21410070Y-6428370D02*
X21509130Y-6527430D01*
X21509130Y-6428370D02*
X21410070Y-6527430D01*
X21509130Y-6477900D02*
G75*
G03*
X21509130Y-6477900I-49530J0D01*
G01*
X21410070Y-6682370D02*
X21509130Y-6781430D01*
X21509130Y-6682370D02*
X21410070Y-6781430D01*
X21509130Y-6731900D02*
G75*
G03*
X21509130Y-6731900I-49530J0D01*
G01*
X21410070Y-6936370D02*
X21509130Y-7035430D01*
X21509130Y-6936370D02*
X21410070Y-7035430D01*
X21509130Y-6985900D02*
G75*
G03*
X21509130Y-6985900I-49530J0D01*
G01*
X21410070Y-7190370D02*
X21509130Y-7289430D01*
X21509130Y-7190370D02*
X21410070Y-7289430D01*
X21509130Y-7239900D02*
G75*
G03*
X21509130Y-7239900I-49530J0D01*
G01*
X22172070Y-6174370D02*
X22271130Y-6273430D01*
X22271130Y-6174370D02*
X22172070Y-6273430D01*
X22271130Y-6223900D02*
G75*
G03*
X22271130Y-6223900I-49530J0D01*
G01*
X22172070Y-6428370D02*
X22271130Y-6527430D01*
X22271130Y-6428370D02*
X22172070Y-6527430D01*
X22271130Y-6477900D02*
G75*
G03*
X22271130Y-6477900I-49530J0D01*
G01*
X22172070Y-6682370D02*
X22271130Y-6781430D01*
X22271130Y-6682370D02*
X22172070Y-6781430D01*
X22271130Y-6731900D02*
G75*
G03*
X22271130Y-6731900I-49530J0D01*
G01*
X22172070Y-6936370D02*
X22271130Y-7035430D01*
X22271130Y-6936370D02*
X22172070Y-7035430D01*
X22271130Y-6985900D02*
G75*
G03*
X22271130Y-6985900I-49530J0D01*
G01*
X22172070Y-7190370D02*
X22271130Y-7289430D01*
X22271130Y-7190370D02*
X22172070Y-7289430D01*
X22271130Y-7239900D02*
G75*
G03*
X22271130Y-7239900I-49530J0D01*
G01*
X14424600Y-9107600D02*
X14524600Y-9207600D01*
X14524600Y-9107600D02*
X14424600Y-9207600D01*
X14474600Y-9107600D02*
X14474600Y-9207600D01*
X14424600Y-9157600D02*
X14524600Y-9157600D01*
X14434600Y-9107600D02*
X14434600Y-9207600D01*
X14514600Y-9107600D02*
X14514600Y-9207600D01*
X14434600Y-9207600D02*
G75*
G03*
X14514600Y-9207600I40000J0D01*
G01*
X14514600Y-9107600D02*
G75*
G03*
X14434600Y-9107600I-40000J0D01*
G01*
X14424600Y-9996600D02*
X14524600Y-10096600D01*
X14524600Y-9996600D02*
X14424600Y-10096600D01*
X14474600Y-9996600D02*
X14474600Y-10096600D01*
X14424600Y-10046600D02*
X14524600Y-10046600D01*
X14434600Y-9996600D02*
X14434600Y-10096600D01*
X14514600Y-9996600D02*
X14514600Y-10096600D01*
X14434600Y-10096600D02*
G75*
G03*
X14514600Y-10096600I40000J0D01*
G01*
X14514600Y-9996600D02*
G75*
G03*
X14434600Y-9996600I-40000J0D01*
G01*
X14664600Y-8907600D02*
X14764600Y-9007600D01*
X14764600Y-8907600D02*
X14664600Y-9007600D01*
X14714600Y-8907600D02*
X14714600Y-9007600D01*
X14664600Y-8957600D02*
X14764600Y-8957600D01*
X14674600Y-8907600D02*
X14674600Y-9007600D01*
X14754600Y-8907600D02*
X14754600Y-9007600D01*
X14674600Y-9007600D02*
G75*
G03*
X14754600Y-9007600I40000J0D01*
G01*
X14754600Y-8907600D02*
G75*
G03*
X14674600Y-8907600I-40000J0D01*
G01*
X14664600Y-9796600D02*
X14764600Y-9896600D01*
X14764600Y-9796600D02*
X14664600Y-9896600D01*
X14714600Y-9796600D02*
X14714600Y-9896600D01*
X14664600Y-9846600D02*
X14764600Y-9846600D01*
X14674600Y-9796600D02*
X14674600Y-9896600D01*
X14754600Y-9796600D02*
X14754600Y-9896600D01*
X14674600Y-9896600D02*
G75*
G03*
X14754600Y-9896600I40000J0D01*
G01*
X14754600Y-9796600D02*
G75*
G03*
X14674600Y-9796600I-40000J0D01*
G01*
X14670980Y-12795680D02*
X14770980Y-12895680D01*
X14770980Y-12795680D02*
X14670980Y-12895680D01*
X14720980Y-12795680D02*
X14720980Y-12895680D01*
X14670980Y-12845680D02*
X14770980Y-12845680D01*
X14932600Y-6313600D02*
X15032600Y-6413600D01*
X15032600Y-6313600D02*
X14932600Y-6413600D01*
X14982600Y-6313600D02*
X14982600Y-6413600D01*
X14932600Y-6363600D02*
X15032600Y-6363600D01*
X14932600Y-6567600D02*
X15032600Y-6667600D01*
X15032600Y-6567600D02*
X14932600Y-6667600D01*
X14982600Y-6567600D02*
X14982600Y-6667600D01*
X14932600Y-6617600D02*
X15032600Y-6617600D01*
X14932600Y-7964600D02*
X15032600Y-8064600D01*
X15032600Y-7964600D02*
X14932600Y-8064600D01*
X14982600Y-7964600D02*
X14982600Y-8064600D01*
X14932600Y-8014600D02*
X15032600Y-8014600D01*
X14932600Y-8218600D02*
X15032600Y-8318600D01*
X15032600Y-8218600D02*
X14932600Y-8318600D01*
X14982600Y-8218600D02*
X14982600Y-8318600D01*
X14932600Y-8268600D02*
X15032600Y-8268600D01*
X15034600Y-9107600D02*
X15134600Y-9207600D01*
X15134600Y-9107600D02*
X15034600Y-9207600D01*
X15084600Y-9107600D02*
X15084600Y-9207600D01*
X15034600Y-9157600D02*
X15134600Y-9157600D01*
X15044600Y-9107600D02*
X15044600Y-9207600D01*
X15124600Y-9107600D02*
X15124600Y-9207600D01*
X15044600Y-9207600D02*
G75*
G03*
X15124600Y-9207600I40000J0D01*
G01*
X15124600Y-9107600D02*
G75*
G03*
X15044600Y-9107600I-40000J0D01*
G01*
X15034600Y-9996600D02*
X15134600Y-10096600D01*
X15134600Y-9996600D02*
X15034600Y-10096600D01*
X15084600Y-9996600D02*
X15084600Y-10096600D01*
X15034600Y-10046600D02*
X15134600Y-10046600D01*
X15044600Y-9996600D02*
X15044600Y-10096600D01*
X15124600Y-9996600D02*
X15124600Y-10096600D01*
X15044600Y-10096600D02*
G75*
G03*
X15124600Y-10096600I40000J0D01*
G01*
X15124600Y-9996600D02*
G75*
G03*
X15044600Y-9996600I-40000J0D01*
G01*
X15059600Y-13811680D02*
X15159600Y-13911680D01*
X15159600Y-13811680D02*
X15059600Y-13911680D01*
X15109600Y-13811680D02*
X15109600Y-13911680D01*
X15059600Y-13861680D02*
X15159600Y-13861680D01*
X15181520Y-10885600D02*
X15281520Y-10985600D01*
X15281520Y-10885600D02*
X15181520Y-10985600D01*
X15231520Y-10885600D02*
X15231520Y-10985600D01*
X15181520Y-10935600D02*
X15281520Y-10935600D01*
X15214600Y-8907600D02*
X15314600Y-9007600D01*
X15314600Y-8907600D02*
X15214600Y-9007600D01*
X15264600Y-8907600D02*
X15264600Y-9007600D01*
X15214600Y-8957600D02*
X15314600Y-8957600D01*
X15224600Y-8907600D02*
X15224600Y-9007600D01*
X15304600Y-8907600D02*
X15304600Y-9007600D01*
X15224600Y-9007600D02*
G75*
G03*
X15304600Y-9007600I40000J0D01*
G01*
X15304600Y-8907600D02*
G75*
G03*
X15224600Y-8907600I-40000J0D01*
G01*
X15214600Y-9796600D02*
X15314600Y-9896600D01*
X15314600Y-9796600D02*
X15214600Y-9896600D01*
X15264600Y-9796600D02*
X15264600Y-9896600D01*
X15214600Y-9846600D02*
X15314600Y-9846600D01*
X15224600Y-9796600D02*
X15224600Y-9896600D01*
X15304600Y-9796600D02*
X15304600Y-9896600D01*
X15224600Y-9896600D02*
G75*
G03*
X15304600Y-9896600I40000J0D01*
G01*
X15304600Y-9796600D02*
G75*
G03*
X15224600Y-9796600I-40000J0D01*
G01*
X15351700Y-6034200D02*
X15451700Y-6134200D01*
X15451700Y-6034200D02*
X15351700Y-6134200D01*
X15401700Y-6034200D02*
X15401700Y-6134200D01*
X15351700Y-6084200D02*
X15451700Y-6084200D01*
X15584600Y-9107600D02*
X15684600Y-9207600D01*
X15684600Y-9107600D02*
X15584600Y-9207600D01*
X15634600Y-9107600D02*
X15634600Y-9207600D01*
X15584600Y-9157600D02*
X15684600Y-9157600D01*
X15594600Y-9107600D02*
X15594600Y-9207600D01*
X15674600Y-9107600D02*
X15674600Y-9207600D01*
X15594600Y-9207600D02*
G75*
G03*
X15674600Y-9207600I40000J0D01*
G01*
X15674600Y-9107600D02*
G75*
G03*
X15594600Y-9107600I-40000J0D01*
G01*
X15584600Y-9996600D02*
X15684600Y-10096600D01*
X15684600Y-9996600D02*
X15584600Y-10096600D01*
X15634600Y-9996600D02*
X15634600Y-10096600D01*
X15584600Y-10046600D02*
X15684600Y-10046600D01*
X15594600Y-9996600D02*
X15594600Y-10096600D01*
X15674600Y-9996600D02*
X15674600Y-10096600D01*
X15594600Y-10096600D02*
G75*
G03*
X15674600Y-10096600I40000J0D01*
G01*
X15674600Y-9996600D02*
G75*
G03*
X15594600Y-9996600I-40000J0D01*
G01*
X15605700Y-6034200D02*
X15705700Y-6134200D01*
X15705700Y-6034200D02*
X15605700Y-6134200D01*
X15655700Y-6034200D02*
X15655700Y-6134200D01*
X15605700Y-6084200D02*
X15705700Y-6084200D01*
X16022260Y-5071540D02*
X16122260Y-5171540D01*
X16122260Y-5071540D02*
X16022260Y-5171540D01*
X16072260Y-5071540D02*
X16072260Y-5171540D01*
X16022260Y-5121540D02*
X16122260Y-5121540D01*
X16022260Y-5325540D02*
X16122260Y-5425540D01*
X16122260Y-5325540D02*
X16022260Y-5425540D01*
X16072260Y-5325540D02*
X16072260Y-5425540D01*
X16022260Y-5375540D02*
X16122260Y-5375540D01*
X16139100Y-10441100D02*
X16239100Y-10541100D01*
X16239100Y-10441100D02*
X16139100Y-10541100D01*
X16189100Y-10441100D02*
X16189100Y-10541100D01*
X16139100Y-10491100D02*
X16239100Y-10491100D01*
X16139100Y-10695100D02*
X16239100Y-10795100D01*
X16239100Y-10695100D02*
X16139100Y-10795100D01*
X16189100Y-10695100D02*
X16189100Y-10795100D01*
X16139100Y-10745100D02*
X16239100Y-10745100D01*
X16177200Y-5800520D02*
X16277200Y-5900520D01*
X16277200Y-5800520D02*
X16177200Y-5900520D01*
X16227200Y-5800520D02*
X16227200Y-5900520D01*
X16177200Y-5850520D02*
X16277200Y-5850520D01*
X16177200Y-6054520D02*
X16277200Y-6154520D01*
X16277200Y-6054520D02*
X16177200Y-6154520D01*
X16227200Y-6054520D02*
X16227200Y-6154520D01*
X16177200Y-6104520D02*
X16277200Y-6104520D01*
X16276260Y-5071540D02*
X16376260Y-5171540D01*
X16376260Y-5071540D02*
X16276260Y-5171540D01*
X16326260Y-5071540D02*
X16326260Y-5171540D01*
X16276260Y-5121540D02*
X16376260Y-5121540D01*
X16276260Y-5325540D02*
X16376260Y-5425540D01*
X16376260Y-5325540D02*
X16276260Y-5425540D01*
X16326260Y-5325540D02*
X16326260Y-5425540D01*
X16276260Y-5375540D02*
X16376260Y-5375540D01*
X16431200Y-5800520D02*
X16531200Y-5900520D01*
X16531200Y-5800520D02*
X16431200Y-5900520D01*
X16481200Y-5800520D02*
X16481200Y-5900520D01*
X16431200Y-5850520D02*
X16531200Y-5850520D01*
X16431200Y-6054520D02*
X16531200Y-6154520D01*
X16531200Y-6054520D02*
X16431200Y-6154520D01*
X16481200Y-6054520D02*
X16481200Y-6154520D01*
X16431200Y-6104520D02*
X16531200Y-6104520D01*
X16530260Y-5071540D02*
X16630260Y-5171540D01*
X16630260Y-5071540D02*
X16530260Y-5171540D01*
X16580260Y-5071540D02*
X16580260Y-5171540D01*
X16530260Y-5121540D02*
X16630260Y-5121540D01*
X16530260Y-5325540D02*
X16630260Y-5425540D01*
X16630260Y-5325540D02*
X16530260Y-5425540D01*
X16580260Y-5325540D02*
X16580260Y-5425540D01*
X16530260Y-5375540D02*
X16630260Y-5375540D01*
X16647100Y-10441100D02*
X16747100Y-10541100D01*
X16747100Y-10441100D02*
X16647100Y-10541100D01*
X16697100Y-10441100D02*
X16697100Y-10541100D01*
X16647100Y-10491100D02*
X16747100Y-10491100D01*
X16647100Y-10695100D02*
X16747100Y-10795100D01*
X16747100Y-10695100D02*
X16647100Y-10795100D01*
X16697100Y-10695100D02*
X16697100Y-10795100D01*
X16647100Y-10745100D02*
X16747100Y-10745100D01*
X16685200Y-5800520D02*
X16785200Y-5900520D01*
X16785200Y-5800520D02*
X16685200Y-5900520D01*
X16735200Y-5800520D02*
X16735200Y-5900520D01*
X16685200Y-5850520D02*
X16785200Y-5850520D01*
X16685200Y-6054520D02*
X16785200Y-6154520D01*
X16785200Y-6054520D02*
X16685200Y-6154520D01*
X16735200Y-6054520D02*
X16735200Y-6154520D01*
X16685200Y-6104520D02*
X16785200Y-6104520D01*
X16784260Y-5071540D02*
X16884260Y-5171540D01*
X16884260Y-5071540D02*
X16784260Y-5171540D01*
X16834260Y-5071540D02*
X16834260Y-5171540D01*
X16784260Y-5121540D02*
X16884260Y-5121540D01*
X16784260Y-5325540D02*
X16884260Y-5425540D01*
X16884260Y-5325540D02*
X16784260Y-5425540D01*
X16834260Y-5325540D02*
X16834260Y-5425540D01*
X16784260Y-5375540D02*
X16884260Y-5375540D01*
X16969680Y-14322220D02*
X17069680Y-14422220D01*
X17069680Y-14322220D02*
X16969680Y-14422220D01*
X17019680Y-14322220D02*
X17019680Y-14422220D01*
X16969680Y-14372220D02*
X17069680Y-14372220D01*
X17033180Y-13171600D02*
X17133180Y-13271600D01*
X17133180Y-13171600D02*
X17033180Y-13271600D01*
X17083180Y-13171600D02*
X17083180Y-13271600D01*
X17033180Y-13221600D02*
X17133180Y-13221600D01*
X17127160Y-10438560D02*
X17227160Y-10538560D01*
X17227160Y-10438560D02*
X17127160Y-10538560D01*
X17177160Y-10438560D02*
X17177160Y-10538560D01*
X17127160Y-10488560D02*
X17227160Y-10488560D01*
X17127160Y-10692560D02*
X17227160Y-10792560D01*
X17227160Y-10692560D02*
X17127160Y-10792560D01*
X17177160Y-10692560D02*
X17177160Y-10792560D01*
X17127160Y-10742560D02*
X17227160Y-10742560D01*
X17269400Y-5742100D02*
X17369400Y-5842100D01*
X17369400Y-5742100D02*
X17269400Y-5842100D01*
X17319400Y-5742100D02*
X17319400Y-5842100D01*
X17269400Y-5792100D02*
X17369400Y-5792100D01*
X17269400Y-5996100D02*
X17369400Y-6096100D01*
X17369400Y-5996100D02*
X17269400Y-6096100D01*
X17319400Y-5996100D02*
X17319400Y-6096100D01*
X17269400Y-6046100D02*
X17369400Y-6046100D01*
X17492920Y-7675040D02*
X17592920Y-7775040D01*
X17592920Y-7675040D02*
X17492920Y-7775040D01*
X17542920Y-7675040D02*
X17542920Y-7775040D01*
X17492920Y-7725040D02*
X17592920Y-7725040D01*
X17543720Y-11261520D02*
X17643720Y-11361520D01*
X17643720Y-11261520D02*
X17543720Y-11361520D01*
X17593720Y-11261520D02*
X17593720Y-11361520D01*
X17543720Y-11311520D02*
X17643720Y-11311520D01*
X17797720Y-7715680D02*
X17897720Y-7815680D01*
X17897720Y-7715680D02*
X17797720Y-7815680D01*
X17847720Y-7715680D02*
X17847720Y-7815680D01*
X17797720Y-7765680D02*
X17897720Y-7765680D01*
X17985680Y-14439060D02*
X18085680Y-14539060D01*
X18085680Y-14439060D02*
X17985680Y-14539060D01*
X18035680Y-14439060D02*
X18035680Y-14539060D01*
X17985680Y-14489060D02*
X18085680Y-14489060D01*
X18280320Y-12323240D02*
X18380320Y-12423240D01*
X18380320Y-12323240D02*
X18280320Y-12423240D01*
X18330320Y-12323240D02*
X18330320Y-12423240D01*
X18280320Y-12373240D02*
X18380320Y-12373240D01*
X18298100Y-9366680D02*
X18398100Y-9466680D01*
X18398100Y-9366680D02*
X18298100Y-9466680D01*
X18348100Y-9366680D02*
X18348100Y-9466680D01*
X18298100Y-9416680D02*
X18398100Y-9416680D01*
X18491140Y-13539900D02*
X18591140Y-13639900D01*
X18591140Y-13539900D02*
X18491140Y-13639900D01*
X18541140Y-13539900D02*
X18541140Y-13639900D01*
X18491140Y-13589900D02*
X18591140Y-13589900D01*
X18844200Y-11782220D02*
X18944200Y-11882220D01*
X18944200Y-11782220D02*
X18844200Y-11882220D01*
X18894200Y-11782220D02*
X18894200Y-11882220D01*
X18844200Y-11832220D02*
X18944200Y-11832220D01*
X18920400Y-5869100D02*
X19020400Y-5969100D01*
X19020400Y-5869100D02*
X18920400Y-5969100D01*
X18970400Y-5869100D02*
X18970400Y-5969100D01*
X18920400Y-5919100D02*
X19020400Y-5919100D01*
X18920400Y-6313600D02*
X19020400Y-6413600D01*
X19020400Y-6313600D02*
X18920400Y-6413600D01*
X18970400Y-6313600D02*
X18970400Y-6413600D01*
X18920400Y-6363600D02*
X19020400Y-6363600D01*
X19349660Y-10883060D02*
X19449660Y-10983060D01*
X19449660Y-10883060D02*
X19349660Y-10983060D01*
X19399660Y-10883060D02*
X19399660Y-10983060D01*
X19349660Y-10933060D02*
X19449660Y-10933060D01*
X19377600Y-5818300D02*
X19477600Y-5918300D01*
X19477600Y-5818300D02*
X19377600Y-5918300D01*
X19427600Y-5818300D02*
X19427600Y-5918300D01*
X19377600Y-5868300D02*
X19477600Y-5868300D01*
X19888140Y-13811680D02*
X19988140Y-13911680D01*
X19988140Y-13811680D02*
X19888140Y-13911680D01*
X19938140Y-13811680D02*
X19938140Y-13911680D01*
X19888140Y-13861680D02*
X19988140Y-13861680D01*
X20078600Y-6375600D02*
X20178600Y-6475600D01*
X20178600Y-6375600D02*
X20078600Y-6475600D01*
X20128600Y-6375600D02*
X20128600Y-6475600D01*
X20078600Y-6425600D02*
X20178600Y-6425600D01*
X20078600Y-7825600D02*
X20178600Y-7925600D01*
X20178600Y-7825600D02*
X20078600Y-7925600D01*
X20128600Y-7825600D02*
X20128600Y-7925600D01*
X20078600Y-7875600D02*
X20178600Y-7875600D01*
X20190400Y-12833780D02*
X20290400Y-12933780D01*
X20290400Y-12833780D02*
X20190400Y-12933780D01*
X20240400Y-12833780D02*
X20240400Y-12933780D01*
X20190400Y-12883780D02*
X20290400Y-12883780D01*
X20208180Y-9877220D02*
X20308180Y-9977220D01*
X20308180Y-9877220D02*
X20208180Y-9977220D01*
X20258180Y-9877220D02*
X20258180Y-9977220D01*
X20208180Y-9927220D02*
X20308180Y-9927220D01*
X20328600Y-7825600D02*
X20428600Y-7925600D01*
X20428600Y-7825600D02*
X20328600Y-7925600D01*
X20378600Y-7825600D02*
X20378600Y-7925600D01*
X20328600Y-7875600D02*
X20428600Y-7875600D01*
X20578600Y-6375600D02*
X20678600Y-6475600D01*
X20678600Y-6375600D02*
X20578600Y-6475600D01*
X20628600Y-6375600D02*
X20628600Y-6475600D01*
X20578600Y-6425600D02*
X20678600Y-6425600D01*
X20578600Y-7825600D02*
X20678600Y-7925600D01*
X20678600Y-7825600D02*
X20578600Y-7925600D01*
X20628600Y-7825600D02*
X20628600Y-7925600D01*
X20578600Y-7875600D02*
X20678600Y-7875600D01*
X20787300Y-14317140D02*
X20887300Y-14417140D01*
X20887300Y-14317140D02*
X20787300Y-14417140D01*
X20837300Y-14317140D02*
X20837300Y-14417140D01*
X20787300Y-14367140D02*
X20887300Y-14367140D01*
X21033680Y-10738280D02*
X21133680Y-10838280D01*
X21133680Y-10738280D02*
X21033680Y-10838280D01*
X21083680Y-10738280D02*
X21083680Y-10838280D01*
X21033680Y-10788280D02*
X21133680Y-10788280D01*
X21528980Y-13303680D02*
X21628980Y-13403680D01*
X21628980Y-13303680D02*
X21528980Y-13403680D01*
X21578980Y-13303680D02*
X21578980Y-13403680D01*
X21528980Y-13353680D02*
X21628980Y-13353680D01*
X21544220Y-8828200D02*
X21644220Y-8928200D01*
X21644220Y-8828200D02*
X21544220Y-8928200D01*
X21594220Y-8828200D02*
X21594220Y-8928200D01*
X21544220Y-8878200D02*
X21644220Y-8878200D01*
X21752500Y-7697900D02*
X21852500Y-7797900D01*
X21852500Y-7697900D02*
X21752500Y-7797900D01*
X21802500Y-7697900D02*
X21802500Y-7797900D01*
X21752500Y-7747900D02*
X21852500Y-7747900D01*
X21752500Y-7951900D02*
X21852500Y-8051900D01*
X21852500Y-7951900D02*
X21752500Y-8051900D01*
X21802500Y-7951900D02*
X21802500Y-8051900D01*
X21752500Y-8001900D02*
X21852500Y-8001900D01*
X22039520Y-11393600D02*
X22139520Y-11493600D01*
X22139520Y-11393600D02*
X22039520Y-11493600D01*
X22089520Y-11393600D02*
X22089520Y-11493600D01*
X22039520Y-11443600D02*
X22139520Y-11443600D01*
X22133500Y-7697900D02*
X22233500Y-7797900D01*
X22233500Y-7697900D02*
X22133500Y-7797900D01*
X22183500Y-7697900D02*
X22183500Y-7797900D01*
X22133500Y-7747900D02*
X22233500Y-7747900D01*
X22133500Y-7951900D02*
X22233500Y-8051900D01*
X22233500Y-7951900D02*
X22133500Y-8051900D01*
X22183500Y-7951900D02*
X22183500Y-8051900D01*
X22133500Y-8001900D02*
X22233500Y-8001900D01*
X22514500Y-7697900D02*
X22614500Y-7797900D01*
X22614500Y-7697900D02*
X22514500Y-7797900D01*
X22564500Y-7697900D02*
X22564500Y-7797900D01*
X22514500Y-7747900D02*
X22614500Y-7747900D01*
X22514500Y-7951900D02*
X22614500Y-8051900D01*
X22614500Y-7951900D02*
X22514500Y-8051900D01*
X22564500Y-7951900D02*
X22564500Y-8051900D01*
X22514500Y-8001900D02*
X22614500Y-8001900D01*
X23065680Y-10123600D02*
X23165680Y-10223600D01*
X23165680Y-10123600D02*
X23065680Y-10223600D01*
X23115680Y-10123600D02*
X23115680Y-10223600D01*
X23065680Y-10173600D02*
X23165680Y-10173600D01*
X23576220Y-8213520D02*
X23676220Y-8313520D01*
X23676220Y-8213520D02*
X23576220Y-8313520D01*
X23626220Y-8213520D02*
X23626220Y-8313520D01*
X23576220Y-8263520D02*
X23676220Y-8263520D01*
X19718600Y-7035600D02*
X19898600Y-7215600D01*
X19898600Y-7035600D02*
X19718600Y-7215600D01*
X19872240Y-7189240D02*
X19872240Y-7061960D01*
X19744960Y-7061960D01*
X19744960Y-7189240D01*
X19872240Y-7189240D01*
X19728600Y-7085600D02*
X19728600Y-7165600D01*
X19888600Y-7085600D02*
X19888600Y-7165600D01*
X19728600Y-7165600D02*
G75*
G03*
X19888600Y-7165600I80000J0D01*
G01*
X19888600Y-7085600D02*
G75*
G03*
X19728600Y-7085600I-80000J0D01*
G01*
X20858600Y-7035600D02*
X21038600Y-7215600D01*
X21038600Y-7035600D02*
X20858600Y-7215600D01*
X21012240Y-7189240D02*
X21012240Y-7061960D01*
X20884960Y-7061960D01*
X20884960Y-7189240D01*
X21012240Y-7189240D01*
X20868600Y-7085600D02*
X20868600Y-7165600D01*
X21028600Y-7085600D02*
X21028600Y-7165600D01*
X20868600Y-7165600D02*
G75*
G03*
X21028600Y-7165600I80000J0D01*
G01*
X21028600Y-7085600D02*
G75*
G03*
X20868600Y-7085600I-80000J0D01*
G01*
X23110600Y-5881000D02*
X23313800Y-6084200D01*
X23313800Y-5881000D02*
X23110600Y-6084200D01*
X23212200Y-6084200D02*
X23313800Y-5982600D01*
X23212200Y-5881000D01*
X23110600Y-5982600D01*
X23212200Y-6084200D01*
X23110600Y-6897000D02*
X23313800Y-7100200D01*
X23313800Y-6897000D02*
X23110600Y-7100200D01*
X23212200Y-7100200D02*
X23313800Y-6998600D01*
X23212200Y-6897000D01*
X23110600Y-6998600D01*
X23212200Y-7100200D01*
X14474600Y-5060600D02*
X14474600Y-5380600D01*
X14314600Y-5220600D02*
X14634600Y-5220600D01*
X14634600Y-5220600D02*
G75*
G03*
X14634600Y-5220600I-160000J0D01*
G01*
X14474600Y-14204600D02*
X14474600Y-14524600D01*
X14314600Y-14364600D02*
X14634600Y-14364600D01*
X14634600Y-14364600D02*
G75*
G03*
X14634600Y-14364600I-160000J0D01*
G01*
X23618600Y-5060600D02*
X23618600Y-5380600D01*
X23458600Y-5220600D02*
X23778600Y-5220600D01*
X23778600Y-5220600D02*
G75*
G03*
X23778600Y-5220600I-160000J0D01*
G01*
X23618600Y-14204600D02*
X23618600Y-14524600D01*
X23458600Y-14364600D02*
X23778600Y-14364600D01*
X23778600Y-14364600D02*
G75*
G03*
X23778600Y-14364600I-160000J0D01*
G01*
D12*
X14378123Y-15213219D02*
X14378123Y-14913219D01*
X14449552Y-14913219D01*
X14492409Y-14927505D01*
X14520981Y-14956076D01*
X14535266Y-14984648D01*
X14549552Y-15041791D01*
X14549552Y-15084648D01*
X14535266Y-15141791D01*
X14520981Y-15170362D01*
X14492409Y-15198934D01*
X14449552Y-15213219D01*
X14378123Y-15213219D01*
X14678123Y-15213219D02*
X14678123Y-15013219D01*
X14678123Y-15070362D02*
X14692409Y-15041791D01*
X14706695Y-15027505D01*
X14735266Y-15013219D01*
X14763838Y-15013219D01*
X14863838Y-15213219D02*
X14863838Y-15013219D01*
X14863838Y-14913219D02*
X14849552Y-14927505D01*
X14863838Y-14941791D01*
X14878123Y-14927505D01*
X14863838Y-14913219D01*
X14863838Y-14941791D01*
X15049552Y-15213219D02*
X15020981Y-15198934D01*
X15006695Y-15170362D01*
X15006695Y-14913219D01*
X15206695Y-15213219D02*
X15178123Y-15198934D01*
X15163838Y-15170362D01*
X15163838Y-14913219D01*
X15549552Y-15213219D02*
X15549552Y-14913219D01*
X15649552Y-15127505D01*
X15749552Y-14913219D01*
X15749552Y-15213219D01*
X16020981Y-15213219D02*
X16020981Y-15056076D01*
X16006695Y-15027505D01*
X15978123Y-15013219D01*
X15920981Y-15013219D01*
X15892409Y-15027505D01*
X16020981Y-15198934D02*
X15992409Y-15213219D01*
X15920981Y-15213219D01*
X15892409Y-15198934D01*
X15878123Y-15170362D01*
X15878123Y-15141791D01*
X15892409Y-15113219D01*
X15920981Y-15098934D01*
X15992409Y-15098934D01*
X16020981Y-15084648D01*
X16163838Y-15013219D02*
X16163838Y-15313219D01*
X16163838Y-15027505D02*
X16192409Y-15013219D01*
X16249552Y-15013219D01*
X16278123Y-15027505D01*
X16292409Y-15041791D01*
X16306695Y-15070362D01*
X16306695Y-15156076D01*
X16292409Y-15184648D01*
X16278123Y-15198934D01*
X16249552Y-15213219D01*
X16192409Y-15213219D01*
X16163838Y-15198934D01*
X16435266Y-15184648D02*
X16449552Y-15198934D01*
X16435266Y-15213219D01*
X16420981Y-15198934D01*
X16435266Y-15184648D01*
X16435266Y-15213219D01*
X16435266Y-15027505D02*
X16449552Y-15041791D01*
X16435266Y-15056076D01*
X16420981Y-15041791D01*
X16435266Y-15027505D01*
X16435266Y-15056076D01*
X14061695Y-15692505D02*
X14091695Y-15722505D01*
X14091695Y-15692505D02*
X14061695Y-15722505D01*
X14435266Y-15543219D02*
X14463838Y-15543219D01*
X14492409Y-15557505D01*
X14506695Y-15571791D01*
X14520981Y-15600362D01*
X14535266Y-15657505D01*
X14535266Y-15728934D01*
X14520981Y-15786076D01*
X14506695Y-15814648D01*
X14492409Y-15828934D01*
X14463838Y-15843219D01*
X14435266Y-15843219D01*
X14406695Y-15828934D01*
X14392409Y-15814648D01*
X14378123Y-15786076D01*
X14363838Y-15728934D01*
X14363838Y-15657505D01*
X14378123Y-15600362D01*
X14392409Y-15571791D01*
X14406695Y-15557505D01*
X14435266Y-15543219D01*
X14663838Y-15814648D02*
X14678123Y-15828934D01*
X14663838Y-15843219D01*
X14649552Y-15828934D01*
X14663838Y-15814648D01*
X14663838Y-15843219D01*
X14778123Y-15543219D02*
X14963838Y-15543219D01*
X14863838Y-15657505D01*
X14906695Y-15657505D01*
X14935266Y-15671791D01*
X14949552Y-15686076D01*
X14963838Y-15714648D01*
X14963838Y-15786076D01*
X14949552Y-15814648D01*
X14935266Y-15828934D01*
X14906695Y-15843219D01*
X14820981Y-15843219D01*
X14792409Y-15828934D01*
X14778123Y-15814648D01*
X15149552Y-15543219D02*
X15178123Y-15543219D01*
X15206695Y-15557505D01*
X15220981Y-15571791D01*
X15235266Y-15600362D01*
X15249552Y-15657505D01*
X15249552Y-15728934D01*
X15235266Y-15786076D01*
X15220981Y-15814648D01*
X15206695Y-15828934D01*
X15178123Y-15843219D01*
X15149552Y-15843219D01*
X15120981Y-15828934D01*
X15106695Y-15814648D01*
X15092409Y-15786076D01*
X15078123Y-15728934D01*
X15078123Y-15657505D01*
X15092409Y-15600362D01*
X15106695Y-15571791D01*
X15120981Y-15557505D01*
X15149552Y-15543219D01*
X15435266Y-15543219D02*
X15463838Y-15543219D01*
X15492409Y-15557505D01*
X15506695Y-15571791D01*
X15520981Y-15600362D01*
X15535266Y-15657505D01*
X15535266Y-15728934D01*
X15520981Y-15786076D01*
X15506695Y-15814648D01*
X15492409Y-15828934D01*
X15463838Y-15843219D01*
X15435266Y-15843219D01*
X15406695Y-15828934D01*
X15392409Y-15814648D01*
X15378123Y-15786076D01*
X15363838Y-15728934D01*
X15363838Y-15657505D01*
X15378123Y-15600362D01*
X15392409Y-15571791D01*
X15406695Y-15557505D01*
X15435266Y-15543219D01*
X15663838Y-15843219D02*
X15663838Y-15643219D01*
X15663838Y-15671791D02*
X15678123Y-15657505D01*
X15706695Y-15643219D01*
X15749552Y-15643219D01*
X15778123Y-15657505D01*
X15792409Y-15686076D01*
X15792409Y-15843219D01*
X15792409Y-15686076D02*
X15806695Y-15657505D01*
X15835266Y-15643219D01*
X15878123Y-15643219D01*
X15906695Y-15657505D01*
X15920981Y-15686076D01*
X15920981Y-15843219D01*
X16063838Y-15843219D02*
X16063838Y-15643219D01*
X16063838Y-15671791D02*
X16078123Y-15657505D01*
X16106695Y-15643219D01*
X16149552Y-15643219D01*
X16178123Y-15657505D01*
X16192409Y-15686076D01*
X16192409Y-15843219D01*
X16192409Y-15686076D02*
X16206695Y-15657505D01*
X16235266Y-15643219D01*
X16278123Y-15643219D01*
X16306695Y-15657505D01*
X16320981Y-15686076D01*
X16320981Y-15843219D01*
X16906695Y-15528934D02*
X16649552Y-15914648D01*
X17292409Y-15543219D02*
X17320981Y-15543219D01*
X17349552Y-15557505D01*
X17363838Y-15571791D01*
X17378123Y-15600362D01*
X17392409Y-15657505D01*
X17392409Y-15728934D01*
X17378123Y-15786076D01*
X17363838Y-15814648D01*
X17349552Y-15828934D01*
X17320981Y-15843219D01*
X17292409Y-15843219D01*
X17263838Y-15828934D01*
X17249552Y-15814648D01*
X17235266Y-15786076D01*
X17220981Y-15728934D01*
X17220981Y-15657505D01*
X17235266Y-15600362D01*
X17249552Y-15571791D01*
X17263838Y-15557505D01*
X17292409Y-15543219D01*
X17520981Y-15814648D02*
X17535266Y-15828934D01*
X17520981Y-15843219D01*
X17506695Y-15828934D01*
X17520981Y-15814648D01*
X17520981Y-15843219D01*
X17720981Y-15543219D02*
X17749552Y-15543219D01*
X17778123Y-15557505D01*
X17792409Y-15571791D01*
X17806695Y-15600362D01*
X17820981Y-15657505D01*
X17820981Y-15728934D01*
X17806695Y-15786076D01*
X17792409Y-15814648D01*
X17778123Y-15828934D01*
X17749552Y-15843219D01*
X17720981Y-15843219D01*
X17692409Y-15828934D01*
X17678123Y-15814648D01*
X17663838Y-15786076D01*
X17649552Y-15728934D01*
X17649552Y-15657505D01*
X17663838Y-15600362D01*
X17678123Y-15571791D01*
X17692409Y-15557505D01*
X17720981Y-15543219D01*
X18106695Y-15843219D02*
X17935266Y-15843219D01*
X18020981Y-15843219D02*
X18020981Y-15543219D01*
X17992409Y-15586076D01*
X17963838Y-15614648D01*
X17935266Y-15628934D01*
X18392409Y-15843219D02*
X18220981Y-15843219D01*
X18306695Y-15843219D02*
X18306695Y-15543219D01*
X18278123Y-15586076D01*
X18249552Y-15614648D01*
X18220981Y-15628934D01*
X18563838Y-15671791D02*
X18535266Y-15657505D01*
X18520981Y-15643219D01*
X18506695Y-15614648D01*
X18506695Y-15600362D01*
X18520981Y-15571791D01*
X18535266Y-15557505D01*
X18563838Y-15543219D01*
X18620981Y-15543219D01*
X18649552Y-15557505D01*
X18663838Y-15571791D01*
X18678123Y-15600362D01*
X18678123Y-15614648D01*
X18663838Y-15643219D01*
X18649552Y-15657505D01*
X18620981Y-15671791D01*
X18563838Y-15671791D01*
X18535266Y-15686076D01*
X18520981Y-15700362D01*
X18506695Y-15728934D01*
X18506695Y-15786076D01*
X18520981Y-15814648D01*
X18535266Y-15828934D01*
X18563838Y-15843219D01*
X18620981Y-15843219D01*
X18649552Y-15828934D01*
X18663838Y-15814648D01*
X18678123Y-15786076D01*
X18678123Y-15728934D01*
X18663838Y-15700362D01*
X18649552Y-15686076D01*
X18620981Y-15671791D01*
X18792409Y-15543219D02*
X18792409Y-15600362D01*
X18906695Y-15543219D02*
X18906695Y-15600362D01*
X19349552Y-15957505D02*
X19335266Y-15943219D01*
X19306695Y-15900362D01*
X19292409Y-15871791D01*
X19278123Y-15828934D01*
X19263838Y-15757505D01*
X19263838Y-15700362D01*
X19278123Y-15628934D01*
X19292409Y-15586076D01*
X19306695Y-15557505D01*
X19335266Y-15514648D01*
X19349552Y-15500362D01*
X19592409Y-15643219D02*
X19592409Y-15843219D01*
X19520981Y-15528934D02*
X19449552Y-15743219D01*
X19635266Y-15743219D01*
X19720981Y-15543219D02*
X19920981Y-15543219D01*
X19792409Y-15843219D01*
X20263838Y-15843219D02*
X20263838Y-15543219D01*
X20392409Y-15843219D02*
X20392409Y-15686076D01*
X20378123Y-15657505D01*
X20349552Y-15643219D01*
X20306695Y-15643219D01*
X20278123Y-15657505D01*
X20263838Y-15671791D01*
X20578123Y-15843219D02*
X20549552Y-15828934D01*
X20535266Y-15814648D01*
X20520981Y-15786076D01*
X20520981Y-15700362D01*
X20535266Y-15671791D01*
X20549552Y-15657505D01*
X20578123Y-15643219D01*
X20620981Y-15643219D01*
X20649552Y-15657505D01*
X20663838Y-15671791D01*
X20678123Y-15700362D01*
X20678123Y-15786076D01*
X20663838Y-15814648D01*
X20649552Y-15828934D01*
X20620981Y-15843219D01*
X20578123Y-15843219D01*
X20849552Y-15843219D02*
X20820981Y-15828934D01*
X20806695Y-15800362D01*
X20806695Y-15543219D01*
X21078123Y-15828934D02*
X21049552Y-15843219D01*
X20992409Y-15843219D01*
X20963838Y-15828934D01*
X20949552Y-15800362D01*
X20949552Y-15686076D01*
X20963838Y-15657505D01*
X20992409Y-15643219D01*
X21049552Y-15643219D01*
X21078123Y-15657505D01*
X21092409Y-15686076D01*
X21092409Y-15714648D01*
X20949552Y-15743219D01*
X21206695Y-15828934D02*
X21235266Y-15843219D01*
X21292409Y-15843219D01*
X21320981Y-15828934D01*
X21335266Y-15800362D01*
X21335266Y-15786076D01*
X21320981Y-15757505D01*
X21292409Y-15743219D01*
X21249552Y-15743219D01*
X21220981Y-15728934D01*
X21206695Y-15700362D01*
X21206695Y-15686076D01*
X21220981Y-15657505D01*
X21249552Y-15643219D01*
X21292409Y-15643219D01*
X21320981Y-15657505D01*
X21435266Y-15957505D02*
X21449552Y-15943219D01*
X21478123Y-15900362D01*
X21492409Y-15871791D01*
X21506695Y-15828934D01*
X21520981Y-15757505D01*
X21520981Y-15700362D01*
X21506695Y-15628934D01*
X21492409Y-15586076D01*
X21478123Y-15557505D01*
X21449552Y-15514648D01*
X21435266Y-15500362D01*
X14091695Y-16103505D02*
G75*
G03*
X14091695Y-16103505I-20000J0D01*
G01*
X14435266Y-15939219D02*
X14463838Y-15939219D01*
X14492409Y-15953505D01*
X14506695Y-15967791D01*
X14520981Y-15996362D01*
X14535266Y-16053505D01*
X14535266Y-16124934D01*
X14520981Y-16182076D01*
X14506695Y-16210648D01*
X14492409Y-16224934D01*
X14463838Y-16239219D01*
X14435266Y-16239219D01*
X14406695Y-16224934D01*
X14392409Y-16210648D01*
X14378123Y-16182076D01*
X14363838Y-16124934D01*
X14363838Y-16053505D01*
X14378123Y-15996362D01*
X14392409Y-15967791D01*
X14406695Y-15953505D01*
X14435266Y-15939219D01*
X14663838Y-16210648D02*
X14678123Y-16224934D01*
X14663838Y-16239219D01*
X14649552Y-16224934D01*
X14663838Y-16210648D01*
X14663838Y-16239219D01*
X14935266Y-16039219D02*
X14935266Y-16239219D01*
X14863838Y-15924934D02*
X14792409Y-16139219D01*
X14978123Y-16139219D01*
X15149552Y-15939219D02*
X15178123Y-15939219D01*
X15206695Y-15953505D01*
X15220981Y-15967791D01*
X15235266Y-15996362D01*
X15249552Y-16053505D01*
X15249552Y-16124934D01*
X15235266Y-16182076D01*
X15220981Y-16210648D01*
X15206695Y-16224934D01*
X15178123Y-16239219D01*
X15149552Y-16239219D01*
X15120981Y-16224934D01*
X15106695Y-16210648D01*
X15092409Y-16182076D01*
X15078123Y-16124934D01*
X15078123Y-16053505D01*
X15092409Y-15996362D01*
X15106695Y-15967791D01*
X15120981Y-15953505D01*
X15149552Y-15939219D01*
X15435266Y-15939219D02*
X15463838Y-15939219D01*
X15492409Y-15953505D01*
X15506695Y-15967791D01*
X15520981Y-15996362D01*
X15535266Y-16053505D01*
X15535266Y-16124934D01*
X15520981Y-16182076D01*
X15506695Y-16210648D01*
X15492409Y-16224934D01*
X15463838Y-16239219D01*
X15435266Y-16239219D01*
X15406695Y-16224934D01*
X15392409Y-16210648D01*
X15378123Y-16182076D01*
X15363838Y-16124934D01*
X15363838Y-16053505D01*
X15378123Y-15996362D01*
X15392409Y-15967791D01*
X15406695Y-15953505D01*
X15435266Y-15939219D01*
X15663838Y-16239219D02*
X15663838Y-16039219D01*
X15663838Y-16067791D02*
X15678123Y-16053505D01*
X15706695Y-16039219D01*
X15749552Y-16039219D01*
X15778123Y-16053505D01*
X15792409Y-16082076D01*
X15792409Y-16239219D01*
X15792409Y-16082076D02*
X15806695Y-16053505D01*
X15835266Y-16039219D01*
X15878123Y-16039219D01*
X15906695Y-16053505D01*
X15920981Y-16082076D01*
X15920981Y-16239219D01*
X16063838Y-16239219D02*
X16063838Y-16039219D01*
X16063838Y-16067791D02*
X16078123Y-16053505D01*
X16106695Y-16039219D01*
X16149552Y-16039219D01*
X16178123Y-16053505D01*
X16192409Y-16082076D01*
X16192409Y-16239219D01*
X16192409Y-16082076D02*
X16206695Y-16053505D01*
X16235266Y-16039219D01*
X16278123Y-16039219D01*
X16306695Y-16053505D01*
X16320981Y-16082076D01*
X16320981Y-16239219D01*
X16906695Y-15924934D02*
X16649552Y-16310648D01*
X17292409Y-15939219D02*
X17320981Y-15939219D01*
X17349552Y-15953505D01*
X17363838Y-15967791D01*
X17378123Y-15996362D01*
X17392409Y-16053505D01*
X17392409Y-16124934D01*
X17378123Y-16182076D01*
X17363838Y-16210648D01*
X17349552Y-16224934D01*
X17320981Y-16239219D01*
X17292409Y-16239219D01*
X17263838Y-16224934D01*
X17249552Y-16210648D01*
X17235266Y-16182076D01*
X17220981Y-16124934D01*
X17220981Y-16053505D01*
X17235266Y-15996362D01*
X17249552Y-15967791D01*
X17263838Y-15953505D01*
X17292409Y-15939219D01*
X17520981Y-16210648D02*
X17535266Y-16224934D01*
X17520981Y-16239219D01*
X17506695Y-16224934D01*
X17520981Y-16210648D01*
X17520981Y-16239219D01*
X17720981Y-15939219D02*
X17749552Y-15939219D01*
X17778123Y-15953505D01*
X17792409Y-15967791D01*
X17806695Y-15996362D01*
X17820981Y-16053505D01*
X17820981Y-16124934D01*
X17806695Y-16182076D01*
X17792409Y-16210648D01*
X17778123Y-16224934D01*
X17749552Y-16239219D01*
X17720981Y-16239219D01*
X17692409Y-16224934D01*
X17678123Y-16210648D01*
X17663838Y-16182076D01*
X17649552Y-16124934D01*
X17649552Y-16053505D01*
X17663838Y-15996362D01*
X17678123Y-15967791D01*
X17692409Y-15953505D01*
X17720981Y-15939219D01*
X18106695Y-16239219D02*
X17935266Y-16239219D01*
X18020981Y-16239219D02*
X18020981Y-15939219D01*
X17992409Y-15982076D01*
X17963838Y-16010648D01*
X17935266Y-16024934D01*
X18378123Y-15939219D02*
X18235266Y-15939219D01*
X18220981Y-16082076D01*
X18235266Y-16067791D01*
X18263838Y-16053505D01*
X18335266Y-16053505D01*
X18363838Y-16067791D01*
X18378123Y-16082076D01*
X18392409Y-16110648D01*
X18392409Y-16182076D01*
X18378123Y-16210648D01*
X18363838Y-16224934D01*
X18335266Y-16239219D01*
X18263838Y-16239219D01*
X18235266Y-16224934D01*
X18220981Y-16210648D01*
X18492409Y-15939219D02*
X18692409Y-15939219D01*
X18563838Y-16239219D01*
X18792409Y-15939219D02*
X18792409Y-15996362D01*
X18906695Y-15939219D02*
X18906695Y-15996362D01*
X19349552Y-16353505D02*
X19335266Y-16339219D01*
X19306695Y-16296362D01*
X19292409Y-16267791D01*
X19278123Y-16224934D01*
X19263838Y-16153505D01*
X19263838Y-16096362D01*
X19278123Y-16024934D01*
X19292409Y-15982076D01*
X19306695Y-15953505D01*
X19335266Y-15910648D01*
X19349552Y-15896362D01*
X19506695Y-16067791D02*
X19478123Y-16053505D01*
X19463838Y-16039219D01*
X19449552Y-16010648D01*
X19449552Y-15996362D01*
X19463838Y-15967791D01*
X19478123Y-15953505D01*
X19506695Y-15939219D01*
X19563838Y-15939219D01*
X19592409Y-15953505D01*
X19606695Y-15967791D01*
X19620981Y-15996362D01*
X19620981Y-16010648D01*
X19606695Y-16039219D01*
X19592409Y-16053505D01*
X19563838Y-16067791D01*
X19506695Y-16067791D01*
X19478123Y-16082076D01*
X19463838Y-16096362D01*
X19449552Y-16124934D01*
X19449552Y-16182076D01*
X19463838Y-16210648D01*
X19478123Y-16224934D01*
X19506695Y-16239219D01*
X19563838Y-16239219D01*
X19592409Y-16224934D01*
X19606695Y-16210648D01*
X19620981Y-16182076D01*
X19620981Y-16124934D01*
X19606695Y-16096362D01*
X19592409Y-16082076D01*
X19563838Y-16067791D01*
X19892409Y-15939219D02*
X19749552Y-15939219D01*
X19735266Y-16082076D01*
X19749552Y-16067791D01*
X19778123Y-16053505D01*
X19849552Y-16053505D01*
X19878123Y-16067791D01*
X19892409Y-16082076D01*
X19906695Y-16110648D01*
X19906695Y-16182076D01*
X19892409Y-16210648D01*
X19878123Y-16224934D01*
X19849552Y-16239219D01*
X19778123Y-16239219D01*
X19749552Y-16224934D01*
X19735266Y-16210648D01*
X20263838Y-16239219D02*
X20263838Y-15939219D01*
X20392409Y-16239219D02*
X20392409Y-16082076D01*
X20378123Y-16053505D01*
X20349552Y-16039219D01*
X20306695Y-16039219D01*
X20278123Y-16053505D01*
X20263838Y-16067791D01*
X20578123Y-16239219D02*
X20549552Y-16224934D01*
X20535266Y-16210648D01*
X20520981Y-16182076D01*
X20520981Y-16096362D01*
X20535266Y-16067791D01*
X20549552Y-16053505D01*
X20578123Y-16039219D01*
X20620981Y-16039219D01*
X20649552Y-16053505D01*
X20663838Y-16067791D01*
X20678123Y-16096362D01*
X20678123Y-16182076D01*
X20663838Y-16210648D01*
X20649552Y-16224934D01*
X20620981Y-16239219D01*
X20578123Y-16239219D01*
X20849552Y-16239219D02*
X20820981Y-16224934D01*
X20806695Y-16196362D01*
X20806695Y-15939219D01*
X21078123Y-16224934D02*
X21049552Y-16239219D01*
X20992409Y-16239219D01*
X20963838Y-16224934D01*
X20949552Y-16196362D01*
X20949552Y-16082076D01*
X20963838Y-16053505D01*
X20992409Y-16039219D01*
X21049552Y-16039219D01*
X21078123Y-16053505D01*
X21092409Y-16082076D01*
X21092409Y-16110648D01*
X20949552Y-16139219D01*
X21206695Y-16224934D02*
X21235266Y-16239219D01*
X21292409Y-16239219D01*
X21320981Y-16224934D01*
X21335266Y-16196362D01*
X21335266Y-16182076D01*
X21320981Y-16153505D01*
X21292409Y-16139219D01*
X21249552Y-16139219D01*
X21220981Y-16124934D01*
X21206695Y-16096362D01*
X21206695Y-16082076D01*
X21220981Y-16053505D01*
X21249552Y-16039219D01*
X21292409Y-16039219D01*
X21320981Y-16053505D01*
X21435266Y-16353505D02*
X21449552Y-16339219D01*
X21478123Y-16296362D01*
X21492409Y-16267791D01*
X21506695Y-16224934D01*
X21520981Y-16153505D01*
X21520981Y-16096362D01*
X21506695Y-16024934D01*
X21492409Y-15982076D01*
X21478123Y-15953505D01*
X21449552Y-15910648D01*
X21435266Y-15896362D01*
X14066695Y-16474505D02*
X14066695Y-16524505D01*
X14041695Y-16499505D02*
X14091695Y-16499505D01*
X14435266Y-16335219D02*
X14463838Y-16335219D01*
X14492409Y-16349505D01*
X14506695Y-16363791D01*
X14520981Y-16392362D01*
X14535266Y-16449505D01*
X14535266Y-16520934D01*
X14520981Y-16578076D01*
X14506695Y-16606648D01*
X14492409Y-16620934D01*
X14463838Y-16635219D01*
X14435266Y-16635219D01*
X14406695Y-16620934D01*
X14392409Y-16606648D01*
X14378123Y-16578076D01*
X14363838Y-16520934D01*
X14363838Y-16449505D01*
X14378123Y-16392362D01*
X14392409Y-16363791D01*
X14406695Y-16349505D01*
X14435266Y-16335219D01*
X14663838Y-16606648D02*
X14678123Y-16620934D01*
X14663838Y-16635219D01*
X14649552Y-16620934D01*
X14663838Y-16606648D01*
X14663838Y-16635219D01*
X14949552Y-16335219D02*
X14806695Y-16335219D01*
X14792409Y-16478076D01*
X14806695Y-16463791D01*
X14835266Y-16449505D01*
X14906695Y-16449505D01*
X14935266Y-16463791D01*
X14949552Y-16478076D01*
X14963838Y-16506648D01*
X14963838Y-16578076D01*
X14949552Y-16606648D01*
X14935266Y-16620934D01*
X14906695Y-16635219D01*
X14835266Y-16635219D01*
X14806695Y-16620934D01*
X14792409Y-16606648D01*
X15149552Y-16335219D02*
X15178123Y-16335219D01*
X15206695Y-16349505D01*
X15220981Y-16363791D01*
X15235266Y-16392362D01*
X15249552Y-16449505D01*
X15249552Y-16520934D01*
X15235266Y-16578076D01*
X15220981Y-16606648D01*
X15206695Y-16620934D01*
X15178123Y-16635219D01*
X15149552Y-16635219D01*
X15120981Y-16620934D01*
X15106695Y-16606648D01*
X15092409Y-16578076D01*
X15078123Y-16520934D01*
X15078123Y-16449505D01*
X15092409Y-16392362D01*
X15106695Y-16363791D01*
X15120981Y-16349505D01*
X15149552Y-16335219D01*
X15435266Y-16335219D02*
X15463838Y-16335219D01*
X15492409Y-16349505D01*
X15506695Y-16363791D01*
X15520981Y-16392362D01*
X15535266Y-16449505D01*
X15535266Y-16520934D01*
X15520981Y-16578076D01*
X15506695Y-16606648D01*
X15492409Y-16620934D01*
X15463838Y-16635219D01*
X15435266Y-16635219D01*
X15406695Y-16620934D01*
X15392409Y-16606648D01*
X15378123Y-16578076D01*
X15363838Y-16520934D01*
X15363838Y-16449505D01*
X15378123Y-16392362D01*
X15392409Y-16363791D01*
X15406695Y-16349505D01*
X15435266Y-16335219D01*
X15663838Y-16635219D02*
X15663838Y-16435219D01*
X15663838Y-16463791D02*
X15678123Y-16449505D01*
X15706695Y-16435219D01*
X15749552Y-16435219D01*
X15778123Y-16449505D01*
X15792409Y-16478076D01*
X15792409Y-16635219D01*
X15792409Y-16478076D02*
X15806695Y-16449505D01*
X15835266Y-16435219D01*
X15878123Y-16435219D01*
X15906695Y-16449505D01*
X15920981Y-16478076D01*
X15920981Y-16635219D01*
X16063838Y-16635219D02*
X16063838Y-16435219D01*
X16063838Y-16463791D02*
X16078123Y-16449505D01*
X16106695Y-16435219D01*
X16149552Y-16435219D01*
X16178123Y-16449505D01*
X16192409Y-16478076D01*
X16192409Y-16635219D01*
X16192409Y-16478076D02*
X16206695Y-16449505D01*
X16235266Y-16435219D01*
X16278123Y-16435219D01*
X16306695Y-16449505D01*
X16320981Y-16478076D01*
X16320981Y-16635219D01*
X16906695Y-16320934D02*
X16649552Y-16706648D01*
X17292409Y-16335219D02*
X17320981Y-16335219D01*
X17349552Y-16349505D01*
X17363838Y-16363791D01*
X17378123Y-16392362D01*
X17392409Y-16449505D01*
X17392409Y-16520934D01*
X17378123Y-16578076D01*
X17363838Y-16606648D01*
X17349552Y-16620934D01*
X17320981Y-16635219D01*
X17292409Y-16635219D01*
X17263838Y-16620934D01*
X17249552Y-16606648D01*
X17235266Y-16578076D01*
X17220981Y-16520934D01*
X17220981Y-16449505D01*
X17235266Y-16392362D01*
X17249552Y-16363791D01*
X17263838Y-16349505D01*
X17292409Y-16335219D01*
X17520981Y-16606648D02*
X17535266Y-16620934D01*
X17520981Y-16635219D01*
X17506695Y-16620934D01*
X17520981Y-16606648D01*
X17520981Y-16635219D01*
X17720981Y-16335219D02*
X17749552Y-16335219D01*
X17778123Y-16349505D01*
X17792409Y-16363791D01*
X17806695Y-16392362D01*
X17820981Y-16449505D01*
X17820981Y-16520934D01*
X17806695Y-16578076D01*
X17792409Y-16606648D01*
X17778123Y-16620934D01*
X17749552Y-16635219D01*
X17720981Y-16635219D01*
X17692409Y-16620934D01*
X17678123Y-16606648D01*
X17663838Y-16578076D01*
X17649552Y-16520934D01*
X17649552Y-16449505D01*
X17663838Y-16392362D01*
X17678123Y-16363791D01*
X17692409Y-16349505D01*
X17720981Y-16335219D01*
X18106695Y-16635219D02*
X17935266Y-16635219D01*
X18020981Y-16635219D02*
X18020981Y-16335219D01*
X17992409Y-16378076D01*
X17963838Y-16406648D01*
X17935266Y-16420934D01*
X18249552Y-16635219D02*
X18306695Y-16635219D01*
X18335266Y-16620934D01*
X18349552Y-16606648D01*
X18378123Y-16563791D01*
X18392409Y-16506648D01*
X18392409Y-16392362D01*
X18378123Y-16363791D01*
X18363838Y-16349505D01*
X18335266Y-16335219D01*
X18278123Y-16335219D01*
X18249552Y-16349505D01*
X18235266Y-16363791D01*
X18220981Y-16392362D01*
X18220981Y-16463791D01*
X18235266Y-16492362D01*
X18249552Y-16506648D01*
X18278123Y-16520934D01*
X18335266Y-16520934D01*
X18363838Y-16506648D01*
X18378123Y-16492362D01*
X18392409Y-16463791D01*
X18492409Y-16335219D02*
X18692409Y-16335219D01*
X18563838Y-16635219D01*
X18792409Y-16335219D02*
X18792409Y-16392362D01*
X18906695Y-16335219D02*
X18906695Y-16392362D01*
X19349552Y-16749505D02*
X19335266Y-16735219D01*
X19306695Y-16692362D01*
X19292409Y-16663791D01*
X19278123Y-16620934D01*
X19263838Y-16549505D01*
X19263838Y-16492362D01*
X19278123Y-16420934D01*
X19292409Y-16378076D01*
X19306695Y-16349505D01*
X19335266Y-16306648D01*
X19349552Y-16292362D01*
X19435266Y-16335219D02*
X19620981Y-16335219D01*
X19520981Y-16449505D01*
X19563838Y-16449505D01*
X19592409Y-16463791D01*
X19606695Y-16478076D01*
X19620981Y-16506648D01*
X19620981Y-16578076D01*
X19606695Y-16606648D01*
X19592409Y-16620934D01*
X19563838Y-16635219D01*
X19478123Y-16635219D01*
X19449552Y-16620934D01*
X19435266Y-16606648D01*
X19735266Y-16363791D02*
X19749552Y-16349505D01*
X19778123Y-16335219D01*
X19849552Y-16335219D01*
X19878123Y-16349505D01*
X19892409Y-16363791D01*
X19906695Y-16392362D01*
X19906695Y-16420934D01*
X19892409Y-16463791D01*
X19720981Y-16635219D01*
X19906695Y-16635219D01*
X20263838Y-16635219D02*
X20263838Y-16335219D01*
X20392409Y-16635219D02*
X20392409Y-16478076D01*
X20378123Y-16449505D01*
X20349552Y-16435219D01*
X20306695Y-16435219D01*
X20278123Y-16449505D01*
X20263838Y-16463791D01*
X20578123Y-16635219D02*
X20549552Y-16620934D01*
X20535266Y-16606648D01*
X20520981Y-16578076D01*
X20520981Y-16492362D01*
X20535266Y-16463791D01*
X20549552Y-16449505D01*
X20578123Y-16435219D01*
X20620981Y-16435219D01*
X20649552Y-16449505D01*
X20663838Y-16463791D01*
X20678123Y-16492362D01*
X20678123Y-16578076D01*
X20663838Y-16606648D01*
X20649552Y-16620934D01*
X20620981Y-16635219D01*
X20578123Y-16635219D01*
X20849552Y-16635219D02*
X20820981Y-16620934D01*
X20806695Y-16592362D01*
X20806695Y-16335219D01*
X21078123Y-16620934D02*
X21049552Y-16635219D01*
X20992409Y-16635219D01*
X20963838Y-16620934D01*
X20949552Y-16592362D01*
X20949552Y-16478076D01*
X20963838Y-16449505D01*
X20992409Y-16435219D01*
X21049552Y-16435219D01*
X21078123Y-16449505D01*
X21092409Y-16478076D01*
X21092409Y-16506648D01*
X20949552Y-16535219D01*
X21206695Y-16620934D02*
X21235266Y-16635219D01*
X21292409Y-16635219D01*
X21320981Y-16620934D01*
X21335266Y-16592362D01*
X21335266Y-16578076D01*
X21320981Y-16549505D01*
X21292409Y-16535219D01*
X21249552Y-16535219D01*
X21220981Y-16520934D01*
X21206695Y-16492362D01*
X21206695Y-16478076D01*
X21220981Y-16449505D01*
X21249552Y-16435219D01*
X21292409Y-16435219D01*
X21320981Y-16449505D01*
X21692409Y-16520934D02*
X21920981Y-16520934D01*
X21806695Y-16635219D02*
X21806695Y-16406648D01*
X22420981Y-16435219D02*
X22420981Y-16635219D01*
X22349552Y-16320934D02*
X22278123Y-16535219D01*
X22463838Y-16535219D01*
X22792409Y-16620934D02*
X22820981Y-16635219D01*
X22878123Y-16635219D01*
X22906695Y-16620934D01*
X22920981Y-16592362D01*
X22920981Y-16578076D01*
X22906695Y-16549505D01*
X22878123Y-16535219D01*
X22835266Y-16535219D01*
X22806695Y-16520934D01*
X22792409Y-16492362D01*
X22792409Y-16478076D01*
X22806695Y-16449505D01*
X22835266Y-16435219D01*
X22878123Y-16435219D01*
X22906695Y-16449505D01*
X23092409Y-16635219D02*
X23063838Y-16620934D01*
X23049552Y-16592362D01*
X23049552Y-16335219D01*
X23249552Y-16635219D02*
X23220981Y-16620934D01*
X23206695Y-16606648D01*
X23192409Y-16578076D01*
X23192409Y-16492362D01*
X23206695Y-16463791D01*
X23220981Y-16449505D01*
X23249552Y-16435219D01*
X23292409Y-16435219D01*
X23320981Y-16449505D01*
X23335266Y-16463791D01*
X23349552Y-16492362D01*
X23349552Y-16578076D01*
X23335266Y-16606648D01*
X23320981Y-16620934D01*
X23292409Y-16635219D01*
X23249552Y-16635219D01*
X23435266Y-16435219D02*
X23549552Y-16435219D01*
X23478123Y-16335219D02*
X23478123Y-16592362D01*
X23492409Y-16620934D01*
X23520981Y-16635219D01*
X23549552Y-16635219D01*
X23635266Y-16620934D02*
X23663838Y-16635219D01*
X23720981Y-16635219D01*
X23749552Y-16620934D01*
X23763838Y-16592362D01*
X23763838Y-16578076D01*
X23749552Y-16549505D01*
X23720981Y-16535219D01*
X23678123Y-16535219D01*
X23649552Y-16520934D01*
X23635266Y-16492362D01*
X23635266Y-16478076D01*
X23649552Y-16449505D01*
X23678123Y-16435219D01*
X23720981Y-16435219D01*
X23749552Y-16449505D01*
X23863838Y-16749505D02*
X23878123Y-16735219D01*
X23906695Y-16692362D01*
X23920981Y-16663791D01*
X23935266Y-16620934D01*
X23949552Y-16549505D01*
X23949552Y-16492362D01*
X23935266Y-16420934D01*
X23920981Y-16378076D01*
X23906695Y-16349505D01*
X23878123Y-16306648D01*
X23863838Y-16292362D01*
X14083640Y-16914951D02*
X14083640Y-16876060D01*
X14044749Y-16876060D01*
X14044749Y-16914951D01*
X14083640Y-16914951D01*
X14435266Y-16731219D02*
X14463838Y-16731219D01*
X14492409Y-16745505D01*
X14506695Y-16759791D01*
X14520981Y-16788362D01*
X14535266Y-16845505D01*
X14535266Y-16916934D01*
X14520981Y-16974077D01*
X14506695Y-17002648D01*
X14492409Y-17016934D01*
X14463838Y-17031219D01*
X14435266Y-17031219D01*
X14406695Y-17016934D01*
X14392409Y-17002648D01*
X14378123Y-16974077D01*
X14363838Y-16916934D01*
X14363838Y-16845505D01*
X14378123Y-16788362D01*
X14392409Y-16759791D01*
X14406695Y-16745505D01*
X14435266Y-16731219D01*
X14663838Y-17002648D02*
X14678123Y-17016934D01*
X14663838Y-17031219D01*
X14649552Y-17016934D01*
X14663838Y-17002648D01*
X14663838Y-17031219D01*
X14949552Y-16731219D02*
X14806695Y-16731219D01*
X14792409Y-16874077D01*
X14806695Y-16859791D01*
X14835266Y-16845505D01*
X14906695Y-16845505D01*
X14935266Y-16859791D01*
X14949552Y-16874077D01*
X14963838Y-16902648D01*
X14963838Y-16974077D01*
X14949552Y-17002648D01*
X14935266Y-17016934D01*
X14906695Y-17031219D01*
X14835266Y-17031219D01*
X14806695Y-17016934D01*
X14792409Y-17002648D01*
X15235266Y-16731219D02*
X15092409Y-16731219D01*
X15078123Y-16874077D01*
X15092409Y-16859791D01*
X15120981Y-16845505D01*
X15192409Y-16845505D01*
X15220981Y-16859791D01*
X15235266Y-16874077D01*
X15249552Y-16902648D01*
X15249552Y-16974077D01*
X15235266Y-17002648D01*
X15220981Y-17016934D01*
X15192409Y-17031219D01*
X15120981Y-17031219D01*
X15092409Y-17016934D01*
X15078123Y-17002648D01*
X15435266Y-16731219D02*
X15463838Y-16731219D01*
X15492409Y-16745505D01*
X15506695Y-16759791D01*
X15520981Y-16788362D01*
X15535266Y-16845505D01*
X15535266Y-16916934D01*
X15520981Y-16974077D01*
X15506695Y-17002648D01*
X15492409Y-17016934D01*
X15463838Y-17031219D01*
X15435266Y-17031219D01*
X15406695Y-17016934D01*
X15392409Y-17002648D01*
X15378123Y-16974077D01*
X15363838Y-16916934D01*
X15363838Y-16845505D01*
X15378123Y-16788362D01*
X15392409Y-16759791D01*
X15406695Y-16745505D01*
X15435266Y-16731219D01*
X15663838Y-17031219D02*
X15663838Y-16831219D01*
X15663838Y-16859791D02*
X15678123Y-16845505D01*
X15706695Y-16831219D01*
X15749552Y-16831219D01*
X15778123Y-16845505D01*
X15792409Y-16874077D01*
X15792409Y-17031219D01*
X15792409Y-16874077D02*
X15806695Y-16845505D01*
X15835266Y-16831219D01*
X15878123Y-16831219D01*
X15906695Y-16845505D01*
X15920981Y-16874077D01*
X15920981Y-17031219D01*
X16063838Y-17031219D02*
X16063838Y-16831219D01*
X16063838Y-16859791D02*
X16078123Y-16845505D01*
X16106695Y-16831219D01*
X16149552Y-16831219D01*
X16178123Y-16845505D01*
X16192409Y-16874077D01*
X16192409Y-17031219D01*
X16192409Y-16874077D02*
X16206695Y-16845505D01*
X16235266Y-16831219D01*
X16278123Y-16831219D01*
X16306695Y-16845505D01*
X16320981Y-16874077D01*
X16320981Y-17031219D01*
X16906695Y-16716934D02*
X16649552Y-17102648D01*
X17292409Y-16731219D02*
X17320981Y-16731219D01*
X17349552Y-16745505D01*
X17363838Y-16759791D01*
X17378123Y-16788362D01*
X17392409Y-16845505D01*
X17392409Y-16916934D01*
X17378123Y-16974077D01*
X17363838Y-17002648D01*
X17349552Y-17016934D01*
X17320981Y-17031219D01*
X17292409Y-17031219D01*
X17263838Y-17016934D01*
X17249552Y-17002648D01*
X17235266Y-16974077D01*
X17220981Y-16916934D01*
X17220981Y-16845505D01*
X17235266Y-16788362D01*
X17249552Y-16759791D01*
X17263838Y-16745505D01*
X17292409Y-16731219D01*
X17520981Y-17002648D02*
X17535266Y-17016934D01*
X17520981Y-17031219D01*
X17506695Y-17016934D01*
X17520981Y-17002648D01*
X17520981Y-17031219D01*
X17720981Y-16731219D02*
X17749552Y-16731219D01*
X17778123Y-16745505D01*
X17792409Y-16759791D01*
X17806695Y-16788362D01*
X17820981Y-16845505D01*
X17820981Y-16916934D01*
X17806695Y-16974077D01*
X17792409Y-17002648D01*
X17778123Y-17016934D01*
X17749552Y-17031219D01*
X17720981Y-17031219D01*
X17692409Y-17016934D01*
X17678123Y-17002648D01*
X17663838Y-16974077D01*
X17649552Y-16916934D01*
X17649552Y-16845505D01*
X17663838Y-16788362D01*
X17678123Y-16759791D01*
X17692409Y-16745505D01*
X17720981Y-16731219D01*
X17935266Y-16759791D02*
X17949552Y-16745505D01*
X17978123Y-16731219D01*
X18049552Y-16731219D01*
X18078123Y-16745505D01*
X18092409Y-16759791D01*
X18106695Y-16788362D01*
X18106695Y-16816934D01*
X18092409Y-16859791D01*
X17920981Y-17031219D01*
X18106695Y-17031219D01*
X18392409Y-17031219D02*
X18220981Y-17031219D01*
X18306695Y-17031219D02*
X18306695Y-16731219D01*
X18278123Y-16774076D01*
X18249552Y-16802648D01*
X18220981Y-16816934D01*
X18492409Y-16731219D02*
X18692409Y-16731219D01*
X18563838Y-17031219D01*
X18792409Y-16731219D02*
X18792409Y-16788362D01*
X18906695Y-16731219D02*
X18906695Y-16788362D01*
X19349552Y-17145505D02*
X19335266Y-17131219D01*
X19306695Y-17088362D01*
X19292409Y-17059791D01*
X19278123Y-17016934D01*
X19263838Y-16945505D01*
X19263838Y-16888362D01*
X19278123Y-16816934D01*
X19292409Y-16774076D01*
X19306695Y-16745505D01*
X19335266Y-16702648D01*
X19349552Y-16688362D01*
X19520981Y-16731219D02*
X19549552Y-16731219D01*
X19578123Y-16745505D01*
X19592409Y-16759791D01*
X19606695Y-16788362D01*
X19620981Y-16845505D01*
X19620981Y-16916934D01*
X19606695Y-16974077D01*
X19592409Y-17002648D01*
X19578123Y-17016934D01*
X19549552Y-17031219D01*
X19520981Y-17031219D01*
X19492409Y-17016934D01*
X19478123Y-17002648D01*
X19463838Y-16974077D01*
X19449552Y-16916934D01*
X19449552Y-16845505D01*
X19463838Y-16788362D01*
X19478123Y-16759791D01*
X19492409Y-16745505D01*
X19520981Y-16731219D01*
X19978123Y-17031219D02*
X19978123Y-16731219D01*
X20106695Y-17031219D02*
X20106695Y-16874077D01*
X20092409Y-16845505D01*
X20063838Y-16831219D01*
X20020981Y-16831219D01*
X19992409Y-16845505D01*
X19978123Y-16859791D01*
X20292409Y-17031219D02*
X20263838Y-17016934D01*
X20249552Y-17002648D01*
X20235266Y-16974077D01*
X20235266Y-16888362D01*
X20249552Y-16859791D01*
X20263838Y-16845505D01*
X20292409Y-16831219D01*
X20335266Y-16831219D01*
X20363838Y-16845505D01*
X20378123Y-16859791D01*
X20392409Y-16888362D01*
X20392409Y-16974077D01*
X20378123Y-17002648D01*
X20363838Y-17016934D01*
X20335266Y-17031219D01*
X20292409Y-17031219D01*
X20563838Y-17031219D02*
X20535266Y-17016934D01*
X20520981Y-16988362D01*
X20520981Y-16731219D01*
X20792409Y-17016934D02*
X20763838Y-17031219D01*
X20706695Y-17031219D01*
X20678123Y-17016934D01*
X20663838Y-16988362D01*
X20663838Y-16874077D01*
X20678123Y-16845505D01*
X20706695Y-16831219D01*
X20763838Y-16831219D01*
X20792409Y-16845505D01*
X20806695Y-16874077D01*
X20806695Y-16902648D01*
X20663838Y-16931219D01*
X20920981Y-17016934D02*
X20949552Y-17031219D01*
X21006695Y-17031219D01*
X21035266Y-17016934D01*
X21049552Y-16988362D01*
X21049552Y-16974077D01*
X21035266Y-16945505D01*
X21006695Y-16931219D01*
X20963838Y-16931219D01*
X20935266Y-16916934D01*
X20920981Y-16888362D01*
X20920981Y-16874077D01*
X20935266Y-16845505D01*
X20963838Y-16831219D01*
X21006695Y-16831219D01*
X21035266Y-16845505D01*
X21406695Y-16916934D02*
X21635266Y-16916934D01*
X21520981Y-17031219D02*
X21520981Y-16802648D01*
X22135266Y-16831219D02*
X22135266Y-17031219D01*
X22063838Y-16716934D02*
X21992409Y-16931219D01*
X22178123Y-16931219D01*
X22506695Y-17016934D02*
X22535266Y-17031219D01*
X22592409Y-17031219D01*
X22620981Y-17016934D01*
X22635266Y-16988362D01*
X22635266Y-16974077D01*
X22620981Y-16945505D01*
X22592409Y-16931219D01*
X22549552Y-16931219D01*
X22520981Y-16916934D01*
X22506695Y-16888362D01*
X22506695Y-16874077D01*
X22520981Y-16845505D01*
X22549552Y-16831219D01*
X22592409Y-16831219D01*
X22620981Y-16845505D01*
X22806695Y-17031219D02*
X22778123Y-17016934D01*
X22763838Y-16988362D01*
X22763838Y-16731219D01*
X22963838Y-17031219D02*
X22935266Y-17016934D01*
X22920981Y-17002648D01*
X22906695Y-16974077D01*
X22906695Y-16888362D01*
X22920981Y-16859791D01*
X22935266Y-16845505D01*
X22963838Y-16831219D01*
X23006695Y-16831219D01*
X23035266Y-16845505D01*
X23049552Y-16859791D01*
X23063838Y-16888362D01*
X23063838Y-16974077D01*
X23049552Y-17002648D01*
X23035266Y-17016934D01*
X23006695Y-17031219D01*
X22963838Y-17031219D01*
X23149552Y-16831219D02*
X23263838Y-16831219D01*
X23192409Y-16731219D02*
X23192409Y-16988362D01*
X23206695Y-17016934D01*
X23235266Y-17031219D01*
X23263838Y-17031219D01*
X23349552Y-17016934D02*
X23378123Y-17031219D01*
X23435266Y-17031219D01*
X23463838Y-17016934D01*
X23478123Y-16988362D01*
X23478123Y-16974077D01*
X23463838Y-16945505D01*
X23435266Y-16931219D01*
X23392409Y-16931219D01*
X23363838Y-16916934D01*
X23349552Y-16888362D01*
X23349552Y-16874077D01*
X23363838Y-16845505D01*
X23392409Y-16831219D01*
X23435266Y-16831219D01*
X23463838Y-16845505D01*
X23578123Y-17145505D02*
X23592409Y-17131219D01*
X23620981Y-17088362D01*
X23635266Y-17059791D01*
X23649552Y-17016934D01*
X23663838Y-16945505D01*
X23663838Y-16888362D01*
X23649552Y-16816934D01*
X23635266Y-16774076D01*
X23620981Y-16745505D01*
X23592409Y-16702648D01*
X23578123Y-16688362D01*
X14047245Y-17335955D02*
X14091695Y-17291505D01*
X14047245Y-17247055D01*
X14002795Y-17291505D01*
X14047245Y-17335955D01*
X14435266Y-17127219D02*
X14463838Y-17127219D01*
X14492409Y-17141505D01*
X14506695Y-17155791D01*
X14520981Y-17184362D01*
X14535266Y-17241505D01*
X14535266Y-17312934D01*
X14520981Y-17370077D01*
X14506695Y-17398648D01*
X14492409Y-17412934D01*
X14463838Y-17427219D01*
X14435266Y-17427219D01*
X14406695Y-17412934D01*
X14392409Y-17398648D01*
X14378123Y-17370077D01*
X14363838Y-17312934D01*
X14363838Y-17241505D01*
X14378123Y-17184362D01*
X14392409Y-17155791D01*
X14406695Y-17141505D01*
X14435266Y-17127219D01*
X14663838Y-17398648D02*
X14678123Y-17412934D01*
X14663838Y-17427219D01*
X14649552Y-17412934D01*
X14663838Y-17398648D01*
X14663838Y-17427219D01*
X14849552Y-17255791D02*
X14820981Y-17241505D01*
X14806695Y-17227219D01*
X14792409Y-17198648D01*
X14792409Y-17184362D01*
X14806695Y-17155791D01*
X14820981Y-17141505D01*
X14849552Y-17127219D01*
X14906695Y-17127219D01*
X14935266Y-17141505D01*
X14949552Y-17155791D01*
X14963838Y-17184362D01*
X14963838Y-17198648D01*
X14949552Y-17227219D01*
X14935266Y-17241505D01*
X14906695Y-17255791D01*
X14849552Y-17255791D01*
X14820981Y-17270077D01*
X14806695Y-17284362D01*
X14792409Y-17312934D01*
X14792409Y-17370077D01*
X14806695Y-17398648D01*
X14820981Y-17412934D01*
X14849552Y-17427219D01*
X14906695Y-17427219D01*
X14935266Y-17412934D01*
X14949552Y-17398648D01*
X14963838Y-17370077D01*
X14963838Y-17312934D01*
X14949552Y-17284362D01*
X14935266Y-17270077D01*
X14906695Y-17255791D01*
X15135266Y-17255791D02*
X15106695Y-17241505D01*
X15092409Y-17227219D01*
X15078123Y-17198648D01*
X15078123Y-17184362D01*
X15092409Y-17155791D01*
X15106695Y-17141505D01*
X15135266Y-17127219D01*
X15192409Y-17127219D01*
X15220981Y-17141505D01*
X15235266Y-17155791D01*
X15249552Y-17184362D01*
X15249552Y-17198648D01*
X15235266Y-17227219D01*
X15220981Y-17241505D01*
X15192409Y-17255791D01*
X15135266Y-17255791D01*
X15106695Y-17270077D01*
X15092409Y-17284362D01*
X15078123Y-17312934D01*
X15078123Y-17370077D01*
X15092409Y-17398648D01*
X15106695Y-17412934D01*
X15135266Y-17427219D01*
X15192409Y-17427219D01*
X15220981Y-17412934D01*
X15235266Y-17398648D01*
X15249552Y-17370077D01*
X15249552Y-17312934D01*
X15235266Y-17284362D01*
X15220981Y-17270077D01*
X15192409Y-17255791D01*
X15392409Y-17427219D02*
X15449552Y-17427219D01*
X15478123Y-17412934D01*
X15492409Y-17398648D01*
X15520981Y-17355791D01*
X15535266Y-17298648D01*
X15535266Y-17184362D01*
X15520981Y-17155791D01*
X15506695Y-17141505D01*
X15478123Y-17127219D01*
X15420981Y-17127219D01*
X15392409Y-17141505D01*
X15378123Y-17155791D01*
X15363838Y-17184362D01*
X15363838Y-17255791D01*
X15378123Y-17284362D01*
X15392409Y-17298648D01*
X15420981Y-17312934D01*
X15478123Y-17312934D01*
X15506695Y-17298648D01*
X15520981Y-17284362D01*
X15535266Y-17255791D01*
X15663838Y-17427219D02*
X15663838Y-17227219D01*
X15663838Y-17255791D02*
X15678123Y-17241505D01*
X15706695Y-17227219D01*
X15749552Y-17227219D01*
X15778123Y-17241505D01*
X15792409Y-17270077D01*
X15792409Y-17427219D01*
X15792409Y-17270077D02*
X15806695Y-17241505D01*
X15835266Y-17227219D01*
X15878123Y-17227219D01*
X15906695Y-17241505D01*
X15920981Y-17270077D01*
X15920981Y-17427219D01*
X16063838Y-17427219D02*
X16063838Y-17227219D01*
X16063838Y-17255791D02*
X16078123Y-17241505D01*
X16106695Y-17227219D01*
X16149552Y-17227219D01*
X16178123Y-17241505D01*
X16192409Y-17270077D01*
X16192409Y-17427219D01*
X16192409Y-17270077D02*
X16206695Y-17241505D01*
X16235266Y-17227219D01*
X16278123Y-17227219D01*
X16306695Y-17241505D01*
X16320981Y-17270077D01*
X16320981Y-17427219D01*
X16906695Y-17112934D02*
X16649552Y-17498648D01*
X17292409Y-17127219D02*
X17320981Y-17127219D01*
X17349552Y-17141505D01*
X17363838Y-17155791D01*
X17378123Y-17184362D01*
X17392409Y-17241505D01*
X17392409Y-17312934D01*
X17378123Y-17370077D01*
X17363838Y-17398648D01*
X17349552Y-17412934D01*
X17320981Y-17427219D01*
X17292409Y-17427219D01*
X17263838Y-17412934D01*
X17249552Y-17398648D01*
X17235266Y-17370077D01*
X17220981Y-17312934D01*
X17220981Y-17241505D01*
X17235266Y-17184362D01*
X17249552Y-17155791D01*
X17263838Y-17141505D01*
X17292409Y-17127219D01*
X17520981Y-17398648D02*
X17535266Y-17412934D01*
X17520981Y-17427219D01*
X17506695Y-17412934D01*
X17520981Y-17398648D01*
X17520981Y-17427219D01*
X17720981Y-17127219D02*
X17749552Y-17127219D01*
X17778123Y-17141505D01*
X17792409Y-17155791D01*
X17806695Y-17184362D01*
X17820981Y-17241505D01*
X17820981Y-17312934D01*
X17806695Y-17370077D01*
X17792409Y-17398648D01*
X17778123Y-17412934D01*
X17749552Y-17427219D01*
X17720981Y-17427219D01*
X17692409Y-17412934D01*
X17678123Y-17398648D01*
X17663838Y-17370077D01*
X17649552Y-17312934D01*
X17649552Y-17241505D01*
X17663838Y-17184362D01*
X17678123Y-17155791D01*
X17692409Y-17141505D01*
X17720981Y-17127219D01*
X17920981Y-17127219D02*
X18106695Y-17127219D01*
X18006695Y-17241505D01*
X18049552Y-17241505D01*
X18078123Y-17255791D01*
X18092409Y-17270077D01*
X18106695Y-17298648D01*
X18106695Y-17370077D01*
X18092409Y-17398648D01*
X18078123Y-17412934D01*
X18049552Y-17427219D01*
X17963838Y-17427219D01*
X17935266Y-17412934D01*
X17920981Y-17398648D01*
X18378123Y-17127219D02*
X18235266Y-17127219D01*
X18220981Y-17270077D01*
X18235266Y-17255791D01*
X18263838Y-17241505D01*
X18335266Y-17241505D01*
X18363838Y-17255791D01*
X18378123Y-17270077D01*
X18392409Y-17298648D01*
X18392409Y-17370077D01*
X18378123Y-17398648D01*
X18363838Y-17412934D01*
X18335266Y-17427219D01*
X18263838Y-17427219D01*
X18235266Y-17412934D01*
X18220981Y-17398648D01*
X18578123Y-17127219D02*
X18606695Y-17127219D01*
X18635266Y-17141505D01*
X18649552Y-17155791D01*
X18663838Y-17184362D01*
X18678123Y-17241505D01*
X18678123Y-17312934D01*
X18663838Y-17370077D01*
X18649552Y-17398648D01*
X18635266Y-17412934D01*
X18606695Y-17427219D01*
X18578123Y-17427219D01*
X18549552Y-17412934D01*
X18535266Y-17398648D01*
X18520981Y-17370077D01*
X18506695Y-17312934D01*
X18506695Y-17241505D01*
X18520981Y-17184362D01*
X18535266Y-17155791D01*
X18549552Y-17141505D01*
X18578123Y-17127219D01*
X18792409Y-17127219D02*
X18792409Y-17184362D01*
X18906695Y-17127219D02*
X18906695Y-17184362D01*
X19349552Y-17541505D02*
X19335266Y-17527219D01*
X19306695Y-17484362D01*
X19292409Y-17455791D01*
X19278123Y-17412934D01*
X19263838Y-17341505D01*
X19263838Y-17284362D01*
X19278123Y-17212934D01*
X19292409Y-17170077D01*
X19306695Y-17141505D01*
X19335266Y-17098648D01*
X19349552Y-17084362D01*
X19449552Y-17155791D02*
X19463838Y-17141505D01*
X19492409Y-17127219D01*
X19563838Y-17127219D01*
X19592409Y-17141505D01*
X19606695Y-17155791D01*
X19620981Y-17184362D01*
X19620981Y-17212934D01*
X19606695Y-17255791D01*
X19435266Y-17427219D01*
X19620981Y-17427219D01*
X19978123Y-17427219D02*
X19978123Y-17127219D01*
X20106695Y-17427219D02*
X20106695Y-17270077D01*
X20092409Y-17241505D01*
X20063838Y-17227219D01*
X20020981Y-17227219D01*
X19992409Y-17241505D01*
X19978123Y-17255791D01*
X20292409Y-17427219D02*
X20263838Y-17412934D01*
X20249552Y-17398648D01*
X20235266Y-17370077D01*
X20235266Y-17284362D01*
X20249552Y-17255791D01*
X20263838Y-17241505D01*
X20292409Y-17227219D01*
X20335266Y-17227219D01*
X20363838Y-17241505D01*
X20378123Y-17255791D01*
X20392409Y-17284362D01*
X20392409Y-17370077D01*
X20378123Y-17398648D01*
X20363838Y-17412934D01*
X20335266Y-17427219D01*
X20292409Y-17427219D01*
X20563838Y-17427219D02*
X20535266Y-17412934D01*
X20520981Y-17384362D01*
X20520981Y-17127219D01*
X20792409Y-17412934D02*
X20763838Y-17427219D01*
X20706695Y-17427219D01*
X20678123Y-17412934D01*
X20663838Y-17384362D01*
X20663838Y-17270077D01*
X20678123Y-17241505D01*
X20706695Y-17227219D01*
X20763838Y-17227219D01*
X20792409Y-17241505D01*
X20806695Y-17270077D01*
X20806695Y-17298648D01*
X20663838Y-17327219D01*
X20920981Y-17412934D02*
X20949552Y-17427219D01*
X21006695Y-17427219D01*
X21035266Y-17412934D01*
X21049552Y-17384362D01*
X21049552Y-17370077D01*
X21035266Y-17341505D01*
X21006695Y-17327219D01*
X20963838Y-17327219D01*
X20935266Y-17312934D01*
X20920981Y-17284362D01*
X20920981Y-17270077D01*
X20935266Y-17241505D01*
X20963838Y-17227219D01*
X21006695Y-17227219D01*
X21035266Y-17241505D01*
X21149552Y-17541505D02*
X21163838Y-17527219D01*
X21192409Y-17484362D01*
X21206695Y-17455791D01*
X21220981Y-17412934D01*
X21235266Y-17341505D01*
X21235266Y-17284362D01*
X21220981Y-17212934D01*
X21206695Y-17170077D01*
X21192409Y-17141505D01*
X21163838Y-17098648D01*
X21149552Y-17084362D01*
X13992635Y-17637975D02*
X14091695Y-17737035D01*
X14091695Y-17637975D02*
X13992635Y-17737035D01*
X14091695Y-17687505D02*
G75*
G03*
X14091695Y-17687505I-49530J0D01*
G01*
X14435266Y-17523219D02*
X14463838Y-17523219D01*
X14492409Y-17537505D01*
X14506695Y-17551791D01*
X14520981Y-17580362D01*
X14535266Y-17637505D01*
X14535266Y-17708934D01*
X14520981Y-17766077D01*
X14506695Y-17794648D01*
X14492409Y-17808934D01*
X14463838Y-17823219D01*
X14435266Y-17823219D01*
X14406695Y-17808934D01*
X14392409Y-17794648D01*
X14378123Y-17766077D01*
X14363838Y-17708934D01*
X14363838Y-17637505D01*
X14378123Y-17580362D01*
X14392409Y-17551791D01*
X14406695Y-17537505D01*
X14435266Y-17523219D01*
X14663838Y-17794648D02*
X14678123Y-17808934D01*
X14663838Y-17823219D01*
X14649552Y-17808934D01*
X14663838Y-17794648D01*
X14663838Y-17823219D01*
X14820981Y-17823219D02*
X14878123Y-17823219D01*
X14906695Y-17808934D01*
X14920981Y-17794648D01*
X14949552Y-17751791D01*
X14963838Y-17694648D01*
X14963838Y-17580362D01*
X14949552Y-17551791D01*
X14935266Y-17537505D01*
X14906695Y-17523219D01*
X14849552Y-17523219D01*
X14820981Y-17537505D01*
X14806695Y-17551791D01*
X14792409Y-17580362D01*
X14792409Y-17651791D01*
X14806695Y-17680362D01*
X14820981Y-17694648D01*
X14849552Y-17708934D01*
X14906695Y-17708934D01*
X14935266Y-17694648D01*
X14949552Y-17680362D01*
X14963838Y-17651791D01*
X15106695Y-17823219D02*
X15163838Y-17823219D01*
X15192409Y-17808934D01*
X15206695Y-17794648D01*
X15235266Y-17751791D01*
X15249552Y-17694648D01*
X15249552Y-17580362D01*
X15235266Y-17551791D01*
X15220981Y-17537505D01*
X15192409Y-17523219D01*
X15135266Y-17523219D01*
X15106695Y-17537505D01*
X15092409Y-17551791D01*
X15078123Y-17580362D01*
X15078123Y-17651791D01*
X15092409Y-17680362D01*
X15106695Y-17694648D01*
X15135266Y-17708934D01*
X15192409Y-17708934D01*
X15220981Y-17694648D01*
X15235266Y-17680362D01*
X15249552Y-17651791D01*
X15535266Y-17823219D02*
X15363838Y-17823219D01*
X15449552Y-17823219D02*
X15449552Y-17523219D01*
X15420981Y-17566077D01*
X15392409Y-17594648D01*
X15363838Y-17608934D01*
X15663838Y-17823219D02*
X15663838Y-17623219D01*
X15663838Y-17651791D02*
X15678123Y-17637505D01*
X15706695Y-17623219D01*
X15749552Y-17623219D01*
X15778123Y-17637505D01*
X15792409Y-17666077D01*
X15792409Y-17823219D01*
X15792409Y-17666077D02*
X15806695Y-17637505D01*
X15835266Y-17623219D01*
X15878123Y-17623219D01*
X15906695Y-17637505D01*
X15920981Y-17666077D01*
X15920981Y-17823219D01*
X16063838Y-17823219D02*
X16063838Y-17623219D01*
X16063838Y-17651791D02*
X16078123Y-17637505D01*
X16106695Y-17623219D01*
X16149552Y-17623219D01*
X16178123Y-17637505D01*
X16192409Y-17666077D01*
X16192409Y-17823219D01*
X16192409Y-17666077D02*
X16206695Y-17637505D01*
X16235266Y-17623219D01*
X16278123Y-17623219D01*
X16306695Y-17637505D01*
X16320981Y-17666077D01*
X16320981Y-17823219D01*
X16906695Y-17508934D02*
X16649552Y-17894648D01*
X17292409Y-17523219D02*
X17320981Y-17523219D01*
X17349552Y-17537505D01*
X17363838Y-17551791D01*
X17378123Y-17580362D01*
X17392409Y-17637505D01*
X17392409Y-17708934D01*
X17378123Y-17766077D01*
X17363838Y-17794648D01*
X17349552Y-17808934D01*
X17320981Y-17823219D01*
X17292409Y-17823219D01*
X17263838Y-17808934D01*
X17249552Y-17794648D01*
X17235266Y-17766077D01*
X17220981Y-17708934D01*
X17220981Y-17637505D01*
X17235266Y-17580362D01*
X17249552Y-17551791D01*
X17263838Y-17537505D01*
X17292409Y-17523219D01*
X17520981Y-17794648D02*
X17535266Y-17808934D01*
X17520981Y-17823219D01*
X17506695Y-17808934D01*
X17520981Y-17794648D01*
X17520981Y-17823219D01*
X17720981Y-17523219D02*
X17749552Y-17523219D01*
X17778123Y-17537505D01*
X17792409Y-17551791D01*
X17806695Y-17580362D01*
X17820981Y-17637505D01*
X17820981Y-17708934D01*
X17806695Y-17766077D01*
X17792409Y-17794648D01*
X17778123Y-17808934D01*
X17749552Y-17823219D01*
X17720981Y-17823219D01*
X17692409Y-17808934D01*
X17678123Y-17794648D01*
X17663838Y-17766077D01*
X17649552Y-17708934D01*
X17649552Y-17637505D01*
X17663838Y-17580362D01*
X17678123Y-17551791D01*
X17692409Y-17537505D01*
X17720981Y-17523219D01*
X17920981Y-17523219D02*
X18106695Y-17523219D01*
X18006695Y-17637505D01*
X18049552Y-17637505D01*
X18078123Y-17651791D01*
X18092409Y-17666077D01*
X18106695Y-17694648D01*
X18106695Y-17766077D01*
X18092409Y-17794648D01*
X18078123Y-17808934D01*
X18049552Y-17823219D01*
X17963838Y-17823219D01*
X17935266Y-17808934D01*
X17920981Y-17794648D01*
X18249552Y-17823219D02*
X18306695Y-17823219D01*
X18335266Y-17808934D01*
X18349552Y-17794648D01*
X18378123Y-17751791D01*
X18392409Y-17694648D01*
X18392409Y-17580362D01*
X18378123Y-17551791D01*
X18363838Y-17537505D01*
X18335266Y-17523219D01*
X18278123Y-17523219D01*
X18249552Y-17537505D01*
X18235266Y-17551791D01*
X18220981Y-17580362D01*
X18220981Y-17651791D01*
X18235266Y-17680362D01*
X18249552Y-17694648D01*
X18278123Y-17708934D01*
X18335266Y-17708934D01*
X18363838Y-17694648D01*
X18378123Y-17680362D01*
X18392409Y-17651791D01*
X18578123Y-17523219D02*
X18606695Y-17523219D01*
X18635266Y-17537505D01*
X18649552Y-17551791D01*
X18663838Y-17580362D01*
X18678123Y-17637505D01*
X18678123Y-17708934D01*
X18663838Y-17766077D01*
X18649552Y-17794648D01*
X18635266Y-17808934D01*
X18606695Y-17823219D01*
X18578123Y-17823219D01*
X18549552Y-17808934D01*
X18535266Y-17794648D01*
X18520981Y-17766077D01*
X18506695Y-17708934D01*
X18506695Y-17637505D01*
X18520981Y-17580362D01*
X18535266Y-17551791D01*
X18549552Y-17537505D01*
X18578123Y-17523219D01*
X18792409Y-17523219D02*
X18792409Y-17580362D01*
X18906695Y-17523219D02*
X18906695Y-17580362D01*
X19349552Y-17937505D02*
X19335266Y-17923219D01*
X19306695Y-17880362D01*
X19292409Y-17851791D01*
X19278123Y-17808934D01*
X19263838Y-17737505D01*
X19263838Y-17680362D01*
X19278123Y-17608934D01*
X19292409Y-17566077D01*
X19306695Y-17537505D01*
X19335266Y-17494648D01*
X19349552Y-17480362D01*
X19620981Y-17823219D02*
X19449552Y-17823219D01*
X19535266Y-17823219D02*
X19535266Y-17523219D01*
X19506695Y-17566077D01*
X19478123Y-17594648D01*
X19449552Y-17608934D01*
X19806695Y-17523219D02*
X19835266Y-17523219D01*
X19863838Y-17537505D01*
X19878123Y-17551791D01*
X19892409Y-17580362D01*
X19906695Y-17637505D01*
X19906695Y-17708934D01*
X19892409Y-17766077D01*
X19878123Y-17794648D01*
X19863838Y-17808934D01*
X19835266Y-17823219D01*
X19806695Y-17823219D01*
X19778123Y-17808934D01*
X19763838Y-17794648D01*
X19749552Y-17766077D01*
X19735266Y-17708934D01*
X19735266Y-17637505D01*
X19749552Y-17580362D01*
X19763838Y-17551791D01*
X19778123Y-17537505D01*
X19806695Y-17523219D01*
X20263838Y-17823219D02*
X20263838Y-17523219D01*
X20392409Y-17823219D02*
X20392409Y-17666077D01*
X20378123Y-17637505D01*
X20349552Y-17623219D01*
X20306695Y-17623219D01*
X20278123Y-17637505D01*
X20263838Y-17651791D01*
X20578123Y-17823219D02*
X20549552Y-17808934D01*
X20535266Y-17794648D01*
X20520981Y-17766077D01*
X20520981Y-17680362D01*
X20535266Y-17651791D01*
X20549552Y-17637505D01*
X20578123Y-17623219D01*
X20620981Y-17623219D01*
X20649552Y-17637505D01*
X20663838Y-17651791D01*
X20678123Y-17680362D01*
X20678123Y-17766077D01*
X20663838Y-17794648D01*
X20649552Y-17808934D01*
X20620981Y-17823219D01*
X20578123Y-17823219D01*
X20849552Y-17823219D02*
X20820981Y-17808934D01*
X20806695Y-17780362D01*
X20806695Y-17523219D01*
X21078123Y-17808934D02*
X21049552Y-17823219D01*
X20992409Y-17823219D01*
X20963838Y-17808934D01*
X20949552Y-17780362D01*
X20949552Y-17666077D01*
X20963838Y-17637505D01*
X20992409Y-17623219D01*
X21049552Y-17623219D01*
X21078123Y-17637505D01*
X21092409Y-17666077D01*
X21092409Y-17694648D01*
X20949552Y-17723219D01*
X21206695Y-17808934D02*
X21235266Y-17823219D01*
X21292409Y-17823219D01*
X21320981Y-17808934D01*
X21335266Y-17780362D01*
X21335266Y-17766077D01*
X21320981Y-17737505D01*
X21292409Y-17723219D01*
X21249552Y-17723219D01*
X21220981Y-17708934D01*
X21206695Y-17680362D01*
X21206695Y-17666077D01*
X21220981Y-17637505D01*
X21249552Y-17623219D01*
X21292409Y-17623219D01*
X21320981Y-17637505D01*
X21435266Y-17937505D02*
X21449552Y-17923219D01*
X21478123Y-17880362D01*
X21492409Y-17851791D01*
X21506695Y-17808934D01*
X21520981Y-17737505D01*
X21520981Y-17680362D01*
X21506695Y-17608934D01*
X21492409Y-17566077D01*
X21478123Y-17537505D01*
X21449552Y-17494648D01*
X21435266Y-17480362D01*
X13991695Y-18033505D02*
X14091695Y-18133505D01*
X14091695Y-18033505D02*
X13991695Y-18133505D01*
X14041695Y-18033505D02*
X14041695Y-18133505D01*
X13991695Y-18083505D02*
X14091695Y-18083505D01*
X14535266Y-18219219D02*
X14363838Y-18219219D01*
X14449552Y-18219219D02*
X14449552Y-17919219D01*
X14420981Y-17962077D01*
X14392409Y-17990648D01*
X14363838Y-18004934D01*
X14663838Y-18190648D02*
X14678123Y-18204934D01*
X14663838Y-18219219D01*
X14649552Y-18204934D01*
X14663838Y-18190648D01*
X14663838Y-18219219D01*
X14863838Y-17919219D02*
X14892409Y-17919219D01*
X14920981Y-17933505D01*
X14935266Y-17947791D01*
X14949552Y-17976362D01*
X14963838Y-18033505D01*
X14963838Y-18104934D01*
X14949552Y-18162077D01*
X14935266Y-18190648D01*
X14920981Y-18204934D01*
X14892409Y-18219219D01*
X14863838Y-18219219D01*
X14835266Y-18204934D01*
X14820981Y-18190648D01*
X14806695Y-18162077D01*
X14792409Y-18104934D01*
X14792409Y-18033505D01*
X14806695Y-17976362D01*
X14820981Y-17947791D01*
X14835266Y-17933505D01*
X14863838Y-17919219D01*
X15149552Y-17919219D02*
X15178123Y-17919219D01*
X15206695Y-17933505D01*
X15220981Y-17947791D01*
X15235266Y-17976362D01*
X15249552Y-18033505D01*
X15249552Y-18104934D01*
X15235266Y-18162077D01*
X15220981Y-18190648D01*
X15206695Y-18204934D01*
X15178123Y-18219219D01*
X15149552Y-18219219D01*
X15120981Y-18204934D01*
X15106695Y-18190648D01*
X15092409Y-18162077D01*
X15078123Y-18104934D01*
X15078123Y-18033505D01*
X15092409Y-17976362D01*
X15106695Y-17947791D01*
X15120981Y-17933505D01*
X15149552Y-17919219D01*
X15435266Y-17919219D02*
X15463838Y-17919219D01*
X15492409Y-17933505D01*
X15506695Y-17947791D01*
X15520981Y-17976362D01*
X15535266Y-18033505D01*
X15535266Y-18104934D01*
X15520981Y-18162077D01*
X15506695Y-18190648D01*
X15492409Y-18204934D01*
X15463838Y-18219219D01*
X15435266Y-18219219D01*
X15406695Y-18204934D01*
X15392409Y-18190648D01*
X15378123Y-18162077D01*
X15363838Y-18104934D01*
X15363838Y-18033505D01*
X15378123Y-17976362D01*
X15392409Y-17947791D01*
X15406695Y-17933505D01*
X15435266Y-17919219D01*
X15663838Y-18219219D02*
X15663838Y-18019219D01*
X15663838Y-18047791D02*
X15678123Y-18033505D01*
X15706695Y-18019219D01*
X15749552Y-18019219D01*
X15778123Y-18033505D01*
X15792409Y-18062077D01*
X15792409Y-18219219D01*
X15792409Y-18062077D02*
X15806695Y-18033505D01*
X15835266Y-18019219D01*
X15878123Y-18019219D01*
X15906695Y-18033505D01*
X15920981Y-18062077D01*
X15920981Y-18219219D01*
X16063838Y-18219219D02*
X16063838Y-18019219D01*
X16063838Y-18047791D02*
X16078123Y-18033505D01*
X16106695Y-18019219D01*
X16149552Y-18019219D01*
X16178123Y-18033505D01*
X16192409Y-18062077D01*
X16192409Y-18219219D01*
X16192409Y-18062077D02*
X16206695Y-18033505D01*
X16235266Y-18019219D01*
X16278123Y-18019219D01*
X16306695Y-18033505D01*
X16320981Y-18062077D01*
X16320981Y-18219219D01*
X16906695Y-17904934D02*
X16649552Y-18290648D01*
X17292409Y-17919219D02*
X17320981Y-17919219D01*
X17349552Y-17933505D01*
X17363838Y-17947791D01*
X17378123Y-17976362D01*
X17392409Y-18033505D01*
X17392409Y-18104934D01*
X17378123Y-18162077D01*
X17363838Y-18190648D01*
X17349552Y-18204934D01*
X17320981Y-18219219D01*
X17292409Y-18219219D01*
X17263838Y-18204934D01*
X17249552Y-18190648D01*
X17235266Y-18162077D01*
X17220981Y-18104934D01*
X17220981Y-18033505D01*
X17235266Y-17976362D01*
X17249552Y-17947791D01*
X17263838Y-17933505D01*
X17292409Y-17919219D01*
X17520981Y-18190648D02*
X17535266Y-18204934D01*
X17520981Y-18219219D01*
X17506695Y-18204934D01*
X17520981Y-18190648D01*
X17520981Y-18219219D01*
X17720981Y-17919219D02*
X17749552Y-17919219D01*
X17778123Y-17933505D01*
X17792409Y-17947791D01*
X17806695Y-17976362D01*
X17820981Y-18033505D01*
X17820981Y-18104934D01*
X17806695Y-18162077D01*
X17792409Y-18190648D01*
X17778123Y-18204934D01*
X17749552Y-18219219D01*
X17720981Y-18219219D01*
X17692409Y-18204934D01*
X17678123Y-18190648D01*
X17663838Y-18162077D01*
X17649552Y-18104934D01*
X17649552Y-18033505D01*
X17663838Y-17976362D01*
X17678123Y-17947791D01*
X17692409Y-17933505D01*
X17720981Y-17919219D01*
X17920981Y-17919219D02*
X18106695Y-17919219D01*
X18006695Y-18033505D01*
X18049552Y-18033505D01*
X18078123Y-18047791D01*
X18092409Y-18062077D01*
X18106695Y-18090648D01*
X18106695Y-18162077D01*
X18092409Y-18190648D01*
X18078123Y-18204934D01*
X18049552Y-18219219D01*
X17963838Y-18219219D01*
X17935266Y-18204934D01*
X17920981Y-18190648D01*
X18249552Y-18219219D02*
X18306695Y-18219219D01*
X18335266Y-18204934D01*
X18349552Y-18190648D01*
X18378123Y-18147791D01*
X18392409Y-18090648D01*
X18392409Y-17976362D01*
X18378123Y-17947791D01*
X18363838Y-17933505D01*
X18335266Y-17919219D01*
X18278123Y-17919219D01*
X18249552Y-17933505D01*
X18235266Y-17947791D01*
X18220981Y-17976362D01*
X18220981Y-18047791D01*
X18235266Y-18076362D01*
X18249552Y-18090648D01*
X18278123Y-18104934D01*
X18335266Y-18104934D01*
X18363838Y-18090648D01*
X18378123Y-18076362D01*
X18392409Y-18047791D01*
X18649552Y-18019219D02*
X18649552Y-18219219D01*
X18578123Y-17904934D02*
X18506695Y-18119219D01*
X18692409Y-18119219D01*
X18792409Y-17919219D02*
X18792409Y-17976362D01*
X18906695Y-17919219D02*
X18906695Y-17976362D01*
X19349552Y-18333505D02*
X19335266Y-18319219D01*
X19306695Y-18276362D01*
X19292409Y-18247791D01*
X19278123Y-18204934D01*
X19263838Y-18133505D01*
X19263838Y-18076362D01*
X19278123Y-18004934D01*
X19292409Y-17962077D01*
X19306695Y-17933505D01*
X19335266Y-17890648D01*
X19349552Y-17876362D01*
X19592409Y-17919219D02*
X19535266Y-17919219D01*
X19506695Y-17933505D01*
X19492409Y-17947791D01*
X19463838Y-17990648D01*
X19449552Y-18047791D01*
X19449552Y-18162077D01*
X19463838Y-18190648D01*
X19478123Y-18204934D01*
X19506695Y-18219219D01*
X19563838Y-18219219D01*
X19592409Y-18204934D01*
X19606695Y-18190648D01*
X19620981Y-18162077D01*
X19620981Y-18090648D01*
X19606695Y-18062077D01*
X19592409Y-18047791D01*
X19563838Y-18033505D01*
X19506695Y-18033505D01*
X19478123Y-18047791D01*
X19463838Y-18062077D01*
X19449552Y-18090648D01*
X19878123Y-17919219D02*
X19820981Y-17919219D01*
X19792409Y-17933505D01*
X19778123Y-17947791D01*
X19749552Y-17990648D01*
X19735266Y-18047791D01*
X19735266Y-18162077D01*
X19749552Y-18190648D01*
X19763838Y-18204934D01*
X19792409Y-18219219D01*
X19849552Y-18219219D01*
X19878123Y-18204934D01*
X19892409Y-18190648D01*
X19906695Y-18162077D01*
X19906695Y-18090648D01*
X19892409Y-18062077D01*
X19878123Y-18047791D01*
X19849552Y-18033505D01*
X19792409Y-18033505D01*
X19763838Y-18047791D01*
X19749552Y-18062077D01*
X19735266Y-18090648D01*
X20263838Y-18219219D02*
X20263838Y-17919219D01*
X20392409Y-18219219D02*
X20392409Y-18062077D01*
X20378123Y-18033505D01*
X20349552Y-18019219D01*
X20306695Y-18019219D01*
X20278123Y-18033505D01*
X20263838Y-18047791D01*
X20578123Y-18219219D02*
X20549552Y-18204934D01*
X20535266Y-18190648D01*
X20520981Y-18162077D01*
X20520981Y-18076362D01*
X20535266Y-18047791D01*
X20549552Y-18033505D01*
X20578123Y-18019219D01*
X20620981Y-18019219D01*
X20649552Y-18033505D01*
X20663838Y-18047791D01*
X20678123Y-18076362D01*
X20678123Y-18162077D01*
X20663838Y-18190648D01*
X20649552Y-18204934D01*
X20620981Y-18219219D01*
X20578123Y-18219219D01*
X20849552Y-18219219D02*
X20820981Y-18204934D01*
X20806695Y-18176362D01*
X20806695Y-17919219D01*
X21078123Y-18204934D02*
X21049552Y-18219219D01*
X20992409Y-18219219D01*
X20963838Y-18204934D01*
X20949552Y-18176362D01*
X20949552Y-18062077D01*
X20963838Y-18033505D01*
X20992409Y-18019219D01*
X21049552Y-18019219D01*
X21078123Y-18033505D01*
X21092409Y-18062077D01*
X21092409Y-18090648D01*
X20949552Y-18119219D01*
X21206695Y-18204934D02*
X21235266Y-18219219D01*
X21292409Y-18219219D01*
X21320981Y-18204934D01*
X21335266Y-18176362D01*
X21335266Y-18162077D01*
X21320981Y-18133505D01*
X21292409Y-18119219D01*
X21249552Y-18119219D01*
X21220981Y-18104934D01*
X21206695Y-18076362D01*
X21206695Y-18062077D01*
X21220981Y-18033505D01*
X21249552Y-18019219D01*
X21292409Y-18019219D01*
X21320981Y-18033505D01*
X21692409Y-18104934D02*
X21920981Y-18104934D01*
X21806695Y-18219219D02*
X21806695Y-17990648D01*
X22449552Y-18219219D02*
X22278123Y-18219219D01*
X22363838Y-18219219D02*
X22363838Y-17919219D01*
X22335266Y-17962077D01*
X22306695Y-17990648D01*
X22278123Y-18004934D01*
X22635266Y-17919219D02*
X22663838Y-17919219D01*
X22692409Y-17933505D01*
X22706695Y-17947791D01*
X22720981Y-17976362D01*
X22735266Y-18033505D01*
X22735266Y-18104934D01*
X22720981Y-18162077D01*
X22706695Y-18190648D01*
X22692409Y-18204934D01*
X22663838Y-18219219D01*
X22635266Y-18219219D01*
X22606695Y-18204934D01*
X22592409Y-18190648D01*
X22578123Y-18162077D01*
X22563838Y-18104934D01*
X22563838Y-18033505D01*
X22578123Y-17976362D01*
X22592409Y-17947791D01*
X22606695Y-17933505D01*
X22635266Y-17919219D01*
X23078123Y-18204934D02*
X23106695Y-18219219D01*
X23163838Y-18219219D01*
X23192409Y-18204934D01*
X23206695Y-18176362D01*
X23206695Y-18162077D01*
X23192409Y-18133505D01*
X23163838Y-18119219D01*
X23120981Y-18119219D01*
X23092409Y-18104934D01*
X23078123Y-18076362D01*
X23078123Y-18062077D01*
X23092409Y-18033505D01*
X23120981Y-18019219D01*
X23163838Y-18019219D01*
X23192409Y-18033505D01*
X23378123Y-18219219D02*
X23349552Y-18204934D01*
X23335266Y-18176362D01*
X23335266Y-17919219D01*
X23535266Y-18219219D02*
X23506695Y-18204934D01*
X23492409Y-18190648D01*
X23478123Y-18162077D01*
X23478123Y-18076362D01*
X23492409Y-18047791D01*
X23506695Y-18033505D01*
X23535266Y-18019219D01*
X23578123Y-18019219D01*
X23606695Y-18033505D01*
X23620981Y-18047791D01*
X23635266Y-18076362D01*
X23635266Y-18162077D01*
X23620981Y-18190648D01*
X23606695Y-18204934D01*
X23578123Y-18219219D01*
X23535266Y-18219219D01*
X23720981Y-18019219D02*
X23835266Y-18019219D01*
X23763838Y-17919219D02*
X23763838Y-18176362D01*
X23778123Y-18204934D01*
X23806695Y-18219219D01*
X23835266Y-18219219D01*
X23920981Y-18204934D02*
X23949552Y-18219219D01*
X24006695Y-18219219D01*
X24035266Y-18204934D01*
X24049552Y-18176362D01*
X24049552Y-18162077D01*
X24035266Y-18133505D01*
X24006695Y-18119219D01*
X23963838Y-18119219D01*
X23935266Y-18104934D01*
X23920981Y-18076362D01*
X23920981Y-18062077D01*
X23935266Y-18033505D01*
X23963838Y-18019219D01*
X24006695Y-18019219D01*
X24035266Y-18033505D01*
X24149552Y-18333505D02*
X24163838Y-18319219D01*
X24192409Y-18276362D01*
X24206695Y-18247791D01*
X24220981Y-18204934D01*
X24235266Y-18133505D01*
X24235266Y-18076362D01*
X24220981Y-18004934D01*
X24206695Y-17962077D01*
X24192409Y-17933505D01*
X24163838Y-17890648D01*
X24149552Y-17876362D01*
X13911695Y-18389505D02*
X14091695Y-18569505D01*
X14091695Y-18389505D02*
X13911695Y-18569505D01*
X14065335Y-18543145D02*
X14065335Y-18415865D01*
X13938055Y-18415865D01*
X13938055Y-18543145D01*
X14065335Y-18543145D01*
X14535266Y-18615219D02*
X14363838Y-18615219D01*
X14449552Y-18615219D02*
X14449552Y-18315219D01*
X14420981Y-18358077D01*
X14392409Y-18386648D01*
X14363838Y-18400934D01*
X14663838Y-18586648D02*
X14678123Y-18600934D01*
X14663838Y-18615219D01*
X14649552Y-18600934D01*
X14663838Y-18586648D01*
X14663838Y-18615219D01*
X14849552Y-18443791D02*
X14820981Y-18429505D01*
X14806695Y-18415219D01*
X14792409Y-18386648D01*
X14792409Y-18372362D01*
X14806695Y-18343791D01*
X14820981Y-18329505D01*
X14849552Y-18315219D01*
X14906695Y-18315219D01*
X14935266Y-18329505D01*
X14949552Y-18343791D01*
X14963838Y-18372362D01*
X14963838Y-18386648D01*
X14949552Y-18415219D01*
X14935266Y-18429505D01*
X14906695Y-18443791D01*
X14849552Y-18443791D01*
X14820981Y-18458077D01*
X14806695Y-18472362D01*
X14792409Y-18500934D01*
X14792409Y-18558077D01*
X14806695Y-18586648D01*
X14820981Y-18600934D01*
X14849552Y-18615219D01*
X14906695Y-18615219D01*
X14935266Y-18600934D01*
X14949552Y-18586648D01*
X14963838Y-18558077D01*
X14963838Y-18500934D01*
X14949552Y-18472362D01*
X14935266Y-18458077D01*
X14906695Y-18443791D01*
X15149552Y-18315219D02*
X15178123Y-18315219D01*
X15206695Y-18329505D01*
X15220981Y-18343791D01*
X15235266Y-18372362D01*
X15249552Y-18429505D01*
X15249552Y-18500934D01*
X15235266Y-18558077D01*
X15220981Y-18586648D01*
X15206695Y-18600934D01*
X15178123Y-18615219D01*
X15149552Y-18615219D01*
X15120981Y-18600934D01*
X15106695Y-18586648D01*
X15092409Y-18558077D01*
X15078123Y-18500934D01*
X15078123Y-18429505D01*
X15092409Y-18372362D01*
X15106695Y-18343791D01*
X15120981Y-18329505D01*
X15149552Y-18315219D01*
X15435266Y-18315219D02*
X15463838Y-18315219D01*
X15492409Y-18329505D01*
X15506695Y-18343791D01*
X15520981Y-18372362D01*
X15535266Y-18429505D01*
X15535266Y-18500934D01*
X15520981Y-18558077D01*
X15506695Y-18586648D01*
X15492409Y-18600934D01*
X15463838Y-18615219D01*
X15435266Y-18615219D01*
X15406695Y-18600934D01*
X15392409Y-18586648D01*
X15378123Y-18558077D01*
X15363838Y-18500934D01*
X15363838Y-18429505D01*
X15378123Y-18372362D01*
X15392409Y-18343791D01*
X15406695Y-18329505D01*
X15435266Y-18315219D01*
X15663838Y-18615219D02*
X15663838Y-18415219D01*
X15663838Y-18443791D02*
X15678123Y-18429505D01*
X15706695Y-18415219D01*
X15749552Y-18415219D01*
X15778123Y-18429505D01*
X15792409Y-18458077D01*
X15792409Y-18615219D01*
X15792409Y-18458077D02*
X15806695Y-18429505D01*
X15835266Y-18415219D01*
X15878123Y-18415219D01*
X15906695Y-18429505D01*
X15920981Y-18458077D01*
X15920981Y-18615219D01*
X16063838Y-18615219D02*
X16063838Y-18415219D01*
X16063838Y-18443791D02*
X16078123Y-18429505D01*
X16106695Y-18415219D01*
X16149552Y-18415219D01*
X16178123Y-18429505D01*
X16192409Y-18458077D01*
X16192409Y-18615219D01*
X16192409Y-18458077D02*
X16206695Y-18429505D01*
X16235266Y-18415219D01*
X16278123Y-18415219D01*
X16306695Y-18429505D01*
X16320981Y-18458077D01*
X16320981Y-18615219D01*
X16906695Y-18300934D02*
X16649552Y-18686648D01*
X17292409Y-18315219D02*
X17320981Y-18315219D01*
X17349552Y-18329505D01*
X17363838Y-18343791D01*
X17378123Y-18372362D01*
X17392409Y-18429505D01*
X17392409Y-18500934D01*
X17378123Y-18558077D01*
X17363838Y-18586648D01*
X17349552Y-18600934D01*
X17320981Y-18615219D01*
X17292409Y-18615219D01*
X17263838Y-18600934D01*
X17249552Y-18586648D01*
X17235266Y-18558077D01*
X17220981Y-18500934D01*
X17220981Y-18429505D01*
X17235266Y-18372362D01*
X17249552Y-18343791D01*
X17263838Y-18329505D01*
X17292409Y-18315219D01*
X17520981Y-18586648D02*
X17535266Y-18600934D01*
X17520981Y-18615219D01*
X17506695Y-18600934D01*
X17520981Y-18586648D01*
X17520981Y-18615219D01*
X17720981Y-18315219D02*
X17749552Y-18315219D01*
X17778123Y-18329505D01*
X17792409Y-18343791D01*
X17806695Y-18372362D01*
X17820981Y-18429505D01*
X17820981Y-18500934D01*
X17806695Y-18558077D01*
X17792409Y-18586648D01*
X17778123Y-18600934D01*
X17749552Y-18615219D01*
X17720981Y-18615219D01*
X17692409Y-18600934D01*
X17678123Y-18586648D01*
X17663838Y-18558077D01*
X17649552Y-18500934D01*
X17649552Y-18429505D01*
X17663838Y-18372362D01*
X17678123Y-18343791D01*
X17692409Y-18329505D01*
X17720981Y-18315219D01*
X17920981Y-18315219D02*
X18120981Y-18315219D01*
X17992409Y-18615219D01*
X18292409Y-18315219D02*
X18320981Y-18315219D01*
X18349552Y-18329505D01*
X18363838Y-18343791D01*
X18378123Y-18372362D01*
X18392409Y-18429505D01*
X18392409Y-18500934D01*
X18378123Y-18558077D01*
X18363838Y-18586648D01*
X18349552Y-18600934D01*
X18320981Y-18615219D01*
X18292409Y-18615219D01*
X18263838Y-18600934D01*
X18249552Y-18586648D01*
X18235266Y-18558077D01*
X18220981Y-18500934D01*
X18220981Y-18429505D01*
X18235266Y-18372362D01*
X18249552Y-18343791D01*
X18263838Y-18329505D01*
X18292409Y-18315219D01*
X18535266Y-18615219D02*
X18592409Y-18615219D01*
X18620981Y-18600934D01*
X18635266Y-18586648D01*
X18663838Y-18543791D01*
X18678123Y-18486648D01*
X18678123Y-18372362D01*
X18663838Y-18343791D01*
X18649552Y-18329505D01*
X18620981Y-18315219D01*
X18563838Y-18315219D01*
X18535266Y-18329505D01*
X18520981Y-18343791D01*
X18506695Y-18372362D01*
X18506695Y-18443791D01*
X18520981Y-18472362D01*
X18535266Y-18486648D01*
X18563838Y-18500934D01*
X18620981Y-18500934D01*
X18649552Y-18486648D01*
X18663838Y-18472362D01*
X18678123Y-18443791D01*
X18792409Y-18315219D02*
X18792409Y-18372362D01*
X18906695Y-18315219D02*
X18906695Y-18372362D01*
X19349552Y-18729505D02*
X19335266Y-18715219D01*
X19306695Y-18672362D01*
X19292409Y-18643791D01*
X19278123Y-18600934D01*
X19263838Y-18529505D01*
X19263838Y-18472362D01*
X19278123Y-18400934D01*
X19292409Y-18358077D01*
X19306695Y-18329505D01*
X19335266Y-18286648D01*
X19349552Y-18272362D01*
X19520981Y-18315219D02*
X19549552Y-18315219D01*
X19578123Y-18329505D01*
X19592409Y-18343791D01*
X19606695Y-18372362D01*
X19620981Y-18429505D01*
X19620981Y-18500934D01*
X19606695Y-18558077D01*
X19592409Y-18586648D01*
X19578123Y-18600934D01*
X19549552Y-18615219D01*
X19520981Y-18615219D01*
X19492409Y-18600934D01*
X19478123Y-18586648D01*
X19463838Y-18558077D01*
X19449552Y-18500934D01*
X19449552Y-18429505D01*
X19463838Y-18372362D01*
X19478123Y-18343791D01*
X19492409Y-18329505D01*
X19520981Y-18315219D01*
X19978123Y-18615219D02*
X19978123Y-18315219D01*
X20106695Y-18615219D02*
X20106695Y-18458077D01*
X20092409Y-18429505D01*
X20063838Y-18415219D01*
X20020981Y-18415219D01*
X19992409Y-18429505D01*
X19978123Y-18443791D01*
X20292409Y-18615219D02*
X20263838Y-18600934D01*
X20249552Y-18586648D01*
X20235266Y-18558077D01*
X20235266Y-18472362D01*
X20249552Y-18443791D01*
X20263838Y-18429505D01*
X20292409Y-18415219D01*
X20335266Y-18415219D01*
X20363838Y-18429505D01*
X20378123Y-18443791D01*
X20392409Y-18472362D01*
X20392409Y-18558077D01*
X20378123Y-18586648D01*
X20363838Y-18600934D01*
X20335266Y-18615219D01*
X20292409Y-18615219D01*
X20563838Y-18615219D02*
X20535266Y-18600934D01*
X20520981Y-18572362D01*
X20520981Y-18315219D01*
X20792409Y-18600934D02*
X20763838Y-18615219D01*
X20706695Y-18615219D01*
X20678123Y-18600934D01*
X20663838Y-18572362D01*
X20663838Y-18458077D01*
X20678123Y-18429505D01*
X20706695Y-18415219D01*
X20763838Y-18415219D01*
X20792409Y-18429505D01*
X20806695Y-18458077D01*
X20806695Y-18486648D01*
X20663838Y-18515219D01*
X20920981Y-18600934D02*
X20949552Y-18615219D01*
X21006695Y-18615219D01*
X21035266Y-18600934D01*
X21049552Y-18572362D01*
X21049552Y-18558077D01*
X21035266Y-18529505D01*
X21006695Y-18515219D01*
X20963838Y-18515219D01*
X20935266Y-18500934D01*
X20920981Y-18472362D01*
X20920981Y-18458077D01*
X20935266Y-18429505D01*
X20963838Y-18415219D01*
X21006695Y-18415219D01*
X21035266Y-18429505D01*
X21406695Y-18500934D02*
X21635266Y-18500934D01*
X21520981Y-18615219D02*
X21520981Y-18386648D01*
X21992409Y-18343791D02*
X22006695Y-18329505D01*
X22035266Y-18315219D01*
X22106695Y-18315219D01*
X22135266Y-18329505D01*
X22149552Y-18343791D01*
X22163838Y-18372362D01*
X22163838Y-18400934D01*
X22149552Y-18443791D01*
X21978123Y-18615219D01*
X22163838Y-18615219D01*
X22506695Y-18600934D02*
X22535266Y-18615219D01*
X22592409Y-18615219D01*
X22620981Y-18600934D01*
X22635266Y-18572362D01*
X22635266Y-18558077D01*
X22620981Y-18529505D01*
X22592409Y-18515219D01*
X22549552Y-18515219D01*
X22520981Y-18500934D01*
X22506695Y-18472362D01*
X22506695Y-18458077D01*
X22520981Y-18429505D01*
X22549552Y-18415219D01*
X22592409Y-18415219D01*
X22620981Y-18429505D01*
X22806695Y-18615219D02*
X22778123Y-18600934D01*
X22763838Y-18572362D01*
X22763838Y-18315219D01*
X22963838Y-18615219D02*
X22935266Y-18600934D01*
X22920981Y-18586648D01*
X22906695Y-18558077D01*
X22906695Y-18472362D01*
X22920981Y-18443791D01*
X22935266Y-18429505D01*
X22963838Y-18415219D01*
X23006695Y-18415219D01*
X23035266Y-18429505D01*
X23049552Y-18443791D01*
X23063838Y-18472362D01*
X23063838Y-18558077D01*
X23049552Y-18586648D01*
X23035266Y-18600934D01*
X23006695Y-18615219D01*
X22963838Y-18615219D01*
X23149552Y-18415219D02*
X23263838Y-18415219D01*
X23192409Y-18315219D02*
X23192409Y-18572362D01*
X23206695Y-18600934D01*
X23235266Y-18615219D01*
X23263838Y-18615219D01*
X23349552Y-18600934D02*
X23378123Y-18615219D01*
X23435266Y-18615219D01*
X23463838Y-18600934D01*
X23478123Y-18572362D01*
X23478123Y-18558077D01*
X23463838Y-18529505D01*
X23435266Y-18515219D01*
X23392409Y-18515219D01*
X23363838Y-18500934D01*
X23349552Y-18472362D01*
X23349552Y-18458077D01*
X23363838Y-18429505D01*
X23392409Y-18415219D01*
X23435266Y-18415219D01*
X23463838Y-18429505D01*
X23578123Y-18729505D02*
X23592409Y-18715219D01*
X23620981Y-18672362D01*
X23635266Y-18643791D01*
X23649552Y-18600934D01*
X23663838Y-18529505D01*
X23663838Y-18472362D01*
X23649552Y-18400934D01*
X23635266Y-18358077D01*
X23620981Y-18329505D01*
X23592409Y-18286648D01*
X23578123Y-18272362D01*
X13888495Y-18773905D02*
X14091695Y-18977105D01*
X14091695Y-18773905D02*
X13888495Y-18977105D01*
X13990095Y-18977105D02*
X14091695Y-18875505D01*
X13990095Y-18773905D01*
X13888495Y-18875505D01*
X13990095Y-18977105D01*
X14363838Y-18739791D02*
X14378123Y-18725505D01*
X14406695Y-18711219D01*
X14478123Y-18711219D01*
X14506695Y-18725505D01*
X14520981Y-18739791D01*
X14535266Y-18768362D01*
X14535266Y-18796934D01*
X14520981Y-18839791D01*
X14349552Y-19011219D01*
X14535266Y-19011219D01*
X14663838Y-18982648D02*
X14678123Y-18996934D01*
X14663838Y-19011219D01*
X14649552Y-18996934D01*
X14663838Y-18982648D01*
X14663838Y-19011219D01*
X14863838Y-18711219D02*
X14892409Y-18711219D01*
X14920981Y-18725505D01*
X14935266Y-18739791D01*
X14949552Y-18768362D01*
X14963838Y-18825505D01*
X14963838Y-18896934D01*
X14949552Y-18954077D01*
X14935266Y-18982648D01*
X14920981Y-18996934D01*
X14892409Y-19011219D01*
X14863838Y-19011219D01*
X14835266Y-18996934D01*
X14820981Y-18982648D01*
X14806695Y-18954077D01*
X14792409Y-18896934D01*
X14792409Y-18825505D01*
X14806695Y-18768362D01*
X14820981Y-18739791D01*
X14835266Y-18725505D01*
X14863838Y-18711219D01*
X15063838Y-18711219D02*
X15249552Y-18711219D01*
X15149552Y-18825505D01*
X15192409Y-18825505D01*
X15220981Y-18839791D01*
X15235266Y-18854077D01*
X15249552Y-18882648D01*
X15249552Y-18954077D01*
X15235266Y-18982648D01*
X15220981Y-18996934D01*
X15192409Y-19011219D01*
X15106695Y-19011219D01*
X15078123Y-18996934D01*
X15063838Y-18982648D01*
X15363838Y-18739791D02*
X15378123Y-18725505D01*
X15406695Y-18711219D01*
X15478123Y-18711219D01*
X15506695Y-18725505D01*
X15520981Y-18739791D01*
X15535266Y-18768362D01*
X15535266Y-18796934D01*
X15520981Y-18839791D01*
X15349552Y-19011219D01*
X15535266Y-19011219D01*
X15663838Y-19011219D02*
X15663838Y-18811219D01*
X15663838Y-18839791D02*
X15678123Y-18825505D01*
X15706695Y-18811219D01*
X15749552Y-18811219D01*
X15778123Y-18825505D01*
X15792409Y-18854077D01*
X15792409Y-19011219D01*
X15792409Y-18854077D02*
X15806695Y-18825505D01*
X15835266Y-18811219D01*
X15878123Y-18811219D01*
X15906695Y-18825505D01*
X15920981Y-18854077D01*
X15920981Y-19011219D01*
X16063838Y-19011219D02*
X16063838Y-18811219D01*
X16063838Y-18839791D02*
X16078123Y-18825505D01*
X16106695Y-18811219D01*
X16149552Y-18811219D01*
X16178123Y-18825505D01*
X16192409Y-18854077D01*
X16192409Y-19011219D01*
X16192409Y-18854077D02*
X16206695Y-18825505D01*
X16235266Y-18811219D01*
X16278123Y-18811219D01*
X16306695Y-18825505D01*
X16320981Y-18854077D01*
X16320981Y-19011219D01*
X16906695Y-18696934D02*
X16649552Y-19082648D01*
X17292409Y-18711219D02*
X17320981Y-18711219D01*
X17349552Y-18725505D01*
X17363838Y-18739791D01*
X17378123Y-18768362D01*
X17392409Y-18825505D01*
X17392409Y-18896934D01*
X17378123Y-18954077D01*
X17363838Y-18982648D01*
X17349552Y-18996934D01*
X17320981Y-19011219D01*
X17292409Y-19011219D01*
X17263838Y-18996934D01*
X17249552Y-18982648D01*
X17235266Y-18954077D01*
X17220981Y-18896934D01*
X17220981Y-18825505D01*
X17235266Y-18768362D01*
X17249552Y-18739791D01*
X17263838Y-18725505D01*
X17292409Y-18711219D01*
X17520981Y-18982648D02*
X17535266Y-18996934D01*
X17520981Y-19011219D01*
X17506695Y-18996934D01*
X17520981Y-18982648D01*
X17520981Y-19011219D01*
X17720981Y-18711219D02*
X17749552Y-18711219D01*
X17778123Y-18725505D01*
X17792409Y-18739791D01*
X17806695Y-18768362D01*
X17820981Y-18825505D01*
X17820981Y-18896934D01*
X17806695Y-18954077D01*
X17792409Y-18982648D01*
X17778123Y-18996934D01*
X17749552Y-19011219D01*
X17720981Y-19011219D01*
X17692409Y-18996934D01*
X17678123Y-18982648D01*
X17663838Y-18954077D01*
X17649552Y-18896934D01*
X17649552Y-18825505D01*
X17663838Y-18768362D01*
X17678123Y-18739791D01*
X17692409Y-18725505D01*
X17720981Y-18711219D01*
X17992409Y-18839791D02*
X17963838Y-18825505D01*
X17949552Y-18811219D01*
X17935266Y-18782648D01*
X17935266Y-18768362D01*
X17949552Y-18739791D01*
X17963838Y-18725505D01*
X17992409Y-18711219D01*
X18049552Y-18711219D01*
X18078123Y-18725505D01*
X18092409Y-18739791D01*
X18106695Y-18768362D01*
X18106695Y-18782648D01*
X18092409Y-18811219D01*
X18078123Y-18825505D01*
X18049552Y-18839791D01*
X17992409Y-18839791D01*
X17963838Y-18854077D01*
X17949552Y-18868362D01*
X17935266Y-18896934D01*
X17935266Y-18954077D01*
X17949552Y-18982648D01*
X17963838Y-18996934D01*
X17992409Y-19011219D01*
X18049552Y-19011219D01*
X18078123Y-18996934D01*
X18092409Y-18982648D01*
X18106695Y-18954077D01*
X18106695Y-18896934D01*
X18092409Y-18868362D01*
X18078123Y-18854077D01*
X18049552Y-18839791D01*
X18292409Y-18711219D02*
X18320981Y-18711219D01*
X18349552Y-18725505D01*
X18363838Y-18739791D01*
X18378123Y-18768362D01*
X18392409Y-18825505D01*
X18392409Y-18896934D01*
X18378123Y-18954077D01*
X18363838Y-18982648D01*
X18349552Y-18996934D01*
X18320981Y-19011219D01*
X18292409Y-19011219D01*
X18263838Y-18996934D01*
X18249552Y-18982648D01*
X18235266Y-18954077D01*
X18220981Y-18896934D01*
X18220981Y-18825505D01*
X18235266Y-18768362D01*
X18249552Y-18739791D01*
X18263838Y-18725505D01*
X18292409Y-18711219D01*
X18578123Y-18711219D02*
X18606695Y-18711219D01*
X18635266Y-18725505D01*
X18649552Y-18739791D01*
X18663838Y-18768362D01*
X18678123Y-18825505D01*
X18678123Y-18896934D01*
X18663838Y-18954077D01*
X18649552Y-18982648D01*
X18635266Y-18996934D01*
X18606695Y-19011219D01*
X18578123Y-19011219D01*
X18549552Y-18996934D01*
X18535266Y-18982648D01*
X18520981Y-18954077D01*
X18506695Y-18896934D01*
X18506695Y-18825505D01*
X18520981Y-18768362D01*
X18535266Y-18739791D01*
X18549552Y-18725505D01*
X18578123Y-18711219D01*
X18792409Y-18711219D02*
X18792409Y-18768362D01*
X18906695Y-18711219D02*
X18906695Y-18768362D01*
X19349552Y-19125505D02*
X19335266Y-19111219D01*
X19306695Y-19068362D01*
X19292409Y-19039791D01*
X19278123Y-18996934D01*
X19263838Y-18925505D01*
X19263838Y-18868362D01*
X19278123Y-18796934D01*
X19292409Y-18754077D01*
X19306695Y-18725505D01*
X19335266Y-18682648D01*
X19349552Y-18668362D01*
X19449552Y-18739791D02*
X19463838Y-18725505D01*
X19492409Y-18711219D01*
X19563838Y-18711219D01*
X19592409Y-18725505D01*
X19606695Y-18739791D01*
X19620981Y-18768362D01*
X19620981Y-18796934D01*
X19606695Y-18839791D01*
X19435266Y-19011219D01*
X19620981Y-19011219D01*
X19978123Y-19011219D02*
X19978123Y-18711219D01*
X20106695Y-19011219D02*
X20106695Y-18854077D01*
X20092409Y-18825505D01*
X20063838Y-18811219D01*
X20020981Y-18811219D01*
X19992409Y-18825505D01*
X19978123Y-18839791D01*
X20292409Y-19011219D02*
X20263838Y-18996934D01*
X20249552Y-18982648D01*
X20235266Y-18954077D01*
X20235266Y-18868362D01*
X20249552Y-18839791D01*
X20263838Y-18825505D01*
X20292409Y-18811219D01*
X20335266Y-18811219D01*
X20363838Y-18825505D01*
X20378123Y-18839791D01*
X20392409Y-18868362D01*
X20392409Y-18954077D01*
X20378123Y-18982648D01*
X20363838Y-18996934D01*
X20335266Y-19011219D01*
X20292409Y-19011219D01*
X20563838Y-19011219D02*
X20535266Y-18996934D01*
X20520981Y-18968362D01*
X20520981Y-18711219D01*
X20792409Y-18996934D02*
X20763838Y-19011219D01*
X20706695Y-19011219D01*
X20678123Y-18996934D01*
X20663838Y-18968362D01*
X20663838Y-18854077D01*
X20678123Y-18825505D01*
X20706695Y-18811219D01*
X20763838Y-18811219D01*
X20792409Y-18825505D01*
X20806695Y-18854077D01*
X20806695Y-18882648D01*
X20663838Y-18911219D01*
X20920981Y-18996934D02*
X20949552Y-19011219D01*
X21006695Y-19011219D01*
X21035266Y-18996934D01*
X21049552Y-18968362D01*
X21049552Y-18954077D01*
X21035266Y-18925505D01*
X21006695Y-18911219D01*
X20963838Y-18911219D01*
X20935266Y-18896934D01*
X20920981Y-18868362D01*
X20920981Y-18854077D01*
X20935266Y-18825505D01*
X20963838Y-18811219D01*
X21006695Y-18811219D01*
X21035266Y-18825505D01*
X21149552Y-19125505D02*
X21163838Y-19111219D01*
X21192409Y-19068362D01*
X21206695Y-19039791D01*
X21220981Y-18996934D01*
X21235266Y-18925505D01*
X21235266Y-18868362D01*
X21220981Y-18796934D01*
X21206695Y-18754077D01*
X21192409Y-18725505D01*
X21163838Y-18682648D01*
X21149552Y-18668362D01*
X13931695Y-19111505D02*
X13931695Y-19431505D01*
X13771695Y-19271505D02*
X14091695Y-19271505D01*
X14091695Y-19271505D02*
G75*
G03*
X14091695Y-19271505I-160000J0D01*
G01*
X14349552Y-19107219D02*
X14535266Y-19107219D01*
X14435266Y-19221505D01*
X14478123Y-19221505D01*
X14506695Y-19235791D01*
X14520981Y-19250077D01*
X14535266Y-19278648D01*
X14535266Y-19350077D01*
X14520981Y-19378648D01*
X14506695Y-19392934D01*
X14478123Y-19407219D01*
X14392409Y-19407219D01*
X14363838Y-19392934D01*
X14349552Y-19378648D01*
X14663838Y-19378648D02*
X14678123Y-19392934D01*
X14663838Y-19407219D01*
X14649552Y-19392934D01*
X14663838Y-19378648D01*
X14663838Y-19407219D01*
X14792409Y-19135791D02*
X14806695Y-19121505D01*
X14835266Y-19107219D01*
X14906695Y-19107219D01*
X14935266Y-19121505D01*
X14949552Y-19135791D01*
X14963838Y-19164362D01*
X14963838Y-19192934D01*
X14949552Y-19235791D01*
X14778123Y-19407219D01*
X14963838Y-19407219D01*
X15149552Y-19107219D02*
X15178123Y-19107219D01*
X15206695Y-19121505D01*
X15220981Y-19135791D01*
X15235266Y-19164362D01*
X15249552Y-19221505D01*
X15249552Y-19292934D01*
X15235266Y-19350077D01*
X15220981Y-19378648D01*
X15206695Y-19392934D01*
X15178123Y-19407219D01*
X15149552Y-19407219D01*
X15120981Y-19392934D01*
X15106695Y-19378648D01*
X15092409Y-19350077D01*
X15078123Y-19292934D01*
X15078123Y-19221505D01*
X15092409Y-19164362D01*
X15106695Y-19135791D01*
X15120981Y-19121505D01*
X15149552Y-19107219D01*
X15435266Y-19107219D02*
X15463838Y-19107219D01*
X15492409Y-19121505D01*
X15506695Y-19135791D01*
X15520981Y-19164362D01*
X15535266Y-19221505D01*
X15535266Y-19292934D01*
X15520981Y-19350077D01*
X15506695Y-19378648D01*
X15492409Y-19392934D01*
X15463838Y-19407219D01*
X15435266Y-19407219D01*
X15406695Y-19392934D01*
X15392409Y-19378648D01*
X15378123Y-19350077D01*
X15363838Y-19292934D01*
X15363838Y-19221505D01*
X15378123Y-19164362D01*
X15392409Y-19135791D01*
X15406695Y-19121505D01*
X15435266Y-19107219D01*
X15663838Y-19407219D02*
X15663838Y-19207219D01*
X15663838Y-19235791D02*
X15678123Y-19221505D01*
X15706695Y-19207219D01*
X15749552Y-19207219D01*
X15778123Y-19221505D01*
X15792409Y-19250077D01*
X15792409Y-19407219D01*
X15792409Y-19250077D02*
X15806695Y-19221505D01*
X15835266Y-19207219D01*
X15878123Y-19207219D01*
X15906695Y-19221505D01*
X15920981Y-19250077D01*
X15920981Y-19407219D01*
X16063838Y-19407219D02*
X16063838Y-19207219D01*
X16063838Y-19235791D02*
X16078123Y-19221505D01*
X16106695Y-19207219D01*
X16149552Y-19207219D01*
X16178123Y-19221505D01*
X16192409Y-19250077D01*
X16192409Y-19407219D01*
X16192409Y-19250077D02*
X16206695Y-19221505D01*
X16235266Y-19207219D01*
X16278123Y-19207219D01*
X16306695Y-19221505D01*
X16320981Y-19250077D01*
X16320981Y-19407219D01*
X16906695Y-19092934D02*
X16649552Y-19478648D01*
X17292409Y-19107219D02*
X17320981Y-19107219D01*
X17349552Y-19121505D01*
X17363838Y-19135791D01*
X17378123Y-19164362D01*
X17392409Y-19221505D01*
X17392409Y-19292934D01*
X17378123Y-19350077D01*
X17363838Y-19378648D01*
X17349552Y-19392934D01*
X17320981Y-19407219D01*
X17292409Y-19407219D01*
X17263838Y-19392934D01*
X17249552Y-19378648D01*
X17235266Y-19350077D01*
X17220981Y-19292934D01*
X17220981Y-19221505D01*
X17235266Y-19164362D01*
X17249552Y-19135791D01*
X17263838Y-19121505D01*
X17292409Y-19107219D01*
X17520981Y-19378648D02*
X17535266Y-19392934D01*
X17520981Y-19407219D01*
X17506695Y-19392934D01*
X17520981Y-19378648D01*
X17520981Y-19407219D01*
X17820981Y-19407219D02*
X17649552Y-19407219D01*
X17735266Y-19407219D02*
X17735266Y-19107219D01*
X17706695Y-19150077D01*
X17678123Y-19178648D01*
X17649552Y-19192934D01*
X17935266Y-19135791D02*
X17949552Y-19121505D01*
X17978123Y-19107219D01*
X18049552Y-19107219D01*
X18078123Y-19121505D01*
X18092409Y-19135791D01*
X18106695Y-19164362D01*
X18106695Y-19192934D01*
X18092409Y-19235791D01*
X17920981Y-19407219D01*
X18106695Y-19407219D01*
X18363838Y-19107219D02*
X18306695Y-19107219D01*
X18278123Y-19121505D01*
X18263838Y-19135791D01*
X18235266Y-19178648D01*
X18220981Y-19235791D01*
X18220981Y-19350077D01*
X18235266Y-19378648D01*
X18249552Y-19392934D01*
X18278123Y-19407219D01*
X18335266Y-19407219D01*
X18363838Y-19392934D01*
X18378123Y-19378648D01*
X18392409Y-19350077D01*
X18392409Y-19278648D01*
X18378123Y-19250077D01*
X18363838Y-19235791D01*
X18335266Y-19221505D01*
X18278123Y-19221505D01*
X18249552Y-19235791D01*
X18235266Y-19250077D01*
X18220981Y-19278648D01*
X18578123Y-19107219D02*
X18606695Y-19107219D01*
X18635266Y-19121505D01*
X18649552Y-19135791D01*
X18663838Y-19164362D01*
X18678123Y-19221505D01*
X18678123Y-19292934D01*
X18663838Y-19350077D01*
X18649552Y-19378648D01*
X18635266Y-19392934D01*
X18606695Y-19407219D01*
X18578123Y-19407219D01*
X18549552Y-19392934D01*
X18535266Y-19378648D01*
X18520981Y-19350077D01*
X18506695Y-19292934D01*
X18506695Y-19221505D01*
X18520981Y-19164362D01*
X18535266Y-19135791D01*
X18549552Y-19121505D01*
X18578123Y-19107219D01*
X18792409Y-19107219D02*
X18792409Y-19164362D01*
X18906695Y-19107219D02*
X18906695Y-19164362D01*
X19349552Y-19521505D02*
X19335266Y-19507219D01*
X19306695Y-19464362D01*
X19292409Y-19435791D01*
X19278123Y-19392934D01*
X19263838Y-19321505D01*
X19263838Y-19264362D01*
X19278123Y-19192934D01*
X19292409Y-19150077D01*
X19306695Y-19121505D01*
X19335266Y-19078648D01*
X19349552Y-19064362D01*
X19592409Y-19207219D02*
X19592409Y-19407219D01*
X19520981Y-19092934D02*
X19449552Y-19307219D01*
X19635266Y-19307219D01*
X19978123Y-19407219D02*
X19978123Y-19107219D01*
X20106695Y-19407219D02*
X20106695Y-19250077D01*
X20092409Y-19221505D01*
X20063838Y-19207219D01*
X20020981Y-19207219D01*
X19992409Y-19221505D01*
X19978123Y-19235791D01*
X20292409Y-19407219D02*
X20263838Y-19392934D01*
X20249552Y-19378648D01*
X20235266Y-19350077D01*
X20235266Y-19264362D01*
X20249552Y-19235791D01*
X20263838Y-19221505D01*
X20292409Y-19207219D01*
X20335266Y-19207219D01*
X20363838Y-19221505D01*
X20378123Y-19235791D01*
X20392409Y-19264362D01*
X20392409Y-19350077D01*
X20378123Y-19378648D01*
X20363838Y-19392934D01*
X20335266Y-19407219D01*
X20292409Y-19407219D01*
X20563838Y-19407219D02*
X20535266Y-19392934D01*
X20520981Y-19364362D01*
X20520981Y-19107219D01*
X20792409Y-19392934D02*
X20763838Y-19407219D01*
X20706695Y-19407219D01*
X20678123Y-19392934D01*
X20663838Y-19364362D01*
X20663838Y-19250077D01*
X20678123Y-19221505D01*
X20706695Y-19207219D01*
X20763838Y-19207219D01*
X20792409Y-19221505D01*
X20806695Y-19250077D01*
X20806695Y-19278648D01*
X20663838Y-19307219D01*
X20920981Y-19392934D02*
X20949552Y-19407219D01*
X21006695Y-19407219D01*
X21035266Y-19392934D01*
X21049552Y-19364362D01*
X21049552Y-19350077D01*
X21035266Y-19321505D01*
X21006695Y-19307219D01*
X20963838Y-19307219D01*
X20935266Y-19292934D01*
X20920981Y-19264362D01*
X20920981Y-19250077D01*
X20935266Y-19221505D01*
X20963838Y-19207219D01*
X21006695Y-19207219D01*
X21035266Y-19221505D01*
X21149552Y-19521505D02*
X21163838Y-19507219D01*
X21192409Y-19464362D01*
X21206695Y-19435791D01*
X21220981Y-19392934D01*
X21235266Y-19321505D01*
X21235266Y-19264362D01*
X21220981Y-19192934D01*
X21206695Y-19150077D01*
X21192409Y-19121505D01*
X21163838Y-19078648D01*
X21149552Y-19064362D01*
M02*
