G04 #@! TF.GenerationSoftware,KiCad,Pcbnew,(5.1.10)-1*
G04 #@! TF.CreationDate,2021-10-14T22:16:22+02:00*
G04 #@! TF.ProjectId,H7RTX-V2,48375254-582d-4563-922e-6b696361645f,rev?*
G04 #@! TF.SameCoordinates,Original*
G04 #@! TF.FileFunction,Soldermask,Bot*
G04 #@! TF.FilePolarity,Negative*
%FSLAX46Y46*%
G04 Gerber Fmt 4.6, Leading zero omitted, Abs format (unit mm)*
G04 Created by KiCad (PCBNEW (5.1.10)-1) date 2021-10-14 22:16:22*
%MOMM*%
%LPD*%
G01*
G04 APERTURE LIST*
%ADD10C,2.000000*%
%ADD11R,2.800000X3.600000*%
%ADD12O,1.700000X1.700000*%
%ADD13R,1.700000X1.700000*%
%ADD14R,2.000000X2.000000*%
%ADD15C,1.498600*%
%ADD16O,1.508000X3.016000*%
%ADD17C,1.397000*%
%ADD18C,2.540000*%
%ADD19O,1.000000X1.550000*%
%ADD20O,1.250000X0.950000*%
%ADD21C,0.800000*%
%ADD22C,6.400000*%
G04 APERTURE END LIST*
D10*
X206286000Y-78756000D03*
X203786000Y-78756000D03*
X201286000Y-78756000D03*
X206286000Y-64256000D03*
X201286000Y-64256000D03*
D11*
X209486000Y-71256000D03*
X198086000Y-71256000D03*
D12*
X154017000Y-60842000D03*
D13*
X156557000Y-60842000D03*
D12*
X168342600Y-51215400D03*
X168342600Y-53755400D03*
X165802600Y-51215400D03*
X165802600Y-53755400D03*
X163262600Y-51215400D03*
X163262600Y-53755400D03*
X160722600Y-51215400D03*
D13*
X160722600Y-53755400D03*
D14*
X175429200Y-77250400D03*
X178477200Y-77656800D03*
D12*
X167352000Y-58505200D03*
X167352000Y-61045200D03*
X164812000Y-58505200D03*
X164812000Y-61045200D03*
X162272000Y-58505200D03*
D13*
X162272000Y-61045200D03*
D15*
X214596000Y-62239000D03*
X214596000Y-64779000D03*
X214596000Y-67319000D03*
X214596000Y-69859000D03*
X214596000Y-72399000D03*
X222216000Y-72399000D03*
X222216000Y-69859000D03*
X222216000Y-67319000D03*
X222216000Y-64779000D03*
X222216000Y-62239000D03*
D13*
X194276000Y-58683000D03*
X189704000Y-59191000D03*
X189704000Y-63636000D03*
D10*
X210836800Y-107882800D03*
X215942200Y-88782000D03*
X199381400Y-138616800D03*
X208373000Y-143671400D03*
X236262200Y-82635200D03*
X231156800Y-101736000D03*
X175937200Y-113115200D03*
X170831800Y-132216000D03*
X215789800Y-133536800D03*
X220895200Y-114436000D03*
X202581800Y-99272200D03*
X183481000Y-94166800D03*
X202404000Y-128837800D03*
X183303200Y-123732400D03*
X170196800Y-143722200D03*
X151096000Y-138616800D03*
X188942000Y-118322200D03*
X193996600Y-109330600D03*
X180356800Y-144890600D03*
X185411400Y-135899000D03*
X147209800Y-128456800D03*
X152315200Y-109356000D03*
D12*
X221835000Y-77479000D03*
D13*
X221835000Y-80019000D03*
D12*
X225645000Y-77479000D03*
D13*
X225645000Y-80019000D03*
D12*
X218025000Y-77479000D03*
D13*
X218025000Y-80019000D03*
D12*
X171771600Y-107425600D03*
D13*
X171771600Y-104885600D03*
D12*
X166971000Y-107451000D03*
D13*
X166971000Y-104911000D03*
D12*
X161891000Y-107451000D03*
D13*
X161891000Y-104911000D03*
D12*
X173194000Y-60461000D03*
D13*
X173194000Y-57921000D03*
D16*
X144746000Y-100466000D03*
X147146000Y-98466000D03*
X150846000Y-100466000D03*
X152646000Y-98466000D03*
X156346000Y-100466000D03*
X144746000Y-91576000D03*
X147146000Y-89576000D03*
X150846000Y-91576000D03*
X152646000Y-89576000D03*
X156346000Y-91576000D03*
D17*
X227042000Y-64906000D03*
X227042000Y-62366000D03*
D18*
X232122000Y-59826000D03*
X232122000Y-69986000D03*
D12*
X149826000Y-82686000D03*
D13*
X149826000Y-80146000D03*
D12*
X149826000Y-66176000D03*
D13*
X149826000Y-63636000D03*
D19*
X189379000Y-50522000D03*
X196379000Y-50522000D03*
D20*
X195379000Y-53222000D03*
X190379000Y-53222000D03*
D19*
X176933000Y-50522000D03*
X183933000Y-50522000D03*
D20*
X182933000Y-53222000D03*
X177933000Y-53222000D03*
D21*
X146443056Y-141948944D03*
X144746000Y-141246000D03*
X143048944Y-141948944D03*
X142346000Y-143646000D03*
X143048944Y-145343056D03*
X144746000Y-146046000D03*
X146443056Y-145343056D03*
X147146000Y-143646000D03*
D22*
X144746000Y-143646000D03*
D21*
X237883056Y-50508944D03*
X236186000Y-49806000D03*
X234488944Y-50508944D03*
X233786000Y-52206000D03*
X234488944Y-53903056D03*
X236186000Y-54606000D03*
X237883056Y-53903056D03*
X238586000Y-52206000D03*
D22*
X236186000Y-52206000D03*
D21*
X237883056Y-141948944D03*
X236186000Y-141246000D03*
X234488944Y-141948944D03*
X233786000Y-143646000D03*
X234488944Y-145343056D03*
X236186000Y-146046000D03*
X237883056Y-145343056D03*
X238586000Y-143646000D03*
D22*
X236186000Y-143646000D03*
D21*
X146443056Y-50508944D03*
X144746000Y-49806000D03*
X143048944Y-50508944D03*
X142346000Y-52206000D03*
X143048944Y-53903056D03*
X144746000Y-54606000D03*
X146443056Y-53903056D03*
X147146000Y-52206000D03*
D22*
X144746000Y-52206000D03*
M02*
